<?xml version="1.0" encoding="UTF-8" standalone="no"?>
<!-- Created with Inkscape (http://www.inkscape.org/) -->

<svg
   width="195.07835mm"
   height="33.486217mm"
   viewBox="0 0 195.07836 33.486218"
   version="1.1"
   id="svg1"
   inkscape:version="1.3.2 (1:1.3.2+202311252150+091e20ef0f)"
   sodipodi:docname="library-construct.svg"
   xml:space="preserve"
   inkscape:export-filename="library-construct.png"
   inkscape:export-xdpi="300"
   inkscape:export-ydpi="300"
   xmlns:inkscape="http://www.inkscape.org/namespaces/inkscape"
   xmlns:sodipodi="http://sodipodi.sourceforge.net/DTD/sodipodi-0.dtd"
   xmlns="http://www.w3.org/2000/svg"
   xmlns:svg="http://www.w3.org/2000/svg"><sodipodi:namedview
     id="namedview1"
     pagecolor="#505050"
     bordercolor="#ffffff"
     borderopacity="1"
     inkscape:showpageshadow="0"
     inkscape:pageopacity="0"
     inkscape:pagecheckerboard="1"
     inkscape:deskcolor="#d1d1d1"
     inkscape:document-units="mm"
     showgrid="false"
     inkscape:zoom="7.9562097"
     inkscape:cx="706.11513"
     inkscape:cy="38.586213"
     inkscape:current-layer="layer1"><inkscape:grid
       id="grid38"
       units="px"
       originx="2.2711912"
       originy="-5.2064395"
       spacingx="0.26458333"
       spacingy="0.26458334"
       empcolor="#e50000"
       empopacity="0.30196078"
       color="#e50000"
       opacity="0.14901961"
       empspacing="5"
       dotted="true"
       gridanglex="30"
       gridanglez="30"
       visible="false" /></sodipodi:namedview><defs
     id="defs1"><rect
       x="-441.09375"
       y="160.76794"
       width="1150.6888"
       height="385.68927"
       id="rect34" /><rect
       x="-549.40308"
       y="144.68449"
       width="1321.4049"
       height="343.30215"
       id="rect17" /><rect
       x="-441.09375"
       y="160.76794"
       width="1150.6888"
       height="385.68927"
       id="rect34-6" /><rect
       x="-441.09375"
       y="160.76794"
       width="1150.6888"
       height="385.68927"
       id="rect34-7" /><rect
       x="-441.09375"
       y="160.76794"
       width="1150.6888"
       height="385.68927"
       id="rect34-7-9" /><rect
       x="-441.09375"
       y="160.76794"
       width="1150.6888"
       height="385.68927"
       id="rect34-7-9-8" /><rect
       x="-441.09375"
       y="160.76794"
       width="1150.6888"
       height="385.68927"
       id="rect34-7-9-8-1" /></defs><g
     inkscape:label="Layer 1"
     inkscape:groupmode="layer"
     id="layer1"
     transform="translate(2.271191,-5.2064394)"><text
       xml:space="preserve"
       style="font-size:2.11667px;line-height:1;font-family:'Albert Sans';-inkscape-font-specification:'Albert Sans';text-align:center;text-decoration-color:#000000;letter-spacing:0px;text-anchor:middle;white-space:pre;inline-size:187.621;display:inline;fill:#9b9b9a;stroke:#9b9b9a;stroke-width:1.05833;stroke-linecap:round;stroke-linejoin:round;paint-order:markers fill stroke"
       x="-58.904598"
       y="80.023895"
       id="text1" /><text
       xml:space="preserve"
       transform="scale(0.26458333)"
       id="text17"
       style="font-style:normal;font-variant:normal;font-weight:normal;font-stretch:normal;font-size:8px;line-height:1;font-family:'Ubuntu Mono';-inkscape-font-specification:'Ubuntu Mono';text-align:center;text-decoration-color:#000000;letter-spacing:0px;white-space:pre;shape-inside:url(#rect17);display:inline;fill:#9b9b9a;stroke:none;stroke-width:4;stroke-linecap:round;stroke-linejoin:round;paint-order:markers fill stroke" /><text
       xml:space="preserve"
       style="font-style:normal;font-variant:normal;font-weight:normal;font-stretch:normal;font-size:2.11667px;line-height:1;font-family:'Ubuntu Mono';-inkscape-font-specification:'Ubuntu Mono';text-align:center;text-decoration-color:#000000;letter-spacing:0px;text-anchor:middle;fill:#9b9b9a;stroke:none;stroke-width:1.05833;stroke-linecap:round;stroke-linejoin:round;paint-order:markers fill stroke"
       x="-34.310341"
       y="56.630524"
       id="text18"><tspan
         sodipodi:role="line"
         id="tspan18"
         style="stroke-width:1.05833"
         x="-34.310341"
         y="56.630524" /></text><rect
       style="fill:#0b5cd5;stroke:none;stroke-width:1.05833;stroke-linecap:round;stroke-linejoin:round;paint-order:markers fill stroke"
       id="rect38-5-9"
       width="34.660416"
       height="6.6145849"
       x="9.7895832"
       y="15.875001"
       ry="0.82161731" /><rect
       style="fill:#17a2b8;stroke:none;stroke-width:1.05833;stroke-linecap:round;stroke-linejoin:round;paint-order:markers fill stroke"
       id="rect38-5-9-5"
       width="28.575006"
       height="6.614583"
       x="151.07707"
       y="15.875001"
       ry="0.82161731" /><rect
       style="fill:#5d37a2;fill-opacity:1;stroke:none;stroke-width:1.05833;stroke-linecap:round;stroke-linejoin:round;paint-order:markers fill stroke"
       id="rect38-5-9-4"
       width="9.2604179"
       height="6.6145821"
       x="44.449997"
       y="15.875002"
       ry="0.82161731" /><rect
       style="fill:#d56a11;fill-opacity:1;stroke:none;stroke-width:1.05833;stroke-linecap:round;stroke-linejoin:round;paint-order:markers fill stroke"
       id="rect38-5-9-4-3"
       width="7.1437478"
       height="6.614583"
       x="94.191666"
       y="15.875001"
       ry="0.82161731" /><rect
       style="fill:#228c3a;fill-opacity:1;stroke:none;stroke-width:1.05833;stroke-linecap:round;stroke-linejoin:round;paint-order:markers fill stroke"
       id="rect38-5-9-4-3-7"
       width="9.5249939"
       height="6.5528841"
       x="141.55208"
       y="15.936702"
       ry="0.82161731" /><rect
       style="fill:#d6a206;fill-opacity:1;stroke:none;stroke-width:1.05833;stroke-linecap:round;stroke-linejoin:round;paint-order:markers fill stroke"
       id="rect38-5-9-4-3-1"
       width="40.216663"
       height="6.6175494"
       x="101.33541"
       y="15.875001"
       ry="0.82161731" /><rect
       style="fill:#b92d3a;stroke:none;stroke-width:1.05833;stroke-linecap:round;stroke-linejoin:round;paint-order:markers fill stroke"
       id="rect38-5-9-4-6"
       width="40.481251"
       height="6.6145849"
       x="53.710415"
       y="15.875001"
       ry="0.82161731" /><text
       xml:space="preserve"
       transform="matrix(0.26458333,0,0,0.26458333,59.139057,-25.54255)"
       id="text34-2"
       style="font-style:normal;font-variant:normal;font-weight:normal;font-stretch:normal;font-size:8px;line-height:1;font-family:'Ubuntu Mono';-inkscape-font-specification:'Ubuntu Mono';text-align:center;text-decoration-color:#000000;letter-spacing:0px;white-space:pre;shape-inside:url(#rect34-6);display:inline;fill:#ffffff;fill-opacity:1;stroke:none;stroke-width:4;stroke-linecap:round;stroke-linejoin:round;paint-order:markers fill stroke"
       x="-320.28372"
       y="0"><tspan
         x="-199.50871"
         y="167.41878"
         id="tspan11"><tspan
   style="fill:#6c6b6a"
   id="tspan2">5’-</tspan>AATGATACGGCGACCACCGAGATCTACACaccgacaaAACACTCTTTCCCTACACGACGCTCTTCCGATCTXXXXXXAGATCGGAAGAGCACACGTCTGAACTCCAGTCACgacactatATCTCGTATGCCGTCTTCTGCTTG<tspan
   style="fill:#6c6b6a"
   id="tspan10">-3’</tspan>
</tspan><tspan
         x="-199.50871"
         y="175.41878"
         id="tspan23"><tspan
   style="fill:#6c6b6a"
   id="tspan12">3’-</tspan>TTACTATGCCGCTGGTGGCTCTAGATGTGtggctgttTTGTGAGAAAGGGATGTGCTGCGAGAAGGCTAGAXXXXXXTCTAGCCTTCTCGTGTGCAGACTTGAGGTCAGTGctgtgataTAGAGCATACGGCAGAAGACGAAC<tspan
   style="fill:#6c6b6a"
   id="tspan13">-5’</tspan></tspan></text><text
       xml:space="preserve"
       style="font-style:normal;font-variant:normal;font-weight:normal;font-stretch:normal;font-size:2.11667px;line-height:1;font-family:'Ubuntu Mono';-inkscape-font-specification:'Ubuntu Mono';text-align:start;text-decoration-color:#000000;letter-spacing:0px;text-anchor:start;fill:#9b9b9a;stroke:none;stroke-width:1.05833;stroke-linecap:round;stroke-linejoin:round;paint-order:markers fill stroke"
       x="120.63448"
       y="44.173103"
       id="text35"><tspan
         sodipodi:role="line"
         id="tspan35"
         style="stroke-width:1.05833"
         x="120.63448"
         y="44.173103" /><tspan
         sodipodi:role="line"
         style="stroke-width:1.05833"
         id="tspan36"
         x="120.63448"
         y="46.289772" /></text><g
       id="g49"
       transform="matrix(0.14028746,0,0,0.14028746,44.029857,4.2396391)"><g
         id="line-supplement"><line
           x1="9.9147997"
           x2="26.6131"
           y1="22.002199"
           y2="22.002199"
           fill="none"
           stroke="#000000"
           stroke-linecap="round"
           stroke-linejoin="round"
           stroke-width="2"
           id="line1" /><line
           x1="34.861401"
           x2="62.032101"
           y1="22.002199"
           y2="22.002199"
           fill="none"
           stroke="#000000"
           stroke-linecap="round"
           stroke-linejoin="round"
           stroke-width="2"
           id="line2" /><line
           x1="34.934101"
           x2="54.108501"
           y1="29.556"
           y2="29.556"
           fill="none"
           stroke="#000000"
           stroke-linecap="round"
           stroke-linejoin="round"
           stroke-width="2"
           id="line3" /><line
           x1="34.934101"
           x2="54.108501"
           y1="33.554199"
           y2="33.554199"
           fill="none"
           stroke="#000000"
           stroke-linecap="round"
           stroke-linejoin="round"
           stroke-width="2"
           id="line4" /><line
           x1="34.934101"
           x2="54.108501"
           y1="37.552299"
           y2="37.552299"
           fill="none"
           stroke="#000000"
           stroke-linecap="round"
           stroke-linejoin="round"
           stroke-width="2"
           id="line5" /></g><g
         id="color"><rect
           x="5"
           y="17"
           rx="3.5081"
           width="62"
           height="38"
           fill="#d0cfce"
           id="rect5" /><rect
           x="10"
           y="29.5438"
           width="16.527901"
           height="19.461901"
           fill="#ffffff"
           stroke="#ffffff"
           stroke-linecap="round"
           stroke-linejoin="round"
           stroke-width="2"
           id="rect6" /><path
           fill="#fcea2b"
           d="m 26.6131,51 -1.1526,-4.5626 a 4.3,4.3 0 0 0 -4.209,-4.1314 h -6 a 4.3,4.3 0 0 0 -4.209,4.1314 L 9.9148,51 Z"
           id="path6" /><circle
           cx="18.3314"
           cy="34.8004"
           r="3"
           fill="#fcea2b"
           id="circle6" /></g><g
         id="line"><path
           fill="none"
           stroke="#000000"
           stroke-linecap="round"
           stroke-linejoin="round"
           stroke-width="2"
           d="m 34.474,50.0058 4.706,-7.1323 1.255,6.2152 3.1695,-4.1457 0.77,3.4347 c 4.7928,-2.6426 9.5335,1.4738 13.2683,0.1157"
           id="path7" /><rect
           x="5"
           y="17"
           rx="3.5081"
           width="62"
           height="38"
           fill="none"
           stroke="#000000"
           stroke-linecap="round"
           stroke-linejoin="round"
           stroke-width="2"
           id="rect7" /><circle
           cx="18.3314"
           cy="34.8004"
           r="3"
           fill="none"
           stroke="#000000"
           stroke-miterlimit="10"
           stroke-width="2"
           id="circle7" /><path
           fill="none"
           stroke="#000000"
           stroke-linecap="round"
           stroke-linejoin="round"
           stroke-width="2"
           d="m 26.6131,50.0058 -0.1776,-3.2675 a 5.274,5.274 0 0 0 -5.2075,-5 H 15.3 a 5.274,5.274 0 0 0 -5.208,5 l -0.1776,3.2674"
           id="path8" /></g><g
         id="color-foreground"><line
           x1="9.9147997"
           x2="26.6131"
           y1="22.002199"
           y2="22.002199"
           fill="none"
           stroke="#9b9b9a"
           stroke-linecap="round"
           stroke-linejoin="round"
           stroke-width="2"
           id="line8" /><line
           x1="34.861401"
           x2="62.032101"
           y1="22.002199"
           y2="22.002199"
           fill="none"
           stroke="#9b9b9a"
           stroke-linecap="round"
           stroke-linejoin="round"
           stroke-width="2"
           id="line9" /><line
           x1="34.934101"
           x2="54.108501"
           y1="29.556"
           y2="29.556"
           fill="none"
           stroke="#9b9b9a"
           stroke-linecap="round"
           stroke-linejoin="round"
           stroke-width="2"
           id="line10" /><line
           x1="34.934101"
           x2="54.108501"
           y1="33.554199"
           y2="33.554199"
           fill="none"
           stroke="#9b9b9a"
           stroke-linecap="round"
           stroke-linejoin="round"
           stroke-width="2"
           id="line11" /><line
           x1="34.934101"
           x2="54.108501"
           y1="37.552299"
           y2="37.552299"
           fill="none"
           stroke="#9b9b9a"
           stroke-linecap="round"
           stroke-linejoin="round"
           stroke-width="2"
           id="line12" /></g></g><g
       id="g50"
       transform="matrix(0.15020851,0,0,0.15020851,92.356023,5.2619882)"><g
         id="color-4"><path
           fill="#ffffff"
           d="m 41.1835,14.216 c -1.6784,-0.5099 -3.4229,-0.7694 -5.177,-0.77 h -0.036 c -1.2518,0.0041 -2.5,0.1334 -3.726,0.386 -4.3415,0.9348 -8.1984,3.4083 -10.859,6.964 -2.0244,2.6542 -3.3639,5.7662 -3.9,9.061 -1.0764,6.1694 0.6871,12.4953 4.8,17.218 l 0.133,0.149 c 1.055,1.19 2.5,2.82 2.5,4.554 l -0.022,4.988 c 0,0.5523 -0.4477,1 -1,1 v 0 c 2.2224,1.1344 4.5781,1.9863 7.012,2.536 3.8115,0.8585 7.7771,0.7502 11.536,-0.315 3.215,-15.177 2.366,-31.029 -1.261,-45.771 z"
           id="path1" /><path
           fill="#d0cfce"
           d="m 48.8895,18.863 c -2.1471,-2.1598 -4.794,-3.7563 -7.706,-4.648 3.627,14.742 4.476,30.595 1.258,45.766 1.9461,-0.5441 3.8246,-1.3059 5.6,-2.271 -0.5501,0.0023 -1.0009,-0.436 -1.014,-0.986 l -0.069,-4.943 c 0,-1.65 1.4,-3.191 2.421,-4.317 0.145,-0.159 0.283,-0.311 0.407,-0.453 7.0513,-8.1923 6.6643,-20.4171 -0.891,-28.147 z"
           id="path2" /><path
           fill="#3f3f3f"
           d="m 27.8635,36.364 c -2.4853,0 -4.5,2.0147 -4.5,4.5 0,2.4853 2.0147,4.5 4.5,4.5 2.4853,0 4.5,-2.0147 4.5,-4.5 0,-2.4853 -2.0147,-4.5 -4.5,-4.5 z"
           id="path3" /><path
           fill="#3f3f3f"
           d="m 44.2115,36.364 c -2.4853,0 -4.5,2.0147 -4.5,4.5 0,2.4853 2.0147,4.5 4.5,4.5 2.4853,0 4.5,-2.0147 4.5,-4.5 0,-2.4853 -2.0147,-4.5 -4.5,-4.5 z"
           id="path4" /></g><g
         id="hair" /><g
         id="skin" /><g
         id="skin-shadow" /><g
         id="line-3"><path
           fill="none"
           stroke="#000000"
           stroke-linecap="round"
           stroke-linejoin="round"
           stroke-width="2"
           d="m 48.0235,56.664 -0.069,-4.944 c 0,-1.45 1.649,-3.035 2.58,-4.1 3.4344,-3.9474 5.3151,-9.0097 5.291,-14.242 0,-11.6 -8.894,-21.006 -19.856,-20.983 -1.3183,0.0041 -2.6329,0.1405 -3.924,0.407 -7.89,1.618 -14.177,8.457 -15.548,16.842 -1.1269,6.4665 0.7263,13.0961 5.043,18.041 0.917,1.037 2.382,2.62 2.382,4.04 l -0.022,4.983"
           id="path5" /><line
           x1="27.8645"
           x2="27.8645"
           y1="55.001999"
           y2="59.782001"
           fill="none"
           stroke="#000000"
           stroke-linecap="round"
           stroke-linejoin="round"
           stroke-width="2"
           id="line5-0" /><line
           x1="33.578499"
           x2="33.578499"
           y1="56.067001"
           y2="60.848"
           fill="none"
           stroke="#000000"
           stroke-linecap="round"
           stroke-linejoin="round"
           stroke-width="2"
           id="line6" /><line
           x1="44.212502"
           x2="44.212502"
           y1="55.001999"
           y2="59.782001"
           fill="none"
           stroke="#000000"
           stroke-linecap="round"
           stroke-linejoin="round"
           stroke-width="2"
           id="line7" /><line
           x1="39.0275"
           x2="39.0275"
           y1="56.067001"
           y2="60.848"
           fill="none"
           stroke="#000000"
           stroke-linecap="round"
           stroke-linejoin="round"
           stroke-width="2"
           id="line8-7" /><polyline
           fill="none"
           stroke="#000000"
           stroke-linecap="round"
           stroke-linejoin="round"
           stroke-width="2"
           points="33.0365,52.209 35.9685,46.36 39.4735,52.209"
           id="polyline8" /><circle
           cx="27.8645"
           cy="40.817001"
           r="5"
           fill="none"
           stroke="#000000"
           stroke-miterlimit="10"
           stroke-width="2"
           id="circle8" /><circle
           cx="44.212502"
           cy="40.817001"
           r="5"
           fill="none"
           stroke="#000000"
           stroke-miterlimit="10"
           stroke-width="2"
           id="circle9" /></g></g><g
       id="g49-2"
       transform="matrix(0.14028746,0,0,0.14028746,141.00555,4.2396391)"><g
         id="line-supplement-6"><line
           x1="9.9147997"
           x2="26.6131"
           y1="22.002199"
           y2="22.002199"
           fill="none"
           stroke="#000000"
           stroke-linecap="round"
           stroke-linejoin="round"
           stroke-width="2"
           id="line1-1" /><line
           x1="34.861401"
           x2="62.032101"
           y1="22.002199"
           y2="22.002199"
           fill="none"
           stroke="#000000"
           stroke-linecap="round"
           stroke-linejoin="round"
           stroke-width="2"
           id="line2-0" /><line
           x1="34.934101"
           x2="54.108501"
           y1="29.556"
           y2="29.556"
           fill="none"
           stroke="#000000"
           stroke-linecap="round"
           stroke-linejoin="round"
           stroke-width="2"
           id="line3-6" /><line
           x1="34.934101"
           x2="54.108501"
           y1="33.554199"
           y2="33.554199"
           fill="none"
           stroke="#000000"
           stroke-linecap="round"
           stroke-linejoin="round"
           stroke-width="2"
           id="line4-1" /><line
           x1="34.934101"
           x2="54.108501"
           y1="37.552299"
           y2="37.552299"
           fill="none"
           stroke="#000000"
           stroke-linecap="round"
           stroke-linejoin="round"
           stroke-width="2"
           id="line5-5" /></g><g
         id="color-9"><rect
           x="5"
           y="17"
           rx="3.5081"
           width="62"
           height="38"
           fill="#d0cfce"
           id="rect5-4" /><rect
           x="10"
           y="29.5438"
           width="16.527901"
           height="19.461901"
           fill="#ffffff"
           stroke="#ffffff"
           stroke-linecap="round"
           stroke-linejoin="round"
           stroke-width="2"
           id="rect6-9" /><path
           fill="#fcea2b"
           d="m 26.6131,51 -1.1526,-4.5626 a 4.3,4.3 0 0 0 -4.209,-4.1314 h -6 a 4.3,4.3 0 0 0 -4.209,4.1314 L 9.9148,51 Z"
           id="path6-0" /><circle
           cx="18.3314"
           cy="34.8004"
           r="3"
           fill="#fcea2b"
           id="circle6-9" /></g><g
         id="line-1"><path
           fill="none"
           stroke="#000000"
           stroke-linecap="round"
           stroke-linejoin="round"
           stroke-width="2"
           d="m 34.474,50.0058 4.706,-7.1323 1.255,6.2152 3.1695,-4.1457 0.77,3.4347 c 4.7928,-2.6426 9.5335,1.4738 13.2683,0.1157"
           id="path7-7" /><rect
           x="5"
           y="17"
           rx="3.5081"
           width="62"
           height="38"
           fill="none"
           stroke="#000000"
           stroke-linecap="round"
           stroke-linejoin="round"
           stroke-width="2"
           id="rect7-7" /><circle
           cx="18.3314"
           cy="34.8004"
           r="3"
           fill="none"
           stroke="#000000"
           stroke-miterlimit="10"
           stroke-width="2"
           id="circle7-1" /><path
           fill="none"
           stroke="#000000"
           stroke-linecap="round"
           stroke-linejoin="round"
           stroke-width="2"
           d="m 26.6131,50.0058 -0.1776,-3.2675 a 5.274,5.274 0 0 0 -5.2075,-5 H 15.3 a 5.274,5.274 0 0 0 -5.208,5 l -0.1776,3.2674"
           id="path8-1" /></g><g
         id="color-foreground-5"><line
           x1="9.9147997"
           x2="26.6131"
           y1="22.002199"
           y2="22.002199"
           fill="none"
           stroke="#9b9b9a"
           stroke-linecap="round"
           stroke-linejoin="round"
           stroke-width="2"
           id="line8-9" /><line
           x1="34.861401"
           x2="62.032101"
           y1="22.002199"
           y2="22.002199"
           fill="none"
           stroke="#9b9b9a"
           stroke-linecap="round"
           stroke-linejoin="round"
           stroke-width="2"
           id="line9-7" /><line
           x1="34.934101"
           x2="54.108501"
           y1="29.556"
           y2="29.556"
           fill="none"
           stroke="#9b9b9a"
           stroke-linecap="round"
           stroke-linejoin="round"
           stroke-width="2"
           id="line10-7" /><line
           x1="34.934101"
           x2="54.108501"
           y1="33.554199"
           y2="33.554199"
           fill="none"
           stroke="#9b9b9a"
           stroke-linecap="round"
           stroke-linejoin="round"
           stroke-width="2"
           id="line11-6" /><line
           x1="34.934101"
           x2="54.108501"
           y1="37.552299"
           y2="37.552299"
           fill="none"
           stroke="#9b9b9a"
           stroke-linecap="round"
           stroke-linejoin="round"
           stroke-width="2"
           id="line12-7" /></g></g><g
       id="g51"
       transform="matrix(0.11748703,0,0,0.11748703,22.831514,4.8906111)"><g
         id="color-3"><path
           fill="#d0cfce"
           stroke="none"
           stroke-linecap="round"
           stroke-linejoin="round"
           stroke-miterlimit="10"
           stroke-width="2"
           d="m 54.215,34.1095 -5.2701,9.12 h 3.1702 c -2.4101,5.55 -7.6001,9.37 -13.5801,10.07 v -23.88 h 4 c 1.2053,0 2.1704,-1.0684 1.9747,-2.3241 -0.154,-0.9877 -1.0771,-1.6759 -2.0766,-1.6759 H 38.535 v -2.41 c 2.0104,-0.891 3.3423,-3.0605 2.9227,-5.4805 -0.3413,-1.9684 -1.8948,-3.5908 -3.8506,-3.9978 -3.2277,-0.6717 -6.0721,1.7782 -6.0721,4.8883 0,2.05 1.24,3.81 3,4.59 v 2.41 h -3.898 c -0.9996,0 -1.9227,0.6882 -2.0766,1.6759 -0.1958,1.2557 0.7694,2.3241 1.9746,2.3241 h 4 v 23.88 c -5.9299,-0.71 -11.1699,-4.56 -13.58,-10.07 h 3.1001 l -5.2701,-9.12 -5.27,9.12 h 3.28 c 0,0.24 0.0541,0.4652 0.13,0.71 2.6723,8.6078 16.5632,15.1685 19.0988,16.3038 0.2569,0.1151 0.5388,0.1164 0.7966,0.0034 2.5781,-1.1294 16.8623,-7.7541 19.5846,-17.0172 h 3.08 z m -17.68,-16.69 c 0.5501,0 1,0.45 1,1 0,0.55 -0.4499,1 -1,1 -0.55,0 -1,-0.45 -1,-1 0,-0.55 0.45,-1 1,-1 z"
           id="path1-6" /></g><g
         id="hair-5" /><g
         id="skin-6" /><g
         id="skin-shadow-3" /><g
         id="line-9"><path
           fill="none"
           stroke="#000000"
           stroke-linecap="round"
           stroke-linejoin="round"
           stroke-miterlimit="10"
           stroke-width="2"
           d="m 54.215,34.1095 -5.2701,9.12 h 3.1702 c -2.4101,5.55 -7.6001,9.37 -13.5801,10.07 v -23.88 h 4 c 1.2053,0 2.1704,-1.0684 1.9747,-2.3241 -0.154,-0.9877 -1.0771,-1.6759 -2.0766,-1.6759 H 38.535 v -2.41 c 2.0104,-0.891 3.3423,-3.0605 2.9227,-5.4805 -0.3413,-1.9684 -1.8948,-3.5908 -3.8506,-3.9978 -3.2277,-0.6717 -6.0721,1.7782 -6.0721,4.8883 0,2.05 1.24,3.81 3,4.59 v 2.41 h -3.898 c -0.9996,0 -1.9227,0.6882 -2.0766,1.6759 -0.1958,1.2557 0.7694,2.3241 1.9746,2.3241 h 4 v 23.88 c -5.9299,-0.71 -11.1699,-4.56 -13.58,-10.07 h 3.1001 l -5.2701,-9.12 -5.27,9.12 h 3.28 c 0,0.24 0.0541,0.4652 0.13,0.71 2.6723,8.6078 16.5632,15.1685 19.0988,16.3038 0.2569,0.1151 0.5388,0.1164 0.7966,0.0034 2.5781,-1.1294 16.8623,-7.7541 19.5846,-17.0172 h 3.08 z m -17.68,-16.69 c 0.5501,0 1,0.45 1,1 0,0.55 -0.4499,1 -1,1 -0.55,0 -1,-0.45 -1,-1 0,-0.55 0.45,-1 1,-1 z"
           id="path2-4" /></g></g><g
       id="g52"
       transform="matrix(0.1225008,0,0,0.1225008,68.534357,5.1250491)"><g
         id="color-96"><path
           fill="#ffffff"
           d="m 20.0838,54.8805 c 0.4669,0.1716 0.9922,0.286 1.5175,0.286 0.8171,0 1.6342,-0.286 2.3345,-0.7436 l 28.8896,-15.3878 0.2918,-0.286 c 0.7587,-0.7436 1.1672,-1.6589 1.1672,-2.6886 0,-1.0297 -0.4085,-2.0021 -1.1672,-2.6886 L 52.8254,33.0859 23.9358,17.5836 c -1.0505,-0.8008 -2.568,-0.9724 -3.8519,-0.4576 -1.4591,0.572 -2.3928,2.0021 -2.3928,3.5467 v 30.6612 c 0,1.5445 0.9337,2.9746 2.3928,3.5466 z"
           id="path1-3" /></g><g
         id="line-8"><path
           fill="none"
           stroke="#000000"
           stroke-linejoin="round"
           stroke-width="2"
           d="m 19.5816,55.6062 c 0.4848,0.1782 1.0303,0.297 1.5758,0.297 0.8485,0 1.697,-0.297 2.4242,-0.7722 l 30,-15.9793 0.303,-0.297 c 0.7879,-0.7722 1.2121,-1.7227 1.2121,-2.7919 0,-1.0692 -0.4242,-2.0791 -1.2121,-2.7919 l -0.303,-0.297 -30,-16.0981 c -1.0909,-0.8316 -2.6667,-1.0098 -4,-0.4752 -1.5152,0.594 -2.4848,2.0791 -2.4848,3.683 v 31.8397 c 0,1.6039 0.9696,3.0889 2.4848,3.6829 z"
           id="path2-5" /></g></g><g
       id="g52-4"
       transform="matrix(0.1225008,0,0,0.1225008,117.02186,5.1250491)"><g
         id="color-96-4"><path
           fill="#ffffff"
           d="m 20.0838,54.8805 c 0.4669,0.1716 0.9922,0.286 1.5175,0.286 0.8171,0 1.6342,-0.286 2.3345,-0.7436 l 28.8896,-15.3878 0.2918,-0.286 c 0.7587,-0.7436 1.1672,-1.6589 1.1672,-2.6886 0,-1.0297 -0.4085,-2.0021 -1.1672,-2.6886 L 52.8254,33.0859 23.9358,17.5836 c -1.0505,-0.8008 -2.568,-0.9724 -3.8519,-0.4576 -1.4591,0.572 -2.3928,2.0021 -2.3928,3.5467 v 30.6612 c 0,1.5445 0.9337,2.9746 2.3928,3.5466 z"
           id="path1-3-7" /></g><g
         id="line-8-6"><path
           fill="none"
           stroke="#000000"
           stroke-linejoin="round"
           stroke-width="2"
           d="m 19.5816,55.6062 c 0.4848,0.1782 1.0303,0.297 1.5758,0.297 0.8485,0 1.697,-0.297 2.4242,-0.7722 l 30,-15.9793 0.303,-0.297 c 0.7879,-0.7722 1.2121,-1.7227 1.2121,-2.7919 0,-1.0692 -0.4242,-2.0791 -1.2121,-2.7919 l -0.303,-0.297 -30,-16.0981 c -1.0909,-0.8316 -2.6667,-1.0098 -4,-0.4752 -1.5152,0.594 -2.4848,2.0791 -2.4848,3.683 v 31.8397 c 0,1.6039 0.9696,3.0889 2.4848,3.6829 z"
           id="path2-5-3" /></g></g><g
       id="g51-5"
       transform="matrix(0.11748703,0,0,0.11748703,161.0763,4.8906111)"><g
         id="color-3-9"><path
           fill="#d0cfce"
           stroke="none"
           stroke-linecap="round"
           stroke-linejoin="round"
           stroke-miterlimit="10"
           stroke-width="2"
           d="m 54.215,34.1095 -5.2701,9.12 h 3.1702 c -2.4101,5.55 -7.6001,9.37 -13.5801,10.07 v -23.88 h 4 c 1.2053,0 2.1704,-1.0684 1.9747,-2.3241 -0.154,-0.9877 -1.0771,-1.6759 -2.0766,-1.6759 H 38.535 v -2.41 c 2.0104,-0.891 3.3423,-3.0605 2.9227,-5.4805 -0.3413,-1.9684 -1.8948,-3.5908 -3.8506,-3.9978 -3.2277,-0.6717 -6.0721,1.7782 -6.0721,4.8883 0,2.05 1.24,3.81 3,4.59 v 2.41 h -3.898 c -0.9996,0 -1.9227,0.6882 -2.0766,1.6759 -0.1958,1.2557 0.7694,2.3241 1.9746,2.3241 h 4 v 23.88 c -5.9299,-0.71 -11.1699,-4.56 -13.58,-10.07 h 3.1001 l -5.2701,-9.12 -5.27,9.12 h 3.28 c 0,0.24 0.0541,0.4652 0.13,0.71 2.6723,8.6078 16.5632,15.1685 19.0988,16.3038 0.2569,0.1151 0.5388,0.1164 0.7966,0.0034 2.5781,-1.1294 16.8623,-7.7541 19.5846,-17.0172 h 3.08 z m -17.68,-16.69 c 0.5501,0 1,0.45 1,1 0,0.55 -0.4499,1 -1,1 -0.55,0 -1,-0.45 -1,-1 0,-0.55 0.45,-1 1,-1 z"
           id="path1-6-8" /></g><g
         id="hair-5-4" /><g
         id="skin-6-8" /><g
         id="skin-shadow-3-1" /><g
         id="line-9-0"><path
           fill="none"
           stroke="#000000"
           stroke-linecap="round"
           stroke-linejoin="round"
           stroke-miterlimit="10"
           stroke-width="2"
           d="m 54.215,34.1095 -5.2701,9.12 h 3.1702 c -2.4101,5.55 -7.6001,9.37 -13.5801,10.07 v -23.88 h 4 c 1.2053,0 2.1704,-1.0684 1.9747,-2.3241 -0.154,-0.9877 -1.0771,-1.6759 -2.0766,-1.6759 H 38.535 v -2.41 c 2.0104,-0.891 3.3423,-3.0605 2.9227,-5.4805 -0.3413,-1.9684 -1.8948,-3.5908 -3.8506,-3.9978 -3.2277,-0.6717 -6.0721,1.7782 -6.0721,4.8883 0,2.05 1.24,3.81 3,4.59 v 2.41 h -3.898 c -0.9996,0 -1.9227,0.6882 -2.0766,1.6759 -0.1958,1.2557 0.7694,2.3241 1.9746,2.3241 h 4 v 23.88 c -5.9299,-0.71 -11.1699,-4.56 -13.58,-10.07 h 3.1001 l -5.2701,-9.12 -5.27,9.12 h 3.28 c 0,0.24 0.0541,0.4652 0.13,0.71 2.6723,8.6078 16.5632,15.1685 19.0988,16.3038 0.2569,0.1151 0.5388,0.1164 0.7966,0.0034 2.5781,-1.1294 16.8623,-7.7541 19.5846,-17.0172 h 3.08 z m -17.68,-16.69 c 0.5501,0 1,0.45 1,1 0,0.55 -0.4499,1 -1,1 -0.55,0 -1,-0.45 -1,-1 0,-0.55 0.45,-1 1,-1 z"
           id="path2-4-3" /></g></g><g
       id="g8"
       transform="translate(0,-2.6458334)"><text
         xml:space="preserve"
         style="font-style:normal;font-variant:normal;font-weight:bold;font-stretch:normal;font-size:4.23333px;line-height:1;font-family:'Ubuntu Mono';-inkscape-font-specification:'Ubuntu Mono Bold';text-align:center;text-decoration-color:#000000;letter-spacing:0px;text-anchor:middle;fill:#0b5cd5;fill-opacity:1;stroke:none;stroke-width:1.05833;stroke-linecap:round;stroke-linejoin:round;paint-order:markers fill stroke"
         x="27.441521"
         y="32.279163"
         id="text14"><tspan
           sodipodi:role="line"
           style="font-style:normal;font-variant:normal;font-weight:bold;font-stretch:normal;font-family:'Ubuntu Mono';-inkscape-font-specification:'Ubuntu Mono Bold';text-align:center;text-anchor:middle;fill:#0b5cd5;fill-opacity:1;stroke-width:1.05833"
           x="27.441521"
           y="32.279163"
           id="tspan20">P5</tspan><tspan
           sodipodi:role="line"
           style="font-style:normal;font-variant:normal;font-weight:bold;font-stretch:normal;font-family:'Ubuntu Mono';-inkscape-font-specification:'Ubuntu Mono Bold';text-align:center;text-anchor:middle;fill:#0b5cd5;fill-opacity:1;stroke-width:1.05833"
           x="27.441521"
           y="36.512493"
           id="tspan21">Primer</tspan></text><text
         xml:space="preserve"
         style="font-style:normal;font-variant:normal;font-weight:bold;font-stretch:normal;font-size:4.23333px;line-height:1;font-family:'Ubuntu Mono';-inkscape-font-specification:'Ubuntu Mono Bold';text-align:center;text-decoration-color:#000000;letter-spacing:0px;text-anchor:middle;fill:#5d37a2;fill-opacity:1;stroke:none;stroke-width:1.05833;stroke-linecap:round;stroke-linejoin:round;paint-order:markers fill stroke"
         x="49.401936"
         y="32.257996"
         id="text14-7"><tspan
           sodipodi:role="line"
           id="tspan14-4"
           style="font-style:normal;font-variant:normal;font-weight:bold;font-stretch:normal;font-family:'Ubuntu Mono';-inkscape-font-specification:'Ubuntu Mono Bold';text-align:center;text-anchor:middle;fill:#5d37a2;fill-opacity:1;stroke-width:1.05833"
           x="49.401936"
           y="32.257996">i5</tspan><tspan
           sodipodi:role="line"
           style="font-style:normal;font-variant:normal;font-weight:bold;font-stretch:normal;font-family:'Ubuntu Mono';-inkscape-font-specification:'Ubuntu Mono Bold';text-align:center;text-anchor:middle;fill:#5d37a2;fill-opacity:1;stroke-width:1.05833"
           x="49.401936"
           y="36.491325"
           id="tspan5">Index</tspan></text><text
         xml:space="preserve"
         style="font-style:normal;font-variant:normal;font-weight:bold;font-stretch:normal;font-size:4.23333px;line-height:1;font-family:'Ubuntu Mono';-inkscape-font-specification:'Ubuntu Mono Bold';text-align:center;text-decoration-color:#000000;letter-spacing:0px;text-anchor:middle;fill:#b92d3a;fill-opacity:1;stroke:none;stroke-width:1.05833;stroke-linecap:round;stroke-linejoin:round;paint-order:markers fill stroke"
         x="74.272774"
         y="32.389229"
         id="text14-7-9"><tspan
           sodipodi:role="line"
           id="tspan14-4-7"
           style="font-style:normal;font-variant:normal;font-weight:bold;font-stretch:normal;font-family:'Ubuntu Mono';-inkscape-font-specification:'Ubuntu Mono Bold';text-align:center;text-anchor:middle;fill:#b92d3a;fill-opacity:1;stroke-width:1.05833"
           x="74.272774"
           y="32.389229">Read 1</tspan><tspan
           sodipodi:role="line"
           style="font-style:normal;font-variant:normal;font-weight:bold;font-stretch:normal;font-family:'Ubuntu Mono';-inkscape-font-specification:'Ubuntu Mono Bold';text-align:center;text-anchor:middle;fill:#b92d3a;fill-opacity:1;stroke-width:1.05833"
           x="74.272774"
           y="36.622559"
           id="tspan17">Primer</tspan></text><text
         xml:space="preserve"
         style="font-style:normal;font-variant:normal;font-weight:bold;font-stretch:normal;font-size:4.23333px;line-height:1;font-family:'Ubuntu Mono';-inkscape-font-specification:'Ubuntu Mono Bold';text-align:center;text-decoration-color:#000000;letter-spacing:0px;text-anchor:middle;fill:#d56a11;fill-opacity:1;stroke:none;stroke-width:1.05833;stroke-linecap:round;stroke-linejoin:round;paint-order:markers fill stroke"
         x="97.70639"
         y="32.067497"
         id="text14-7-9-8"><tspan
           sodipodi:role="line"
           id="tspan14-4-7-3"
           style="font-style:normal;font-variant:normal;font-weight:bold;font-stretch:normal;font-family:'Ubuntu Mono';-inkscape-font-specification:'Ubuntu Mono Bold';text-align:center;text-anchor:middle;fill:#d56a11;fill-opacity:1;stroke-width:1.05833"
           x="97.70639"
           y="32.067497">aDNA</tspan><tspan
           sodipodi:role="line"
           style="font-style:normal;font-variant:normal;font-weight:bold;font-stretch:normal;font-family:'Ubuntu Mono';-inkscape-font-specification:'Ubuntu Mono Bold';text-align:center;text-anchor:middle;fill:#d56a11;fill-opacity:1;stroke-width:1.05833"
           x="97.70639"
           y="36.300827"
           id="tspan15">molecule</tspan><tspan
           sodipodi:role="line"
           style="font-style:normal;font-variant:normal;font-weight:bold;font-stretch:normal;font-family:'Ubuntu Mono';-inkscape-font-specification:'Ubuntu Mono Bold';text-align:center;text-anchor:middle;fill:#d56a11;fill-opacity:1;stroke-width:1.05833"
           x="97.70639"
           y="40.534157"
           id="tspan16">(template)</tspan></text><text
         xml:space="preserve"
         style="font-style:normal;font-variant:normal;font-weight:bold;font-stretch:normal;font-size:4.23333px;line-height:1;font-family:'Ubuntu Mono';-inkscape-font-specification:'Ubuntu Mono Bold';text-align:center;text-decoration-color:#000000;letter-spacing:0px;text-anchor:middle;fill:#d6a206;fill-opacity:1;stroke:none;stroke-width:1.05833;stroke-linecap:round;stroke-linejoin:round;paint-order:markers fill stroke"
         x="121.38659"
         y="32.389229"
         id="text14-7-9-8-6"><tspan
           sodipodi:role="line"
           style="font-style:normal;font-variant:normal;font-weight:bold;font-stretch:normal;font-family:'Ubuntu Mono';-inkscape-font-specification:'Ubuntu Mono Bold';text-align:center;text-anchor:middle;fill:#d6a206;fill-opacity:1;stroke-width:1.05833"
           x="121.38659"
           y="32.389229"
           id="tspan15-3">Read 2</tspan><tspan
           sodipodi:role="line"
           style="font-style:normal;font-variant:normal;font-weight:bold;font-stretch:normal;font-family:'Ubuntu Mono';-inkscape-font-specification:'Ubuntu Mono Bold';text-align:center;text-anchor:middle;fill:#d6a206;fill-opacity:1;stroke-width:1.05833"
           x="121.38659"
           y="36.622559"
           id="tspan19">Primer</tspan></text><text
         xml:space="preserve"
         style="font-style:normal;font-variant:normal;font-weight:bold;font-stretch:normal;font-size:4.23333px;line-height:1;font-family:'Ubuntu Mono';-inkscape-font-specification:'Ubuntu Mono Bold';text-align:center;text-decoration-color:#000000;letter-spacing:0px;text-anchor:middle;fill:#228c3a;fill-opacity:1;stroke:none;stroke-width:1.05833;stroke-linecap:round;stroke-linejoin:round;paint-order:markers fill stroke"
         x="146.54529"
         y="32.389229"
         id="text14-7-9-8-6-6"><tspan
           sodipodi:role="line"
           style="font-style:normal;font-variant:normal;font-weight:bold;font-stretch:normal;font-family:'Ubuntu Mono';-inkscape-font-specification:'Ubuntu Mono Bold';text-align:center;text-anchor:middle;fill:#228c3a;fill-opacity:1;stroke-width:1.05833"
           x="146.54529"
           y="32.389229"
           id="tspan19-4">i7</tspan><tspan
           sodipodi:role="line"
           style="font-style:normal;font-variant:normal;font-weight:bold;font-stretch:normal;font-family:'Ubuntu Mono';-inkscape-font-specification:'Ubuntu Mono Bold';text-align:center;text-anchor:middle;fill:#228c3a;fill-opacity:1;stroke-width:1.05833"
           x="146.54529"
           y="36.622559"
           id="tspan6">Index</tspan></text><text
         xml:space="preserve"
         style="font-style:normal;font-variant:normal;font-weight:bold;font-stretch:normal;font-size:4.23333px;line-height:1;font-family:'Ubuntu Mono';-inkscape-font-specification:'Ubuntu Mono Bold';text-align:center;text-decoration-color:#000000;letter-spacing:0px;text-anchor:middle;fill:#17a2b8;fill-opacity:1;stroke:none;stroke-width:1.05833;stroke-linecap:round;stroke-linejoin:round;paint-order:markers fill stroke"
         x="165.27144"
         y="32.389229"
         id="text14-7-9-8-6-6-9"><tspan
           sodipodi:role="line"
           style="font-style:normal;font-variant:normal;font-weight:bold;font-stretch:normal;font-family:'Ubuntu Mono';-inkscape-font-specification:'Ubuntu Mono Bold';text-align:center;text-anchor:middle;fill:#17a2b8;fill-opacity:1;stroke-width:1.05833"
           x="165.27144"
           y="32.389229"
           id="tspan19-4-7">P7 </tspan><tspan
           sodipodi:role="line"
           style="font-style:normal;font-variant:normal;font-weight:bold;font-stretch:normal;font-family:'Ubuntu Mono';-inkscape-font-specification:'Ubuntu Mono Bold';text-align:center;text-anchor:middle;fill:#17a2b8;fill-opacity:1;stroke-width:1.05833"
           x="165.27144"
           y="36.622559"
           id="tspan22">Primer</tspan></text></g><rect
       style="fill:#6c6b6a;fill-opacity:1;stroke:none;stroke-width:1.05833;stroke-linecap:round;stroke-linejoin:round;paint-order:markers fill stroke"
       id="rect8"
       width="83.343742"
       height="1.0583346"
       x="10.583332"
       y="13.229167"
       ry="0.52916729" /><rect
       style="fill:#6c6b6a;fill-opacity:1;stroke:none;stroke-width:1.05833;stroke-linecap:round;stroke-linejoin:round;paint-order:markers fill stroke"
       id="rect8-7"
       width="78.052078"
       height="1.3229179"
       x="101.86458"
       y="13.096876"
       ry="0.66145897" /><text
       xml:space="preserve"
       style="font-style:normal;font-variant:normal;font-weight:bold;font-stretch:normal;font-size:2.11667px;line-height:1;font-family:'Ubuntu Mono';-inkscape-font-specification:'Ubuntu Mono Bold';text-align:center;text-decoration-color:#000000;letter-spacing:0px;text-anchor:middle;fill:#6c6b6a;fill-opacity:1;stroke:none;stroke-width:1.05833;stroke-linecap:round;stroke-linejoin:round;paint-order:markers fill stroke"
       x="9.3937645"
       y="13.505393"
       id="text8"><tspan
         sodipodi:role="line"
         id="tspan8"
         style="font-style:normal;font-variant:normal;font-weight:normal;font-stretch:normal;font-size:2.11667px;font-family:'Ubuntu Mono';-inkscape-font-specification:'Ubuntu Mono';text-align:end;text-anchor:end;stroke-width:1.05833;fill:#6c6b6a;fill-opacity:1"
         x="9.3937645"
         y="13.505393">P5 adapter</tspan><tspan
         sodipodi:role="line"
         style="font-style:normal;font-variant:normal;font-weight:normal;font-stretch:normal;font-size:2.11667px;font-family:'Ubuntu Mono';-inkscape-font-specification:'Ubuntu Mono';text-align:end;text-anchor:end;stroke-width:1.05833;fill:#6c6b6a;fill-opacity:1"
         x="9.3937645"
         y="15.622064"
         id="tspan9">Construct</tspan></text><text
       xml:space="preserve"
       style="font-style:normal;font-variant:normal;font-weight:bold;font-stretch:normal;font-size:2.11667px;line-height:1;font-family:'Ubuntu Mono';-inkscape-font-specification:'Ubuntu Mono Bold';text-align:center;text-decoration-color:#000000;letter-spacing:0px;text-anchor:middle;fill:#6c6b6a;fill-opacity:1;stroke:none;stroke-width:1.05833;stroke-linecap:round;stroke-linejoin:round;paint-order:markers fill stroke"
       x="181.11469"
       y="13.505393"
       id="text8-6"><tspan
         sodipodi:role="line"
         id="tspan8-0"
         style="font-style:normal;font-variant:normal;font-weight:normal;font-stretch:normal;font-size:2.11667px;font-family:'Ubuntu Mono';-inkscape-font-specification:'Ubuntu Mono';text-align:start;text-anchor:start;stroke-width:1.05833;fill:#6c6b6a;fill-opacity:1"
         x="181.11469"
         y="13.505393">P7 adapter</tspan><tspan
         sodipodi:role="line"
         style="font-style:normal;font-variant:normal;font-weight:normal;font-stretch:normal;font-size:2.11667px;font-family:'Ubuntu Mono';-inkscape-font-specification:'Ubuntu Mono';text-align:start;text-anchor:start;stroke-width:1.05833;fill:#6c6b6a;fill-opacity:1"
         x="181.11469"
         y="15.622064"
         id="tspan9-6">Construct</tspan></text></g></svg>
