<?xml version="1.0" encoding="UTF-8" standalone="no"?>
<!-- Created with Inkscape (http://www.inkscape.org/) -->

<svg
   width="170.27538mm"
   height="86.329666mm"
   viewBox="0 0 170.27538 86.329666"
   version="1.1"
   id="svg1"
   xml:space="preserve"
   inkscape:version="1.3.2 (1:1.3.2+202311252150+091e20ef0f)"
   sodipodi:docname="flowcell.svg"
   inkscape:export-filename="flowcell.png"
   inkscape:export-xdpi="300"
   inkscape:export-ydpi="300"
   xmlns:inkscape="http://www.inkscape.org/namespaces/inkscape"
   xmlns:sodipodi="http://sodipodi.sourceforge.net/DTD/sodipodi-0.dtd"
   xmlns="http://www.w3.org/2000/svg"
   xmlns:svg="http://www.w3.org/2000/svg"><sodipodi:namedview
     id="namedview1"
     pagecolor="#505050"
     bordercolor="#ffffff"
     borderopacity="1"
     inkscape:showpageshadow="0"
     inkscape:pageopacity="0"
     inkscape:pagecheckerboard="1"
     inkscape:deskcolor="#d1d1d1"
     inkscape:document-units="mm"
     showgrid="true"
     inkscape:zoom="3.6039254"
     inkscape:cx="400.53548"
     inkscape:cy="377.3663"
     inkscape:current-layer="layer1"><inkscape:grid
       id="grid2"
       units="px"
       originx="-5.0713876"
       originy="-73.995351"
       spacingx="0.26458333"
       spacingy="0.26458334"
       empcolor="#e50000"
       empopacity="0.30196078"
       color="#e50000"
       opacity="0.14901961"
       empspacing="5"
       dotted="true"
       gridanglex="30"
       gridanglez="30"
       visible="true" /></sodipodi:namedview><defs
     id="defs1"><marker
       style="overflow:visible"
       id="RoundedArrow"
       refX="0"
       refY="0"
       orient="auto-start-reverse"
       inkscape:stockid="Rounded arrow"
       markerWidth="0.5"
       markerHeight="0.5"
       viewBox="0 0 1 1"
       inkscape:isstock="true"
       inkscape:collect="always"
       preserveAspectRatio="xMidYMid"><path
         transform="scale(0.7)"
         d="m -0.21114562,-4.1055728 6.42229122,3.21114561 a 1,1 90 0 1 0,1.78885438 L -0.21114562,4.1055728 A 1.236068,1.236068 31.717474 0 1 -2,3 v -6 a 1.236068,1.236068 148.28253 0 1 1.78885438,-1.1055728 z"
         style="fill:context-stroke;fill-rule:evenodd;stroke:none"
         id="path8" /></marker><inkscape:path-effect
       effect="powerclip"
       id="path-effect1"
       is_visible="true"
       lpeversion="1"
       inverse="true"
       flatten="false"
       hide_clip="false"
       message="Use fill-rule evenodd on &lt;b&gt;fill and stroke&lt;/b&gt; dialogue if no flatten result after convert clip to paths." /><clipPath
       clipPathUnits="userSpaceOnUse"
       id="clipPath1"><path
         id="path1"
         style="display:none;fill:#f6ffff;stroke-width:0.529167;stroke-linecap:round;stroke-linejoin:round;paint-order:markers fill stroke"
         d="m 9.2604167,186.53125 c 0,0 1.3229233,6.61458 3.9687503,6.61458 h 11.90625 129.645833 11.08459 0.82166 c 2.64583,0 3.96875,-6.61458 3.96875,-6.61458 h -6.61458 c 0,0 -0.62568,1.94859 -1.32292,2.64583 -0.69724,0.69724 -1.32291,1.32293 -2.64583,1.32292 H 19.84375 c -1.322919,1e-5 -1.948594,-0.62568 -2.645833,-1.32292 -0.69724,-0.69724 -1.322917,-2.64583 -1.322917,-2.64583 z" /><path
         id="lpe_path-effect1"
         style="fill:#f6ffff;stroke-width:0.529167;stroke-linecap:round;stroke-linejoin:round;paint-order:markers fill stroke"
         class="powerclip"
         d="M 0.07138751,182.63387 H 179.84656 v 19.73281 H 0.07138751 Z m 9.18902919,3.89738 c 0,0 1.3229233,6.61458 3.9687503,6.61458 h 11.90625 129.645833 11.08459 0.82166 c 2.64583,0 3.96875,-6.61458 3.96875,-6.61458 h -6.61458 c 0,0 -0.62568,1.94859 -1.32292,2.64583 -0.69724,0.69724 -1.32291,1.32293 -2.64583,1.32292 H 19.84375 c -1.322919,1e-5 -1.948594,-0.62568 -2.645833,-1.32292 -0.69724,-0.69724 -1.322917,-2.64583 -1.322917,-2.64583 z" /></clipPath><marker
       style="overflow:visible"
       id="RoundedArrow-2"
       refX="0"
       refY="0"
       orient="auto-start-reverse"
       inkscape:stockid="Rounded arrow"
       markerWidth="0.5"
       markerHeight="0.5"
       viewBox="0 0 1 1"
       inkscape:isstock="true"
       inkscape:collect="always"
       preserveAspectRatio="xMidYMid"><path
         transform="scale(0.7)"
         d="m -0.21114562,-4.1055728 6.42229122,3.21114561 a 1,1 90 0 1 0,1.78885438 L -0.21114562,4.1055728 A 1.236068,1.236068 31.717474 0 1 -2,3 v -6 a 1.236068,1.236068 148.28253 0 1 1.78885438,-1.1055728 z"
         style="fill:context-stroke;fill-rule:evenodd;stroke:none"
         id="path8-7" /></marker></defs><g
     inkscape:label="Layer 1"
     inkscape:groupmode="layer"
     id="layer1"
     transform="translate(-5.0713875,-73.995348)"><path
       style="opacity:1;fill:#000100;fill-opacity:1;stroke:#000000;stroke-width:0.440558;paint-order:markers fill stroke"
       d="m 5.7931641,76.861461 v 51.593749 c 0,1.24726 1.3985739,2.64584 2.6458333,2.64584 0,0 145.5208326,1.3e-4 160.0729126,0 0.26458,0 6.61458,-6.35 6.61458,-6.61459 -1e-5,-1.32291 0,-47.624999 0,-47.624999 0,-1.247257 -1.39857,-2.645834 -2.64583,-2.645834 H 8.4389974 c -1.2472579,0 -2.6458333,1.398576 -2.6458333,2.645834 z"
       id="path3"
       sodipodi:nodetypes="sssssssss" /><path
       style="opacity:1;fill:#cccccc;stroke:#000000;stroke-width:0.264583;paint-order:markers fill stroke"
       d="m 172.48065,100.67396 c 0.39442,-0.19721 0.34434,-1.047442 0,-1.322912 -2.64583,-2.116669 -6.05009,-2.645837 -9.26041,-2.645837 -7.9375,0 -145.520826,0 -145.520826,0 -3.210327,0 -6.614583,0.529167 -9.2604166,2.645837 -0.3443408,0.27547 -0.3944136,1.125702 0,1.322912 2.6458336,1.32292 6.1422716,1.32292 9.2604166,1.32292 0,0 137.583326,0 145.520826,0 3.11814,0 6.61458,0 9.26041,-1.32292 z"
       id="path12-3"
       sodipodi:nodetypes="sssssssss" /><path
       style="opacity:1;fill:#cccccc;stroke:#000000;stroke-width:0.264583;paint-order:markers fill stroke"
       d="m 168.52422,95.442594 c 1.98438,0.06615 2.63352,0.204284 3.95643,-0.0603 0.43241,-0.08648 0.36126,-1.070036 0,-1.322917 -2.64583,-1.852082 -5.90207,-3.968749 -9.26041,-3.968749 -10.58333,0 -145.520826,0 -145.520826,0 -3.358344,0 -6.614583,2.116666 -9.2604167,3.968748 -0.3612587,0.252881 -0.4324089,1.236437 0,1.322917 1.3229167,0.264584 1.9720567,0.12645 3.9564317,0.0603 1.984375,-0.0662 3.535876,-0.0603 5.303985,-0.0603 0,0 134.937496,10e-7 145.520826,10e-7 1.76811,0 3.31961,-0.0059 5.30398,0.0603 z"
       id="path13-1"
       sodipodi:nodetypes="sssssssssss" /><path
       style="opacity:1;fill:#cccccc;stroke:#000000;stroke-width:0.264583;paint-order:markers fill stroke"
       d="m 169.83482,90.090629 c 1.05833,0.529166 2.11667,1.322916 2.64583,1.322915 0.44098,-10e-7 0.24461,-0.956004 0,-1.322915 -3.175,-4.762501 -5.46702,-6.614585 -9.26041,-6.614585 -10.58333,0 -145.520826,0 -145.520826,0 -3.793387,0 -6.085417,1.852083 -9.2604166,6.614584 -0.244607,0.366911 -0.4409718,1.322914 -10e-8,1.322915 0.5291667,10e-7 1.5874997,-0.793749 2.6458337,-1.322915 2.011143,-1.005572 4.366057,-1.322917 6.614583,-1.322917 0,0 134.937496,0 145.520826,0 2.24852,0 4.60344,0.317346 6.61458,1.322918 z"
       id="path14-4"
       sodipodi:nodetypes="sssssssssss" /><path
       style="opacity:1;fill:#cccccc;stroke:#000000;stroke-width:0.264583;paint-order:markers fill stroke"
       d="m 170.0994,85.328128 c 1.05834,1.058334 1.8051,2.355318 2.38125,2.116666 0.40741,-0.168753 0.42173,-0.735495 0.30662,-1.161177 -1.7887,-6.614583 -5.09111,-9.422156 -9.56703,-9.422156 -15.875,0 -145.520826,0 -145.520826,0 -4.475924,0 -7.778335,2.807572 -9.5670308,9.422155 -0.1151118,0.425682 -0.100791,0.992424 0.3066141,1.161177 0.5761577,0.238652 1.3229167,-1.058332 2.3812497,-2.116666 1.058333,-1.058333 4.233334,-3.175 6.879167,-3.175 0,0 130.968746,0 145.520826,0 2.5255,0 5.82083,2.116668 6.87916,3.175001 z"
       id="path15-9"
       sodipodi:nodetypes="zsssssssssz" /><path
       style="opacity:1;fill:#cccccc;stroke:#000000;stroke-width:0.264583;paint-order:markers fill stroke"
       d="m 172.48065,105.96562 c 0.34434,-0.27547 0.39442,-1.12569 0,-1.3229 -2.64583,-1.32292 -6.14227,-1.32292 -9.26041,-1.32292 -10.58333,0 -145.520826,0 -145.520826,0 -3.118145,0 -6.614583,0 -9.2604172,1.32292 -0.3944129,0.19721 -0.3443399,1.04743 0,1.3229 2.6458342,2.11667 6.0500902,2.64584 9.2604172,2.64584 0,0 134.937496,0 145.520826,0 3.21032,0 6.61458,-0.52917 9.26041,-2.64584 z"
       id="path12-0-2"
       sodipodi:nodetypes="sssssssss" /><path
       style="opacity:1;fill:#cccccc;stroke:#000000;stroke-width:0.264583;paint-order:markers fill stroke"
       d="m 172.48065,111.25729 c 0.36126,-0.25288 0.43241,-1.23644 0,-1.32292 -1.32291,-0.26458 -1.97205,-0.12645 -3.95643,-0.0603 -1.98437,0.0661 -3.53587,0.0603 -5.30398,0.0603 -9.26041,1e-5 -137.583326,1e-5 -145.520826,-1e-5 -1.768109,0 -3.31961,0.006 -5.303985,-0.0603 -1.984375,-0.0661 -2.633515,-0.20428 -3.9564322,0.0603 -0.4324089,0.0865 -0.3612589,1.07004 0,1.32292 2.6458342,1.85208 5.9020712,3.96876 9.2604172,3.96876 7.9375,1e-5 136.260416,1e-5 145.520826,0 3.35834,0 6.61458,-2.11668 9.26041,-3.96876 z"
       id="path13-7-0"
       sodipodi:nodetypes="ssssssssssss" /><path
       style="opacity:1;fill:#cccccc;stroke:#000000;stroke-width:0.264583;paint-order:markers fill stroke"
       d="m 172.48065,115.22604 c 0.24461,-0.36692 0.44098,-1.32292 0,-1.32292 -0.52916,0 -1.5875,0.79375 -2.64583,1.32292 -2.01114,1.00557 -4.36605,1.32292 -6.61458,1.32292 -10.58333,0 -145.520826,0 -145.520826,0 -2.248526,0 -4.60344,-0.31735 -6.614583,-1.32292 -1.058334,-0.52917 -2.1166672,-1.32292 -2.6458342,-1.32292 -0.4409709,0 -0.2446069,0.956 0,1.32292 3.1750002,4.7625 5.4670292,6.61459 9.2604172,6.61459 0,0 134.937496,0 145.520826,0 3.79339,0 6.08541,-1.85209 9.26041,-6.61459 z"
       id="path14-8-6"
       sodipodi:nodetypes="sssssssssss" /><path
       style="opacity:1;fill:#cccccc;stroke:#000000;stroke-width:0.264583;paint-order:markers fill stroke"
       d="m 172.78727,119.03305 c 0.11511,-0.42568 0.10079,-0.99243 -0.30662,-1.16118 -0.57615,-0.23865 -1.32291,1.05833 -2.38125,2.11667 -1.05833,1.05833 -4.35366,3.17501 -6.87916,3.17501 -9.26041,0 -145.520826,0 -145.520826,0 -2.525506,0 -5.820834,-2.11668 -6.879167,-3.17501 -1.058333,-1.05834 -1.8050922,-2.35532 -2.3812502,-2.11667 -0.4074049,0.16875 -0.4217259,0.7355 -0.3066139,1.16118 1.7886961,6.61458 5.0911051,9.42216 9.5670311,9.42216 0,0 136.260416,0 145.520826,0 4.47593,0 7.77833,-2.80758 9.56703,-9.42216 z"
       id="path15-6-8"
       sodipodi:nodetypes="sszsszsssss" /><circle
       style="opacity:1;fill:#ffffff;fill-opacity:1;stroke:#000000;stroke-width:0.220486;stroke-dasharray:none;paint-order:markers fill stroke"
       id="path15"
       cx="9.7619143"
       cy="84.798958"
       r="0.55121529" /><circle
       style="opacity:1;fill:#ffffff;fill-opacity:1;stroke:#000000;stroke-width:0.220486;stroke-dasharray:none;paint-order:markers fill stroke"
       id="path15-5"
       cx="9.7619143"
       cy="89.826042"
       r="0.55121529" /><circle
       style="opacity:1;fill:#ffffff;fill-opacity:1;stroke:#000000;stroke-width:0.220486;stroke-dasharray:none;paint-order:markers fill stroke"
       id="path15-5-6"
       cx="9.7635145"
       cy="94.451294"
       r="0.55121529" /><circle
       style="opacity:1;fill:#ffffff;fill-opacity:1;stroke:#000000;stroke-width:0.220486;stroke-dasharray:none;paint-order:markers fill stroke"
       id="path15-5-5"
       cx="9.7619143"
       cy="99.880211"
       r="0.55121529" /><circle
       style="opacity:1;fill:#ffffff;fill-opacity:1;stroke:#000000;stroke-width:0.220486;stroke-dasharray:none;paint-order:markers fill stroke"
       id="path15-5-5-4"
       cx="9.7619143"
       cy="105.43645"
       r="0.55121529" /><circle
       style="opacity:1;fill:#ffffff;fill-opacity:1;stroke:#000000;stroke-width:0.220486;stroke-dasharray:none;paint-order:markers fill stroke"
       id="path15-5-5-9"
       cx="9.7583132"
       cy="110.81681"
       r="0.55121529" /><circle
       style="opacity:1;fill:#ffffff;fill-opacity:1;stroke:#000000;stroke-width:0.220486;stroke-dasharray:none;paint-order:markers fill stroke"
       id="path15-5-5-8"
       cx="9.7619143"
       cy="115.49063"
       r="0.55121529" /><circle
       style="opacity:1;fill:#ffffff;fill-opacity:1;stroke:#000000;stroke-width:0.220486;stroke-dasharray:none;paint-order:markers fill stroke"
       id="path15-5-5-96"
       cx="9.7619143"
       cy="120.51772"
       r="0.55121529" /><circle
       style="opacity:1;fill:#ffffff;fill-opacity:1;stroke:#000000;stroke-width:0.220486;stroke-dasharray:none;paint-order:markers fill stroke"
       id="path15-6"
       cx="171.15773"
       cy="84.798958"
       r="0.55121529" /><circle
       style="opacity:1;fill:#ffffff;fill-opacity:1;stroke:#000000;stroke-width:0.220486;stroke-dasharray:none;paint-order:markers fill stroke"
       id="path15-5-1"
       cx="171.16774"
       cy="89.734558"
       r="0.55121529" /><circle
       style="opacity:1;fill:#ffffff;fill-opacity:1;stroke:#000000;stroke-width:0.220486;stroke-dasharray:none;paint-order:markers fill stroke"
       id="path15-5-6-1"
       cx="171.15773"
       cy="94.588547"
       r="0.55121529" /><circle
       style="opacity:1;fill:#ffffff;fill-opacity:1;stroke:#000000;stroke-width:0.220486;stroke-dasharray:none;paint-order:markers fill stroke"
       id="path15-5-5-5"
       cx="171.15773"
       cy="99.880211"
       r="0.55121529" /><circle
       style="opacity:1;fill:#ffffff;fill-opacity:1;stroke:#000000;stroke-width:0.220486;stroke-dasharray:none;paint-order:markers fill stroke"
       id="path15-5-5-4-9"
       cx="171.15773"
       cy="105.43645"
       r="0.55121529" /><circle
       style="opacity:1;fill:#ffffff;fill-opacity:1;stroke:#000000;stroke-width:0.220486;stroke-dasharray:none;paint-order:markers fill stroke"
       id="path15-5-5-9-8"
       cx="171.15048"
       cy="110.84188"
       r="0.55121529" /><circle
       style="opacity:1;fill:#ffffff;fill-opacity:1;stroke:#000000;stroke-width:0.220486;stroke-dasharray:none;paint-order:markers fill stroke"
       id="path15-5-5-8-4"
       cx="171.15773"
       cy="115.49064"
       r="0.55121529" /><circle
       style="opacity:1;fill:#ffffff;fill-opacity:1;stroke:#000000;stroke-width:0.220486;stroke-dasharray:none;paint-order:markers fill stroke"
       id="path15-5-5-96-8"
       cx="171.15773"
       cy="120.51771"
       r="0.55121529" /><path
       style="fill:#1b722f;fill-opacity:1;stroke:#1b722f;stroke-width:0.79375;stroke-linecap:round;stroke-linejoin:round;stroke-dasharray:0, 1.19062;stroke-dashoffset:0;stroke-opacity:1;paint-order:markers fill stroke"
       d="M 17.235765,155.83004 H 162.75659"
       id="path2" /><path
       style="fill:#000100;fill-opacity:1;stroke:#000000;stroke-width:0.440558;paint-order:markers fill stroke"
       d="m 5.2916665,190.5 v 3.96874 c 0,1.24726 1.398574,2.64584 2.6458332,2.64584 0,0 162.1105703,0.0716 164.0416603,1e-5 1.77307,0.0716 2.64301,-1.31951 2.64583,-2.64583 0.003,-1.32632 -1.8e-4,-3.96877 -1.8e-4,-3.96877 0,-1.24726 -1.39857,-2.64584 -2.64583,-2.64584 H 7.9374997 c -1.2472572,0 -2.6458332,1.39858 -2.6458332,2.64584 z"
       id="path3-5"
       sodipodi:nodetypes="sssccsssss"
       clip-path="url(#clipPath1)"
       inkscape:path-effect="#path-effect1"
       inkscape:original-d="m 5.2916665,190.5 v 3.96874 c 0,1.24726 1.398574,2.64584 2.6458332,2.64584 0,0 162.1105703,0.0716 164.0416603,1e-5 1.77307,0.0716 2.64301,-1.31951 2.64583,-2.64583 0.003,-1.32632 -1.8e-4,-3.96877 -1.8e-4,-3.96877 0,-1.24726 -1.39857,-2.64584 -2.64583,-2.64584 H 7.9374997 c -1.2472572,0 -2.6458332,1.39858 -2.6458332,2.64584 z"
       transform="translate(0,-37.041668)" /><path
       style="fill:#cccccc;fill-opacity:1;stroke:#000000;stroke-width:0.529167;stroke-linecap:round;stroke-linejoin:round;stroke-dasharray:none;stroke-dashoffset:0;stroke-opacity:1;marker-end:url(#RoundedArrow);paint-order:markers fill stroke"
       d="m 11.90625,142.875 v 3.96875"
       id="path4"
       sodipodi:nodetypes="cc" /><path
       style="fill:#cccccc;fill-opacity:1;stroke:#000000;stroke-width:0.529167;stroke-linecap:round;stroke-linejoin:round;stroke-dasharray:none;stroke-dashoffset:0;stroke-opacity:1;marker-end:url(#RoundedArrow-2);paint-order:markers fill stroke"
       d="m 168.00122,149.15481 v -3.96875"
       id="path4-9"
       sodipodi:nodetypes="cc" /><path
       style="fill:#cccccc;fill-opacity:1;stroke:#000000;stroke-width:0.529167;stroke-linecap:round;stroke-linejoin:round;stroke-dasharray:none;stroke-dashoffset:0;stroke-opacity:1;marker-end:url(#RoundedArrow-2);paint-order:markers fill stroke"
       d="m 11.90625,82.020835 c 0,0 1.895603,-2.645832 3.968749,-2.645833 2.073146,-10e-7 3.96875,0 3.96875,0"
       id="path5"
       sodipodi:nodetypes="czc" /><path
       style="fill:#cccccc;fill-opacity:1;stroke:#000000;stroke-width:0.529167;stroke-linecap:round;stroke-linejoin:round;stroke-dasharray:none;stroke-dashoffset:0;stroke-opacity:1;marker-start:url(#RoundedArrow);paint-order:markers fill stroke"
       d="m 169.06875,82.020835 c 0,0 -1.8956,-2.645832 -3.96875,-2.645833 -2.07314,-10e-7 -3.96875,0 -3.96875,0"
       id="path5-6"
       sodipodi:nodetypes="czc" /></g></svg>
