<?xml version="1.0" encoding="UTF-8" standalone="no"?>
<!-- Created with Inkscape (http://www.inkscape.org/) -->

<svg
   width="177.80002mm"
   height="254mm"
   viewBox="0 0 177.80002 254"
   version="1.1"
   id="svg1"
   inkscape:version="1.3 (1:1.3+202307231459+0e150ed6c4)"
   sodipodi:docname="cover.svg"
   inkscape:export-filename="cover.png"
   inkscape:export-xdpi="300"
   inkscape:export-ydpi="300"
   xmlns:inkscape="http://www.inkscape.org/namespaces/inkscape"
   xmlns:sodipodi="http://sodipodi.sourceforge.net/DTD/sodipodi-0.dtd"
   xmlns="http://www.w3.org/2000/svg"
   xmlns:svg="http://www.w3.org/2000/svg">
  <sodipodi:namedview
     id="namedview1"
     pagecolor="#505050"
     bordercolor="#ffffff"
     borderopacity="1"
     inkscape:showpageshadow="0"
     inkscape:pageopacity="0"
     inkscape:pagecheckerboard="1"
     inkscape:deskcolor="#d1d1d1"
     inkscape:document-units="mm"
     showgrid="false"
     inkscape:zoom="0.70710678"
     inkscape:cx="-26.870058"
     inkscape:cy="393.85848"
     inkscape:current-layer="layer1"
     showguides="true">
    <inkscape:grid
       id="grid1"
       units="px"
       originx="-747.99985"
       originy="0"
       spacingx="0.26458333"
       spacingy="0.26458333"
       empcolor="#e50000"
       empopacity="0.30196078"
       color="#e50000"
       opacity="0.14901961"
       empspacing="5"
       dotted="true"
       gridanglex="30"
       gridanglez="30"
       visible="false" />
    <sodipodi:guide
       position="-12.699973,21.166679"
       orientation="0,-1"
       id="guide11"
       inkscape:locked="false" />
    <sodipodi:guide
       position="-74.312043,49.964622"
       orientation="0,-1"
       id="guide14"
       inkscape:locked="false" />
    <sodipodi:guide
       position="-86.027323,163.6652"
       orientation="0,-1"
       id="guide15"
       inkscape:locked="false" />
    <sodipodi:guide
       position="-157.49056,155.74529"
       orientation="0,-1"
       id="guide16"
       inkscape:locked="false" />
    <sodipodi:guide
       position="-144.01798,211.92517"
       orientation="0,-1"
       id="guide17"
       inkscape:locked="false" />
    <sodipodi:guide
       position="-146.06816,151.64179"
       orientation="0,-1"
       id="guide18"
       inkscape:locked="false" />
    <sodipodi:guide
       position="-105.30413,232.83333"
       orientation="0,-1"
       id="guide19"
       inkscape:locked="false" />
    <sodipodi:guide
       position="7.0642753e-06,206.21242"
       orientation="1,0"
       id="guide20"
       inkscape:locked="false" />
    <sodipodi:guide
       position="-20.108303,80.697925"
       orientation="1,0"
       id="guide21"
       inkscape:locked="false" />
  </sodipodi:namedview>
  <defs
     id="defs1" />
  <g
     inkscape:label="Layer 1"
     inkscape:groupmode="layer"
     id="layer1"
     transform="translate(-197.90829)">
    <rect
       style="fill:#ffffff;stroke:none;stroke-width:0.529167;stroke-linecap:square;stroke-linejoin:round"
       id="rect1"
       width="177.8"
       height="254"
       x="197.90829"
       y="0"
       ry="0.21057086" />
    <rect
       style="fill:#ee4890;fill-opacity:1;stroke:none;stroke-width:0.529167;stroke-linecap:square;stroke-linejoin:round"
       id="rect2"
       width="148.16666"
       height="5.614933"
       x="197.90829"
       y="0"
       ry="0" />
    <rect
       style="fill:#ffcc66;fill-opacity:1;stroke:none;stroke-width:0.529167;stroke-linecap:square;stroke-linejoin:round"
       id="rect2-6"
       width="111.125"
       height="5.2916737"
       x="197.90829"
       y="5.6149292"
       ry="0" />
    <rect
       style="fill:#2ab675;fill-opacity:1;stroke:none;stroke-width:0.529167;stroke-linecap:square;stroke-linejoin:round"
       id="rect2-6-2"
       width="74.083336"
       height="5.2916727"
       x="197.90829"
       y="10.906625"
       ry="0" />
    <rect
       style="fill:#74d1f6;fill-opacity:1;stroke:none;stroke-width:0.529167;stroke-linecap:square;stroke-linejoin:round"
       id="rect2-6-2-3"
       width="37.041656"
       height="5.2916718"
       x="197.90829"
       y="16.19828"
       ry="0" />
    <text
       xml:space="preserve"
       style="font-size:14.1111px;line-height:normal;font-family:'Albert Sans';-inkscape-font-specification:'Albert Sans';text-align:end;text-decoration-color:#000000;letter-spacing:0.105833px;text-anchor:end;fill:#1a1a1a;fill-opacity:1;stroke:none;stroke-width:0.529167;stroke-linecap:square;stroke-linejoin:round"
       x="227.28467"
       y="52.234833"
       id="text4"><tspan
         sodipodi:role="line"
         style="font-size:14.1111px;text-align:start;text-anchor:start;stroke-width:0.529167"
         x="227.28467"
         y="52.234833"
         id="tspan12">Introduction to </tspan><tspan
         sodipodi:role="line"
         style="font-size:14.1111px;text-align:start;text-anchor:start;stroke-width:0.529167"
         x="227.28467"
         y="69.873711"
         id="tspan16">Ancient Microbial</tspan><tspan
         sodipodi:role="line"
         style="font-size:14.1111px;text-align:start;text-anchor:start;stroke-width:0.529167"
         x="227.28467"
         y="87.512581"
         id="tspan15">Metagenomics</tspan></text>
    <text
       xml:space="preserve"
       style="font-size:5.64444px;line-height:normal;font-family:'Albert Sans';-inkscape-font-specification:'Albert Sans';text-align:start;text-decoration-color:#000000;letter-spacing:0.105833px;text-anchor:start;fill:#1a1a1a;fill-opacity:1;stroke:none;stroke-width:0.529167;stroke-linecap:square;stroke-linejoin:round"
       x="345.96191"
       y="201.04382"
       id="text8"><tspan
         sodipodi:role="line"
         style="font-style:italic;font-size:5.64444px;text-align:end;text-anchor:end;stroke-width:0.529167"
         x="345.96191"
         y="201.04382"
         id="tspan18" /><tspan
         sodipodi:role="line"
         style="font-size:5.64444px;text-align:end;text-anchor:end;stroke-width:0.529167"
         x="345.96191"
         y="208.09938"
         id="tspan17">Edited by</tspan><tspan
         sodipodi:role="line"
         style="font-size:5.64444px;text-align:end;text-anchor:end;stroke-width:0.529167"
         x="345.96191"
         y="215.15492"
         id="tspan11">James A. Fellows Yates</tspan><tspan
         sodipodi:role="line"
         style="font-size:5.64444px;text-align:end;text-anchor:end;stroke-width:0.529167"
         x="347.75403"
         y="222.21048"
         id="tspan10">Christina Warinner </tspan></text>
    <text
       xml:space="preserve"
       style="font-size:5.64444px;line-height:normal;font-family:'Albert Sans';-inkscape-font-specification:'Albert Sans';text-align:start;text-decoration-color:#000000;letter-spacing:0.105833px;text-anchor:start;fill:#1a1a1a;fill-opacity:1;stroke:none;stroke-width:0.529167;stroke-linecap:square;stroke-linejoin:round"
       x="261.65784"
       y="102.3187"
       id="text8-9"><tspan
         sodipodi:role="line"
         style="font-size:5.64444px;text-align:end;text-anchor:end;stroke-width:0.529167"
         x="261.76367"
         y="102.3187"
         id="tspan10-8">Edition 2023</tspan></text>
    <g
       id="g8"
       transform="matrix(0.07533679,0,0,0.07533679,355.28224,207.49242)">
      <path
         class="cls-1"
         d="M 84.72,26.45 A 12.13,12.13 0 1 0 96.85,38.58 12.14,12.14 0 0 0 84.72,26.45 Z m 0,16.39 A 4.26,4.26 0 1 1 89,38.58 4.26,4.26 0 0 1 84.72,42.84 Z"
         id="path1"
         style="fill:#ffffff" />
      <path
         class="cls-1"
         d="M 94.89,98.34 A 12.13,12.13 0 1 0 107,110.47 12.15,12.15 0 0 0 94.89,98.34 Z m 0,16.39 a 4.26,4.26 0 1 1 4.25,-4.26 4.26,4.26 0 0 1 -4.25,4.26 z"
         id="path2"
         style="fill:#ffffff" />
      <path
         class="cls-1"
         d="M 69.43,51 A 12.11,12.11 0 0 0 54.09,43.44 c -10,3.41 -23.59,12.76 -28.95,27.92 -3,8.55 -3.18,18 -0.45,28 A 12.14,12.14 0 0 0 36.36,108.28 12.09,12.09 0 0 0 48,93.05 C 42.85,74.13 58.7,67.49 61.91,66.36 A 12.13,12.13 0 0 0 69.43,51 Z M 59.34,58.93 C 49.59,62.36 34.63,73.85 40.43,95.12 a 4.21,4.21 0 0 1 -0.41,3.2 4.17,4.17 0 0 1 -2.55,2 4.22,4.22 0 0 1 -5.18,-3 C 30,88.88 30.08,81 32.56,74 v 0 C 37,61.53 48.29,53.78 56.63,50.94 a 4.2232718,4.2232718 0 1 1 2.71,8 z"
         id="path3"
         style="fill:#ffffff" />
      <path
         class="cls-1"
         d="M 121.57,67.06 C 112.4,61.81 96.4,57.8 81.48,63.8 73.07,67.18 65.9,73.29 60.18,82 a 12.12,12.12 0 0 0 3.44,16.75 12.09,12.09 0 0 0 16.75,-3.44 c 10.79,-16.38 26.25,-8.87 29.22,-7.21 a 12.093387,12.093387 0 0 0 12,-21 z m -2.35,12.58 a 4.26,4.26 0 0 1 -5.77,1.57 c -9,-5 -27.53,-8.67 -39.66,9.74 a 4.11,4.11 0 0 1 -2.66,1.8 4.21,4.21 0 0 1 -4.37,-6.44 C 71.58,79 77.52,73.87 84.42,71.1 a 35,35 0 0 1 13.08,-2.45 42,42 0 0 1 20.15,5.24 4.22,4.22 0 0 1 1.57,5.75 z"
         id="path4"
         style="fill:#ffffff" />
      <circle
         cx="75"
         cy="75"
         r="74.440002"
         id="circle4" />
      <path
         class="cls-1"
         d="M 85.5,22.54 A 13.12,13.12 0 1 0 98.61,35.66 13.13,13.13 0 0 0 85.5,22.54 Z m 0,17.72 a 4.6,4.6 0 1 1 4.6,-4.6 4.61,4.61 0 0 1 -4.6,4.6 z"
         id="path5"
         style="fill:#ffffff" />
      <path
         class="cls-1"
         d="m 96.48,100.27 a 13.12,13.12 0 1 0 13.12,13.12 13.13,13.13 0 0 0 -13.12,-13.12 z m 0,17.72 a 4.6,4.6 0 1 1 4.61,-4.6 4.61,4.61 0 0 1 -4.61,4.61 z"
         id="path6"
         style="fill:#ffffff" />
      <path
         class="cls-1"
         d="M 69,49.13 A 13.09,13.09 0 0 0 52.38,41 C 41.56,44.68 26.87,54.8 21.07,71.19 17.8,80.43 17.64,90.62 20.59,101.46 a 13.07,13.07 0 0 0 16.05,9.18 13.09,13.09 0 0 0 9.18,-16 C 40.24,74.19 57.39,67.01 60.82,65.79 A 13.13,13.13 0 0 0 69,49.13 Z M 58.05,57.66 C 47.51,61.38 31.34,73.8 37.6,96.8 a 4.56,4.56 0 0 1 -3.2,5.59 4.57,4.57 0 0 1 -5.59,-3.21 C 26.32,90 26.41,81.57 29.1,74 v 0 c 4.78,-13.52 17,-21.9 26,-25 a 4.67,4.67 0 0 1 1.47,-0.24 4.59,4.59 0 0 1 2,0.47 4.54,4.54 0 0 1 2.3,2.62 4.59,4.59 0 0 1 -2.82,5.81 z"
         id="path7"
         style="fill:#ffffff" />
      <path
         class="cls-1"
         d="m 125.34,66.45 c -9.92,-5.68 -27.22,-10 -43.35,-3.53 -9.1,3.66 -16.85,10.27 -23,19.66 a 13.09,13.09 0 0 0 3.72,18.1 13,13 0 0 0 7.17,2.17 12.59,12.59 0 0 0 2.66,-0.28 12.9,12.9 0 0 0 8.25,-5.57 c 11.67,-17.7 28.38,-9.59 31.6,-7.79 a 13.088147,13.088147 0 0 0 13,-22.72 z m -2.55,13.61 a 4.59,4.59 0 0 1 -6.23,1.69 C 106.8,76.3 86.79,72.38 73.68,92.28 a 4.56,4.56 0 1 1 -7.61,-5 c 5.21,-7.91 11.64,-13.44 19.1,-16.44 a 37.81,37.81 0 0 1 14.14,-2.65 45.25,45.25 0 0 1 21.79,5.67 4.56,4.56 0 0 1 1.69,6.2 z"
         id="path8"
         style="fill:#ffffff" />
    </g>
    <rect
       style="fill:#ee4890;fill-opacity:1;stroke:none;stroke-width:0.529167;stroke-linecap:square;stroke-linejoin:round"
       id="rect2-4"
       width="148.16666"
       height="5.2916665"
       x="-375.70831"
       y="-254"
       ry="0"
       transform="scale(-1)" />
    <rect
       style="fill:#ffcc66;fill-opacity:1;stroke:none;stroke-width:0.529167;stroke-linecap:square;stroke-linejoin:round"
       id="rect2-6-5"
       width="111.12499"
       height="5.291666"
       x="-375.70831"
       y="-248.70831"
       ry="0"
       transform="scale(-1)" />
    <rect
       style="fill:#2ab675;fill-opacity:1;stroke:none;stroke-width:0.529167;stroke-linecap:square;stroke-linejoin:round"
       id="rect2-6-2-0"
       width="74.083328"
       height="5.291666"
       x="-375.70831"
       y="-243.41666"
       ry="0"
       transform="scale(-1)" />
    <rect
       style="fill:#74d1f6;fill-opacity:1;stroke:none;stroke-width:0.529167;stroke-linecap:square;stroke-linejoin:round"
       id="rect2-6-2-3-3"
       width="37.041664"
       height="5.2916665"
       x="-375.70831"
       y="-238.125"
       ry="0"
       transform="scale(-1)" />
  </g>
</svg>
