<?xml version="1.0" encoding="UTF-8" standalone="no"?>
<!-- Created with Inkscape (http://www.inkscape.org/) -->

<svg
   width="177.82501mm"
   height="254mm"
   viewBox="0 0 177.82501 254"
   version="1.1"
   id="svg1"
   inkscape:version="1.3.2 (1:1.3.2+202311252150+091e20ef0f)"
   sodipodi:docname="cover-gradient.svg"
   inkscape:export-filename="cover-gradient.png"
   inkscape:export-xdpi="300"
   inkscape:export-ydpi="300"
   xmlns:inkscape="http://www.inkscape.org/namespaces/inkscape"
   xmlns:sodipodi="http://sodipodi.sourceforge.net/DTD/sodipodi-0.dtd"
   xmlns="http://www.w3.org/2000/svg"
   xmlns:svg="http://www.w3.org/2000/svg">
  <sodipodi:namedview
     id="namedview1"
     pagecolor="#505050"
     bordercolor="#ffffff"
     borderopacity="1"
     inkscape:showpageshadow="0"
     inkscape:pageopacity="0"
     inkscape:pagecheckerboard="1"
     inkscape:deskcolor="#d1d1d1"
     inkscape:document-units="mm"
     showgrid="false"
     inkscape:zoom="2.5584716"
     inkscape:cx="242.33218"
     inkscape:cy="415.87329"
     inkscape:current-layer="layer1"
     showguides="false">
    <inkscape:grid
       id="grid1"
       units="px"
       originx="-747.90539"
       originy="0"
       spacingx="0.26458333"
       spacingy="0.26458333"
       empcolor="#e50000"
       empopacity="0.30196078"
       color="#e50000"
       opacity="0.14901961"
       empspacing="5"
       dotted="true"
       gridanglex="30"
       gridanglez="30"
       visible="false" />
    <sodipodi:guide
       position="-12.674978,21.166679"
       orientation="0,-1"
       id="guide11"
       inkscape:locked="false" />
    <sodipodi:guide
       position="-74.287048,49.964622"
       orientation="0,-1"
       id="guide14"
       inkscape:locked="false" />
    <sodipodi:guide
       position="-86.002328,163.6652"
       orientation="0,-1"
       id="guide15"
       inkscape:locked="false" />
    <sodipodi:guide
       position="-157.46557,155.74529"
       orientation="0,-1"
       id="guide16"
       inkscape:locked="false" />
    <sodipodi:guide
       position="-143.99299,211.92517"
       orientation="0,-1"
       id="guide17"
       inkscape:locked="false" />
    <sodipodi:guide
       position="-146.04317,151.64179"
       orientation="0,-1"
       id="guide18"
       inkscape:locked="false" />
    <sodipodi:guide
       position="-105.27914,232.83333"
       orientation="0,-1"
       id="guide19"
       inkscape:locked="false" />
    <sodipodi:guide
       position="0.025001742,206.21242"
       orientation="1,0"
       id="guide20"
       inkscape:locked="false" />
    <sodipodi:guide
       position="-20.083308,80.697925"
       orientation="1,0"
       id="guide21"
       inkscape:locked="false" />
    <sodipodi:guide
       position="-168.15921,163.6652"
       orientation="1,0"
       id="guide23"
       inkscape:locked="false" />
    <sodipodi:guide
       position="-49.716648,5.2916818"
       orientation="1,0"
       id="guide24"
       inkscape:locked="false" />
    <sodipodi:guide
       position="113.00691,31.750015"
       orientation="0,-1"
       id="guide25"
       inkscape:locked="false" />
    <sodipodi:guide
       position="21.176482,127"
       orientation="0,1"
       id="guide26"
       inkscape:locked="false"
       inkscape:label=""
       inkscape:color="rgb(0,134,229)" />
    <sodipodi:guide
       position="8.4916917,116.41667"
       orientation="0,-1"
       id="guide27"
       inkscape:locked="false" />
    <sodipodi:guide
       position="24.366692,63.50001"
       orientation="0,-1"
       id="guide28"
       inkscape:locked="false" />
    <sodipodi:guide
       position="-110.5708,206.375"
       orientation="1,0"
       id="guide29"
       inkscape:locked="false" />
    <sodipodi:guide
       position="118.29377,153.45834"
       orientation="1,0"
       id="guide30"
       inkscape:locked="false" />
  </sodipodi:namedview>
  <defs
     id="defs1">
    <rect
       x="112.34302"
       y="520"
       width="447.65692"
       height="199.99998"
       id="rect28" />
    <rect
       x="112.34302"
       y="159.02296"
       width="447.65692"
       height="612.1344"
       id="rect23" />
    <rect
       x="112.34302"
       y="520"
       width="447.65692"
       height="199.99998"
       id="rect28-9" />
  </defs>
  <g
     inkscape:label="Layer 1"
     inkscape:groupmode="layer"
     id="layer1"
     transform="translate(-197.8833)">
    <rect
       style="fill:#ffffff;stroke:none;stroke-width:0.529167;stroke-linecap:square;stroke-linejoin:round"
       id="rect1"
       width="177.8"
       height="254"
       x="197.90829"
       y="0"
       ry="0.21057086" />
    <rect
       style="fill:#ee4890;fill-opacity:1;stroke:none;stroke-width:0.529167;stroke-linecap:square;stroke-linejoin:round"
       id="rect2"
       width="148.09396"
       height="5.614933"
       x="197.90829"
       y="0"
       ry="0" />
    <rect
       style="fill:#ffcc66;fill-opacity:1;stroke:none;stroke-width:0.529167;stroke-linecap:square;stroke-linejoin:round"
       id="rect2-6"
       width="111.05237"
       height="5.2916737"
       x="197.90829"
       y="5.6149292"
       ry="0" />
    <rect
       style="fill:#2ab675;fill-opacity:1;stroke:none;stroke-width:0.529167;stroke-linecap:square;stroke-linejoin:round"
       id="rect2-6-2"
       width="74.010712"
       height="5.2916746"
       x="197.90829"
       y="10.906625"
       ry="0" />
    <rect
       style="fill:#74d1f6;fill-opacity:1;stroke:none;stroke-width:0.529167;stroke-linecap:square;stroke-linejoin:round"
       id="rect2-6-2-3"
       width="36.969025"
       height="5.2916718"
       x="197.90829"
       y="16.19828"
       ry="0" />
    <text
       xml:space="preserve"
       style="font-size:14.1111px;line-height:normal;font-family:'Albert Sans';-inkscape-font-specification:'Albert Sans';text-align:end;text-decoration-color:#000000;letter-spacing:0.105833px;text-anchor:end;fill:#1a1a1a;fill-opacity:1;stroke:none;stroke-width:0.529167;stroke-linecap:square;stroke-linejoin:round"
       x="227.28467"
       y="52.234833"
       id="text4"><tspan
         sodipodi:role="line"
         style="font-size:14.1111px;text-align:start;text-anchor:start;stroke-width:0.529167"
         x="227.28467"
         y="52.234833"
         id="tspan12">Introduction to </tspan><tspan
         sodipodi:role="line"
         style="font-size:14.1111px;text-align:start;text-anchor:start;stroke-width:0.529167"
         x="227.28467"
         y="69.873711"
         id="tspan16">Ancient Microbial</tspan><tspan
         sodipodi:role="line"
         style="font-size:14.1111px;text-align:start;text-anchor:start;stroke-width:0.529167"
         x="227.28467"
         y="87.512581"
         id="tspan15">Metagenomics</tspan></text>
    <text
       xml:space="preserve"
       style="font-size:5.64444px;line-height:normal;font-family:'Albert Sans';-inkscape-font-specification:'Albert Sans';text-align:start;text-decoration-color:#000000;letter-spacing:0.105833px;text-anchor:start;fill:#1a1a1a;fill-opacity:1;stroke:none;stroke-width:0.529167;stroke-linecap:square;stroke-linejoin:round"
       x="345.96191"
       y="201.04382"
       id="text8"><tspan
         sodipodi:role="line"
         style="font-style:italic;font-size:5.64444px;text-align:end;text-anchor:end;stroke-width:0.529167"
         x="345.96191"
         y="201.04382"
         id="tspan18" /><tspan
         sodipodi:role="line"
         style="font-size:5.64444px;text-align:end;text-anchor:end;stroke-width:0.529167"
         x="345.96191"
         y="208.09938"
         id="tspan17">Edited by</tspan><tspan
         sodipodi:role="line"
         style="font-size:5.64444px;text-align:end;text-anchor:end;stroke-width:0.529167"
         x="345.96191"
         y="215.15492"
         id="tspan11">James A. Fellows Yates</tspan><tspan
         sodipodi:role="line"
         style="font-size:5.64444px;text-align:end;text-anchor:end;stroke-width:0.529167"
         x="347.75403"
         y="222.21048"
         id="tspan10">Christina Warinner </tspan></text>
    <g
       id="g8"
       transform="matrix(0.07533679,0,0,0.07533679,355.28224,207.49242)">
      <path
         class="cls-1"
         d="M 84.72,26.45 A 12.13,12.13 0 1 0 96.85,38.58 12.14,12.14 0 0 0 84.72,26.45 Z m 0,16.39 A 4.26,4.26 0 1 1 89,38.58 4.26,4.26 0 0 1 84.72,42.84 Z"
         id="path1"
         style="fill:#ffffff" />
      <path
         class="cls-1"
         d="M 94.89,98.34 A 12.13,12.13 0 1 0 107,110.47 12.15,12.15 0 0 0 94.89,98.34 Z m 0,16.39 a 4.26,4.26 0 1 1 4.25,-4.26 4.26,4.26 0 0 1 -4.25,4.26 z"
         id="path2"
         style="fill:#ffffff" />
      <path
         class="cls-1"
         d="M 69.43,51 A 12.11,12.11 0 0 0 54.09,43.44 c -10,3.41 -23.59,12.76 -28.95,27.92 -3,8.55 -3.18,18 -0.45,28 A 12.14,12.14 0 0 0 36.36,108.28 12.09,12.09 0 0 0 48,93.05 C 42.85,74.13 58.7,67.49 61.91,66.36 A 12.13,12.13 0 0 0 69.43,51 Z M 59.34,58.93 C 49.59,62.36 34.63,73.85 40.43,95.12 a 4.21,4.21 0 0 1 -0.41,3.2 4.17,4.17 0 0 1 -2.55,2 4.22,4.22 0 0 1 -5.18,-3 C 30,88.88 30.08,81 32.56,74 v 0 C 37,61.53 48.29,53.78 56.63,50.94 a 4.2232718,4.2232718 0 1 1 2.71,8 z"
         id="path3"
         style="fill:#ffffff" />
      <path
         class="cls-1"
         d="M 121.57,67.06 C 112.4,61.81 96.4,57.8 81.48,63.8 73.07,67.18 65.9,73.29 60.18,82 a 12.12,12.12 0 0 0 3.44,16.75 12.09,12.09 0 0 0 16.75,-3.44 c 10.79,-16.38 26.25,-8.87 29.22,-7.21 a 12.093387,12.093387 0 0 0 12,-21 z m -2.35,12.58 a 4.26,4.26 0 0 1 -5.77,1.57 c -9,-5 -27.53,-8.67 -39.66,9.74 a 4.11,4.11 0 0 1 -2.66,1.8 4.21,4.21 0 0 1 -4.37,-6.44 C 71.58,79 77.52,73.87 84.42,71.1 a 35,35 0 0 1 13.08,-2.45 42,42 0 0 1 20.15,5.24 4.22,4.22 0 0 1 1.57,5.75 z"
         id="path4"
         style="fill:#ffffff" />
      <circle
         cx="75"
         cy="75"
         r="74.440002"
         id="circle4" />
      <path
         class="cls-1"
         d="M 85.5,22.54 A 13.12,13.12 0 1 0 98.61,35.66 13.13,13.13 0 0 0 85.5,22.54 Z m 0,17.72 a 4.6,4.6 0 1 1 4.6,-4.6 4.61,4.61 0 0 1 -4.6,4.6 z"
         id="path5"
         style="fill:#ffffff" />
      <path
         class="cls-1"
         d="m 96.48,100.27 a 13.12,13.12 0 1 0 13.12,13.12 13.13,13.13 0 0 0 -13.12,-13.12 z m 0,17.72 a 4.6,4.6 0 1 1 4.61,-4.6 4.61,4.61 0 0 1 -4.61,4.61 z"
         id="path6"
         style="fill:#ffffff" />
      <path
         class="cls-1"
         d="M 69,49.13 A 13.09,13.09 0 0 0 52.38,41 C 41.56,44.68 26.87,54.8 21.07,71.19 17.8,80.43 17.64,90.62 20.59,101.46 a 13.07,13.07 0 0 0 16.05,9.18 13.09,13.09 0 0 0 9.18,-16 C 40.24,74.19 57.39,67.01 60.82,65.79 A 13.13,13.13 0 0 0 69,49.13 Z M 58.05,57.66 C 47.51,61.38 31.34,73.8 37.6,96.8 a 4.56,4.56 0 0 1 -3.2,5.59 4.57,4.57 0 0 1 -5.59,-3.21 C 26.32,90 26.41,81.57 29.1,74 v 0 c 4.78,-13.52 17,-21.9 26,-25 a 4.67,4.67 0 0 1 1.47,-0.24 4.59,4.59 0 0 1 2,0.47 4.54,4.54 0 0 1 2.3,2.62 4.59,4.59 0 0 1 -2.82,5.81 z"
         id="path7"
         style="fill:#ffffff" />
      <path
         class="cls-1"
         d="m 125.34,66.45 c -9.92,-5.68 -27.22,-10 -43.35,-3.53 -9.1,3.66 -16.85,10.27 -23,19.66 a 13.09,13.09 0 0 0 3.72,18.1 13,13 0 0 0 7.17,2.17 12.59,12.59 0 0 0 2.66,-0.28 12.9,12.9 0 0 0 8.25,-5.57 c 11.67,-17.7 28.38,-9.59 31.6,-7.79 a 13.088147,13.088147 0 0 0 13,-22.72 z m -2.55,13.61 a 4.59,4.59 0 0 1 -6.23,1.69 C 106.8,76.3 86.79,72.38 73.68,92.28 a 4.56,4.56 0 1 1 -7.61,-5 c 5.21,-7.91 11.64,-13.44 19.1,-16.44 a 37.81,37.81 0 0 1 14.14,-2.65 45.25,45.25 0 0 1 21.79,5.67 4.56,4.56 0 0 1 1.69,6.2 z"
         id="path8"
         style="fill:#ffffff" />
    </g>
    <rect
       style="fill:#ee4890;fill-opacity:1;stroke:none;stroke-width:0.529167;stroke-linecap:square;stroke-linejoin:round"
       id="rect2-4"
       width="148.16666"
       height="5.2916665"
       x="-375.70831"
       y="-254"
       ry="0"
       transform="scale(-1)" />
    <rect
       style="fill:#ffcc66;fill-opacity:1;stroke:none;stroke-width:0.529167;stroke-linecap:square;stroke-linejoin:round"
       id="rect2-6-5"
       width="111.12499"
       height="5.291666"
       x="-375.70831"
       y="-248.70831"
       ry="0"
       transform="scale(-1)" />
    <rect
       style="fill:#2ab675;fill-opacity:1;stroke:none;stroke-width:0.529167;stroke-linecap:square;stroke-linejoin:round"
       id="rect2-6-2-0"
       width="74.083328"
       height="5.291666"
       x="-375.70831"
       y="-243.41666"
       ry="0"
       transform="scale(-1)" />
    <rect
       style="fill:#74d1f6;fill-opacity:1;stroke:none;stroke-width:0.529167;stroke-linecap:square;stroke-linejoin:round"
       id="rect2-6-2-3-3"
       width="37.041664"
       height="5.2916665"
       x="-375.70831"
       y="-238.125"
       ry="0"
       transform="scale(-1)" />
    <text
       xml:space="preserve"
       style="font-size:4.23333px;line-height:normal;font-family:'Albert Sans';-inkscape-font-specification:'Albert Sans';text-align:justify;text-decoration-color:#000000;letter-spacing:0.105833px;text-anchor:start;fill:#1a1a1a;fill-opacity:1;stroke:none;stroke-width:0.264583;stroke-linecap:square;stroke-linejoin:round;stroke-dasharray:none"
       x="219.05978"
       y="135.54103"
       id="text26"><tspan
         sodipodi:role="line"
         id="tspan26"
         style="stroke-width:0.264583"
         x="219.05978"
         y="135.54103" /></text>
    <text
       xml:space="preserve"
       style="font-size:5.64444px;line-height:normal;font-family:'Albert Sans';-inkscape-font-specification:'Albert Sans';text-align:start;text-decoration-color:#000000;letter-spacing:0.105833px;text-anchor:start;fill:#1a1a1a;fill-opacity:1;stroke:none;stroke-width:0.529167;stroke-linecap:square;stroke-linejoin:round"
       x="261.65784"
       y="102.3187"
       id="text8-9"><tspan
         sodipodi:role="line"
         style="font-size:5.64444px;text-align:end;text-anchor:end;stroke-width:0.529167"
         x="261.76367"
         y="102.3187"
         id="tspan10-8">Edition 2025</tspan></text>
    <rect
       style="opacity:0.75;fill:#2ab675;fill-opacity:1;stroke:none;stroke-width:0.529167;stroke-linecap:square;stroke-linejoin:round"
       id="rect2-6-2-3-3-5-7"
       width="18.521076"
       height="5.2916741"
       x="-148.19807"
       y="236.77707"
       ry="0"
       transform="rotate(-90)" />
    <rect
       style="opacity:0.75;fill:#2ab675;fill-opacity:1;stroke:none;stroke-width:0.529167;stroke-linecap:square;stroke-linejoin:round"
       id="rect2-6-2-3-3-5-7-9"
       width="28.786612"
       height="5.2916718"
       x="-214.02635"
       y="236.77715"
       ry="0"
       transform="rotate(-90)" />
    <rect
       style="opacity:1;fill:#ffcc66;fill-opacity:1;stroke:none;stroke-width:0.529167;stroke-linecap:square;stroke-linejoin:round"
       id="rect2-6-2-3-3-5-7-2"
       width="14.521137"
       height="5.2666626"
       x="-128.32291"
       y="288.39581"
       ry="0"
       transform="rotate(-90)" />
    <rect
       style="opacity:1;fill:#ffcc66;fill-opacity:1;stroke:none;stroke-width:0.529167;stroke-linecap:square;stroke-linejoin:round"
       id="rect2-6-2-3-3-5-7-2-4"
       width="5.2916803"
       height="5.2916813"
       x="-144.22908"
       y="288.37079"
       ry="0"
       transform="rotate(-90)" />
    <rect
       style="opacity:1;fill:#ffcc66;fill-opacity:1;stroke:none;stroke-width:0.529167;stroke-linecap:square;stroke-linejoin:round"
       id="rect2-6-2-3-3-5-7-2-4-5"
       width="9.2604151"
       height="5.2916946"
       x="-166.71866"
       y="288.37079"
       ry="0"
       transform="rotate(-90)" />
    <rect
       style="opacity:1;fill:#ffcc66;fill-opacity:1;stroke:none;stroke-width:0.529167;stroke-linecap:square;stroke-linejoin:round"
       id="rect2-6-2-3-3-5-7-2-4-5-1-5"
       width="14.552078"
       height="5.2916884"
       x="-193.17697"
       y="288.37079"
       ry="0"
       transform="rotate(-90)" />
    <path
       style="opacity:0.5;fill:#2ab675;fill-opacity:1;stroke:none;stroke-width:1.05833;stroke-opacity:1"
       d="m 242.06882,199.63305 c 25.13542,0 25.13032,-21.20668 46.30198,-21.00815 -0.005,2.4473 -0.005,11.7077 1e-5,14.55207 -21.17167,-0.19853 -21.16659,20.84939 -46.30199,20.84938 -2e-5,-2.64583 0,-11.74747 0,-14.3933 z"
       id="path15"
       sodipodi:nodetypes="ccccc" />
    <rect
       style="opacity:1;fill:#ee4890;fill-opacity:1;stroke:none;stroke-width:0.529167;stroke-linecap:square;stroke-linejoin:round"
       id="rect2-6-2-3-3-5-7-2-3"
       width="1.9843715"
       height="5.2916522"
       x="-101.23428"
       y="341.28748"
       ry="0"
       transform="rotate(-90)" />
    <rect
       style="opacity:1;fill:#ee4890;fill-opacity:1;stroke:none;stroke-width:0.529167;stroke-linecap:square;stroke-linejoin:round"
       id="rect2-6-2-3-3-5-7-2-3-2"
       width="13.244751"
       height="5.3166766"
       x="-119.0625"
       y="341.28748"
       ry="0"
       transform="rotate(-90)" />
    <rect
       style="opacity:1;fill:#ee4890;fill-opacity:1;stroke:none;stroke-width:0.529167;stroke-linecap:square;stroke-linejoin:round"
       id="rect2-6-2-3-3-5-7-2-3-5"
       width="2.6769958"
       height="5.316679"
       x="-127.03117"
       y="341.28748"
       ry="0"
       transform="rotate(-90)" />
    <rect
       style="opacity:1;fill:#ee4890;fill-opacity:1;stroke:none;stroke-width:0.529167;stroke-linecap:square;stroke-linejoin:round"
       id="rect2-6-2-3-3-5-7-2-3-2-5"
       width="2.6769836"
       height="5.316679"
       x="-134.96864"
       y="341.28748"
       ry="0"
       transform="rotate(-90)" />
    <rect
       style="opacity:1;fill:#ee4890;fill-opacity:1;stroke:none;stroke-width:0.529167;stroke-linecap:square;stroke-linejoin:round"
       id="rect2-6-2-3-3-5-7-2-3-5-5"
       width="6.5834374"
       height="5.266644"
       x="-148.16666"
       y="341.3125"
       ry="0"
       transform="rotate(-90)" />
    <rect
       style="opacity:1;fill:#ee4890;fill-opacity:1;stroke:none;stroke-width:0.529167;stroke-linecap:square;stroke-linejoin:round"
       id="rect2-6-2-3-3-5-7-2-3-2-5-6"
       width="2.6769898"
       height="5.316679"
       x="-156.13531"
       y="341.28748"
       ry="0"
       transform="rotate(-90)" />
    <rect
       style="opacity:1;fill:#ee4890;fill-opacity:1;stroke:none;stroke-width:0.529167;stroke-linecap:square;stroke-linejoin:round"
       id="rect2-6-2-3-3-5-7-2-3-5-5-4"
       width="3.968749"
       height="5.2916541"
       x="-166.71864"
       y="341.28748"
       ry="0"
       transform="rotate(-90)" />
    <path
       style="opacity:0.75;fill:#ffcc66;fill-opacity:1;stroke:none;stroke-width:1.05833;stroke-opacity:1"
       d="m 293.66247,185.20832 c 22.48958,0 22.48958,-11.87509 47.625,-11.87509 0,1.32292 0,6.43116 1e-5,7.90634 -25.13543,-10e-6 -25.13543,11.90625 -47.62501,11.90625 z"
       id="path22"
       sodipodi:nodetypes="ccccc" />
    <rect
       style="opacity:1;fill:#ee4890;fill-opacity:1;stroke:none;stroke-width:0.529167;stroke-linecap:square;stroke-linejoin:round"
       id="rect2-6-2-3-3-5-7-2-3-2-5-6-5-2"
       width="7.9375048"
       height="5.291656"
       x="-181.23958"
       y="341.3125"
       ry="0"
       transform="rotate(-90)" />
    <path
       style="opacity:0.25;fill:#74d1f6;fill-opacity:1;stroke:none;stroke-width:1.05833"
       d="m 197.8833,113.80199 c 23.8125,0 16.40417,15.875 38.89375,15.875 1e-5,5.29166 1e-5,14.55208 0,18.52083 -22.48958,0 -15.08125,-17.19792 -38.89375,-17.19792 z"
       id="path10"
       sodipodi:nodetypes="ccccc" />
    <path
       style="opacity:0.25;fill:#74d1f6;fill-opacity:1;stroke:none;stroke-width:1.05833"
       d="m 197.8833,130.99991 c 23.8125,-1e-5 17.72709,54.23957 38.89375,54.23957 1e-5,3.96875 1.1e-4,23.49521 1e-4,28.78687 -21.16666,1e-5 -15.08135,-63.1827 -38.89385,-63.1827 z"
       id="path11"
       sodipodi:nodetypes="ccccc" />
    <path
       style="opacity:0.5;fill:#2ab675;fill-opacity:1;stroke:none;stroke-width:1.05833;stroke-opacity:1"
       d="m 242.06872,129.67699 c 23.8125,0 23.8125,-15.875 46.30209,-15.875 -1e-5,2.64583 0.025,10.55217 0.025,14.52092 -22.48959,3.96875 -22.48959,14.55208 -46.30209,14.55208 z"
       id="path12"
       sodipodi:nodetypes="ccccc" />
    <path
       style="opacity:0.5;fill:#2ab675;fill-opacity:1;stroke:none;stroke-width:1.05833;stroke-opacity:1"
       d="m 242.09374,142.87499 c 23.8125,0 23.81249,-3.96875 46.30208,-3.96875 -1e-5,2.11667 -0.025,2.14783 -0.025,5.32282 -22.48959,0.79376 -22.48958,3.96876 -46.30208,3.96876 z"
       id="path13"
       sodipodi:nodetypes="ccccc" />
    <path
       style="opacity:0.5;fill:#2ab675;fill-opacity:1;stroke:none;stroke-width:1.05833;stroke-opacity:1"
       d="m 242.06872,185.23948 c 24.61923,0.11575 24.34167,-27.78124 46.30208,-27.78124 0,1.5875 0,6.87917 1e-5,9.26042 -21.69584,0 -21.51767,32.87062 -46.30199,32.91439 z"
       id="path14"
       sodipodi:nodetypes="ccccc" />
    <path
       style="opacity:0.75;fill:#ffcc66;fill-opacity:1;stroke:none;stroke-width:1.05833;stroke-opacity:1"
       d="m 293.68749,115.09374 c 22.48957,0 22.46456,-13.85946 47.59999,-13.85946 -1e-5,-1.322917 -1e-5,-0.66145 0,-1.984371 -25.13543,10e-7 -25.13543,14.552081 -47.625,14.552081 -1e-5,1.32291 0.025,-0.0312 0.025,1.29175 z"
       id="path16"
       sodipodi:nodetypes="ccccc" />
    <path
       style="opacity:0.75;fill:#ffcc66;fill-opacity:1;stroke:none;stroke-width:1.05833;stroke-opacity:1"
       d="m 293.66248,128.32291 c 21.87446,0 22.48957,-9.26041 47.625,-9.26041 -1e-5,-1.32292 -1e-5,-11.92185 0,-13.24476 -25.13543,1.32291 -25.11041,9.276 -47.59999,9.276 z"
       id="path17"
       sodipodi:nodetypes="ccccc" />
    <path
       style="opacity:0.75;fill:#ffcc66;fill-opacity:1;stroke:none;stroke-width:1.05833;stroke-opacity:1"
       d="m 293.68749,141.55208 c 22.48958,0 22.46456,-13.19801 47.59999,-14.52093 -1e-5,-1.32292 0.025,-1.35407 0.025,-2.67699 -25.13543,0 -25.13543,14.55208 -47.625,14.55208 -10e-6,1.92243 0,1.32293 0,2.64584 z"
       id="path18"
       sodipodi:nodetypes="cccccc" />
    <path
       style="opacity:0.75;fill:#ffcc66;fill-opacity:1;stroke:none;stroke-width:1.05833;stroke-opacity:1"
       d="m 293.68749,141.55208 c 22.48957,0 22.48957,-9.26041 47.625,-9.26041 -1e-5,1.32291 -0.025,1.35407 -0.025,2.67698 -25.13543,-0.62288 -25.13543,9.26042 -47.625,9.26042 -10e-6,-1.32292 0.025,-1.35407 0.025,-2.67699 z"
       id="path19"
       sodipodi:nodetypes="ccccc" />
    <path
       style="opacity:0.75;fill:#ffcc66;fill-opacity:1;stroke:none;stroke-width:1.05833;stroke-opacity:1"
       d="m 293.66248,157.45823 c 22.48957,1e-5 22.48957,-15.87499 47.625,-15.87499 0,1.98437 -1e-5,5.29166 0,6.61457 -25.13543,1e-5 -25.13543,15.87501 -47.625,15.875 -1e-5,-1.32291 -1e-5,-5.29166 0,-6.61458 z"
       id="path20"
       sodipodi:nodetypes="ccccc" />
    <path
       style="opacity:0.75;fill:#ffcc66;fill-opacity:1;stroke:none;stroke-width:1.05833;stroke-opacity:1"
       d="m 293.66248,166.71865 c 22.48957,0 22.48957,-10.58333 47.625,-10.58333 -1e-5,-1.32292 0.025,-0.69262 0.025,-2.67699 -25.13543,0 -25.13543,10.58333 -47.625,10.58333 -10e-6,1.32292 -0.025,1.35407 -0.025,2.67699 z"
       id="path21"
       sodipodi:nodetypes="ccccc" />
    <path
       style="opacity:0.75;fill:#ffcc66;fill-opacity:1;stroke:none;stroke-width:1.05833;stroke-opacity:1"
       d="m 293.66247,178.6249 c 22.48958,0 22.48958,-15.875 47.625,-15.875 v 3.96875 c -25.13542,0 -25.13542,17.16676 -47.625,17.16676 z"
       id="path22-0"
       sodipodi:nodetypes="ccccc" />
  </g>
</svg>
