<?xml version="1.0" encoding="UTF-8" standalone="no"?>
<svg
   id="Layer_1"
   data-name="Layer 1"
   viewBox="0 0 290.3 134.17"
   version="1.1"
   sodipodi:docname="SPAAM-Logo-Full-Colour_ShortName.svg"
   width="290.29999"
   height="134.17"
   inkscape:version="1.1.2 (1:1.1+202202050950+0a00cf5339)"
   inkscape:export-filename="SPAAM-Logo-Full-Colour_ShortName.png"
   inkscape:export-xdpi="600"
   inkscape:export-ydpi="600"
   xmlns:inkscape="http://www.inkscape.org/namespaces/inkscape"
   xmlns:sodipodi="http://sodipodi.sourceforge.net/DTD/sodipodi-0.dtd"
   xmlns="http://www.w3.org/2000/svg"
   xmlns:svg="http://www.w3.org/2000/svg"
   xmlns:rdf="http://www.w3.org/1999/02/22-rdf-syntax-ns#"
   xmlns:cc="http://creativecommons.org/ns#"
   xmlns:dc="http://purl.org/dc/elements/1.1/">
  <sodipodi:namedview
     id="namedview143"
     pagecolor="#ffffff"
     bordercolor="#666666"
     borderopacity="1.0"
     inkscape:pageshadow="2"
     inkscape:pageopacity="0.0"
     inkscape:pagecheckerboard="0"
     showgrid="false"
     inkscape:zoom="3.6131096"
     inkscape:cx="177.27112"
     inkscape:cy="-34.181083"
     inkscape:window-width="1920"
     inkscape:window-height="1016"
     inkscape:window-x="1052"
     inkscape:window-y="1107"
     inkscape:window-maximized="1"
     inkscape:current-layer="Layer_1" />
  <defs
     id="defs4">
    <style
       id="style2">.cls-1{fill:#020202;}.cls-2{fill:#2ab675;}.cls-3{fill:#ee4890;}.cls-4{fill:#fc6;}.cls-5{fill:#74d1f6;}</style>
  </defs>
  <title
     id="title6">SPAAM-Logo-Full-Colour</title>
  <path
     class="cls-1"
     d="m 67.46,60.4 a 2.8,2.8 0 0 1 3.36,-4.47 14.56,14.56 0 0 0 9.41,3.46 c 3.65,0 6,-1.73 6,-4.23 v -0.09 c 0,-2.4 -1.34,-3.7 -7.58,-5.14 -7.16,-1.73 -11.19,-3.84 -11.19,-10 V 39.8 c 0,-5.76 4.8,-9.75 11.47,-9.75 a 18.5,18.5 0 0 1 10.67,3.12 2.67,2.67 0 0 1 1.29,2.35 2.75,2.75 0 0 1 -2.78,2.74 2.84,2.84 0 0 1 -1.54,-0.43 14,14 0 0 0 -7.73,-2.55 c -3.46,0 -5.48,1.78 -5.48,4 v 0.1 c 0,2.59 1.54,3.74 8,5.28 7.11,1.73 10.76,4.27 10.76,9.84 v 0.1 c 0,6.29 -5,10 -12,10 A 20.93,20.93 0 0 1 67.46,60.4 Z"
     id="path8" />
  <path
     class="cls-1"
     d="m 101.46,33.51 a 2.93,2.93 0 0 1 3,-3 h 10.28 c 7.88,0 12.77,4.47 12.77,11.24 v 0.09 c 0,7.54 -6,11.48 -13.44,11.48 h -6.68 v 8.11 a 3,3 0 0 1 -5.9,0 z M 114.23,48 c 4.47,0 7.25,-2.5 7.25,-6 v -0.1 c 0,-3.94 -2.83,-6 -7.25,-6 h -6.87 V 48 Z"
     id="path10" />
  <path
     class="cls-1"
     d="m 131.33,60.3 12.48,-27.85 a 3.76,3.76 0 0 1 3.56,-2.4 h 0.29 a 3.67,3.67 0 0 1 3.5,2.4 l 12.49,27.85 a 2.57,2.57 0 0 1 0.33,1.25 2.76,2.76 0 0 1 -2.78,2.83 3,3 0 0 1 -2.88,-2.06 L 155.58,56 h -16.33 l -2.83,6.48 a 2.84,2.84 0 0 1 -2.74,1.87 2.7,2.7 0 0 1 -2.74,-2.73 3,3 0 0 1 0.39,-1.32 z m 22,-9.51 -5.9,-13.58 -5.91,13.58 z"
     id="path12" />
  <path
     class="cls-1"
     d="M 170.71,60.3 183.2,32.45 a 3.74,3.74 0 0 1 3.55,-2.4 H 187 a 3.67,3.67 0 0 1 3.5,2.4 L 203,60.3 a 2.57,2.57 0 0 1 0.33,1.25 2.76,2.76 0 0 1 -2.78,2.83 3,3 0 0 1 -2.88,-2.06 L 195,56 h -16.37 l -2.83,6.48 a 2.84,2.84 0 0 1 -2.74,1.87 2.7,2.7 0 0 1 -2.73,-2.73 3,3 0 0 1 0.38,-1.32 z m 22,-9.51 -5.9,-13.58 -5.91,13.58 z"
     id="path14" />
  <path
     class="cls-1"
     d="m 212.15,33.32 a 3,3 0 0 1 3,-3 h 0.63 a 3.1,3.1 0 0 1 2.73,1.58 l 10.18,15.95 10.23,-16 a 3,3 0 0 1 2.69,-1.53 h 0.62 a 3,3 0 0 1 3,3 V 53 a 2.92,2.92 0 0 1 -3,2.93 A 3,3 0 0 1 239.29,53 V 41.29 l -8.22,12.34 a 2.76,2.76 0 0 1 -4.94,0 L 218,41.38 V 61.5 a 2.87,2.87 0 0 1 -3,2.88 2.83,2.83 0 0 1 -2.89,-2.88 z"
     id="path16" />
  <path
     class="cls-1"
     d="m 186.23,125.41 a 2.56,2.56 0 0 1 -2.56,-2.57 V 88.71 H 17.37 a 2.57,2.57 0 0 1 0,-5.14 h 168.86 a 2.57,2.57 0 0 1 2.57,2.57 v 30.92 l 36.32,-32.83 a 2.58,2.58 0 0 1 1.72,-0.66 h 37.38 V 25.49 a 2.57,2.57 0 0 1 5.14,0 v 60.65 a 2.57,2.57 0 0 1 -2.57,2.57 h -39 l -39.88,36 a 2.53,2.53 0 0 1 -1.68,0.7 z"
     id="path18" />
  <path
     class="cls-2"
     d="m 242.62,62.87 a 1.76,1.76 0 1 0 1.76,1.75 1.75,1.75 0 0 0 -1.76,-1.75 z"
     id="path20" />
  <path
     d="m 242.62,59.62 a 5,5 0 1 0 5,5 5,5 0 0 0 -5,-5 z m 0,6.76 a 1.76,1.76 0 1 1 1.76,-1.76 1.75,1.75 0 0 1 -1.76,1.76 z"
     id="path22" />
  <path
     class="cls-3"
     d="m 40.63,30.32 a 1.76,1.76 0 1 0 1.76,1.76 1.75,1.75 0 0 0 -1.76,-1.76 z"
     id="path24" />
  <path
     d="m 40.63,27.07 a 5,5 0 1 0 5,5 5,5 0 0 0 -5,-5 z m 0,6.76 a 1.76,1.76 0 1 1 1.76,-1.75 1.75,1.75 0 0 1 -1.76,1.75 z"
     id="path26" />
  <path
     class="cls-4"
     d="M 44.83,60 A 1.76,1.76 0 1 0 46.58,61.75 1.75,1.75 0 0 0 44.83,60 Z"
     id="path28" />
  <path
     d="m 44.83,56.74 a 5,5 0 1 0 5,5 5,5 0 0 0 -5,-5 z m 0,6.76 a 1.76,1.76 0 1 1 1.75,-1.76 1.76,1.76 0 0 1 -1.75,1.76 z"
     id="path30" />
  <path
     class="cls-2"
     d="m 31.24,38.26 a 1.72,1.72 0 0 0 -0.87,-1 1.77,1.77 0 0 0 -0.77,-0.18 1.54,1.54 0 0 0 -0.56,0.1 16.43,16.43 0 0 0 -9.93,9.53 v 0 a 15.84,15.84 0 0 0 -0.11,9.61 1.75,1.75 0 0 0 2.14,1.22 1.71,1.71 0 0 0 1.05,-0.81 1.74,1.74 0 0 0 0.17,-1.32 C 20,46.63 26.13,41.89 30.16,40.47 a 1.74,1.74 0 0 0 1.08,-2.21 z"
     id="path32" />
  <path
     d="M 34.32,37.22 A 5,5 0 0 0 28,34.1 c -4.14,1.41 -9.74,5.27 -12,11.52 a 19.07,19.07 0 0 0 -0.18,11.56 5,5 0 0 0 4.82,3.67 4.84,4.84 0 0 0 1.3,-0.17 5,5 0 0 0 3.51,-6.13 c -2.13,-7.8 4.41,-10.54 5.74,-11 a 5,5 0 0 0 3.13,-6.33 z m -4.16,3.25 c -4,1.42 -10.2,6.16 -7.81,14.94 a 1.74,1.74 0 0 1 -0.17,1.32 1.71,1.71 0 0 1 -1.05,0.81 1.75,1.75 0 0 1 -2.13,-1.22 15.84,15.84 0 0 1 0.12,-9.61 v 0 a 16.43,16.43 0 0 1 9.88,-9.53 1.54,1.54 0 0 1 0.56,-0.1 1.77,1.77 0 0 1 0.77,0.18 1.72,1.72 0 0 1 0.87,1 1.74,1.74 0 0 1 -1.04,2.21 z"
     id="path34" />
  <path
     class="cls-5"
     d="m 54.22,46.65 a 17.28,17.28 0 0 0 -8.32,-2.17 14.38,14.38 0 0 0 -5.39,1 15.86,15.86 0 0 0 -7.29,6.27 1.74,1.74 0 0 0 0.49,2.41 1.75,1.75 0 0 0 2.41,-0.49 c 5,-7.6 12.64,-6.1 16.37,-4 a 1.74,1.74 0 1 0 1.73,-3 z"
     id="path36" />
  <path
     d="M 55.84,43.83 C 52.05,41.66 45.45,40 39.29,42.48 A 19.13,19.13 0 0 0 30.5,50 a 5,5 0 0 0 1.42,6.91 4.93,4.93 0 0 0 2.74,0.83 5,5 0 0 0 1,-0.1 5,5 0 0 0 3.16,-2.15 c 4.45,-6.75 10.83,-3.66 12,-3 a 5.0042207,5.0042207 0 0 0 5,-8.67 z m -1,5.19 a 1.76,1.76 0 0 1 -2.38,0.65 c -3.73,-2.08 -11.36,-3.58 -16.37,4 a 1.75,1.75 0 0 1 -2.41,0.49 1.74,1.74 0 0 1 -0.49,-2.41 15.86,15.86 0 0 1 7.29,-6.27 14.38,14.38 0 0 1 5.39,-1 17.28,17.28 0 0 1 8.32,2.17 1.75,1.75 0 0 1 0.68,2.35 z"
     id="path38" />
  <metadata
     id="metadata960">
    <rdf:RDF>
      <cc:Work
         rdf:about="">
        <dc:title>SPAAM-Logo-Full-Colour</dc:title>
      </cc:Work>
    </rdf:RDF>
  </metadata>
</svg>
