<?xml version="1.0" encoding="UTF-8" standalone="no"?>
<svg
   inkscape:export-ydpi="300.00006"
   inkscape:export-xdpi="300.00006"
   inkscape:export-filename="/home/fellows/Documents/github/spaam-workshop/AncientMetagenomeDir/assets/images/spaam-AncientMetaGenomdir_logo.png"
   sodipodi:docname="WSS-SPAAM-summerschool_logo_name.svg"
   inkscape:version="1.1.2 (1:1.1+202202050950+0a00cf5339)"
   id="svg8"
   version="1.1"
   viewBox="0 0 264.58332 238.12497"
   height="900"
   width="1000"
   xmlns:inkscape="http://www.inkscape.org/namespaces/inkscape"
   xmlns:sodipodi="http://sodipodi.sourceforge.net/DTD/sodipodi-0.dtd"
   xmlns="http://www.w3.org/2000/svg"
   xmlns:svg="http://www.w3.org/2000/svg"
   xmlns:rdf="http://www.w3.org/1999/02/22-rdf-syntax-ns#"
   xmlns:cc="http://creativecommons.org/ns#"
   xmlns:dc="http://purl.org/dc/elements/1.1/">
  <defs
     id="defs2">
    <style
       id="style859">.cls-1{fill:#ee4890;}.cls-2{fill:#fc6;}.cls-3{fill:#2ab675;}.cls-4{fill:#74d1f6;}</style>
  </defs>
  <sodipodi:namedview
     inkscape:pagecheckerboard="true"
     units="px"
     fit-margin-bottom="0"
     fit-margin-right="0"
     fit-margin-left="0"
     fit-margin-top="0"
     inkscape:window-maximized="1"
     inkscape:window-y="1107"
     inkscape:window-x="0"
     inkscape:window-height="1016"
     inkscape:window-width="1920"
     showgrid="false"
     inkscape:document-rotation="0"
     inkscape:current-layer="text11208"
     inkscape:document-units="mm"
     inkscape:cy="417.99609"
     inkscape:cx="-442.22775"
     inkscape:zoom="0.24760997"
     inkscape:pageshadow="2"
     inkscape:pageopacity="0.0"
     borderopacity="1.0"
     bordercolor="#666666"
     pagecolor="#ffffff"
     id="base"
     inkscape:snap-bbox="true">
    <inkscape:grid
       originy="-531.87544"
       originx="-378.42886"
       id="grid833"
       type="xygrid" />
  </sodipodi:namedview>
  <metadata
     id="metadata5">
    <rdf:RDF>
      <cc:Work
         rdf:about="">
        <dc:format>image/svg+xml</dc:format>
        <dc:type
           rdf:resource="http://purl.org/dc/dcmitype/StillImage" />
      </cc:Work>
    </rdf:RDF>
  </metadata>
  <g
     transform="translate(-378.4289,-531.87564)"
     id="layer1"
     inkscape:groupmode="layer"
     inkscape:label="Layer 1">
    <g
       id="g997"
       transform="matrix(0.25,0,0,0.25,428.67058,501.40443)">
      <g
         id="g895-3-8"
         transform="matrix(1.9299468,0,0,1.9299468,184.16485,444.70622)"
         style="stroke-width:1.25;stroke-miterlimit:4;stroke-dasharray:none">
        <path
           id="path865-6-7"
           d="m 85.91,28.48 a 4.88,4.88 0 1 0 4.88,4.88 4.89,4.89 0 0 0 -4.88,-4.88 z"
           class="cls-1" />
        <path
           id="path867-7-9"
           d="M 85.91,19.47 A 13.89,13.89 0 1 0 99.8,33.36 13.9,13.9 0 0 0 85.91,19.47 Z m 0,18.77 a 4.88,4.88 0 1 1 4.88,-4.88 4.89,4.89 0 0 1 -4.88,4.88 z" />
        <path
           id="path869-5-2"
           d="m 97.55,110.81 a 4.88,4.88 0 1 0 4.87,4.88 4.89,4.89 0 0 0 -4.87,-4.88 z"
           class="cls-2" />
        <path
           id="path871-3-0"
           d="m 97.55,101.8 a 13.89,13.89 0 1 0 13.89,13.89 13.9,13.9 0 0 0 -13.89,-13.89 z m 0,18.77 a 4.88,4.88 0 1 1 4.87,-4.88 4.89,4.89 0 0 1 -4.87,4.88 z" />
        <path
           id="path873-5-2"
           d="m 59.86,50.52 a 4.85,4.85 0 0 0 -4.57,-3.27 5,5 0 0 0 -1.56,0.26 C 44.19,50.76 31.24,59.64 26.17,74 v 0 c -2.84,8 -3,17 -0.31,26.69 a 4.82,4.82 0 0 0 8.85,1.12 4.78,4.78 0 0 0 0.47,-3.66 C 28.54,73.75 45.67,60.6 56.83,56.66 a 4.86,4.86 0 0 0 3.03,-6.14 z"
           class="cls-3" />
        <path
           id="path875-6-3"
           d="M 68.4,47.63 A 13.85,13.85 0 0 0 50.83,39 C 39.37,42.89 23.83,53.61 17.67,71 14.2,80.74 14,91.53 17.16,103 A 13.85,13.85 0 0 0 43.88,95.72 C 38,74.07 56.13,66.47 59.81,65.17 A 13.9,13.9 0 0 0 68.4,47.63 Z m -11.57,9 C 45.67,60.6 28.54,73.75 35.18,98.11 A 4.85,4.85 0 0 1 31.79,104 4.85,4.85 0 0 1 25.86,100.61 C 23.22,91 23.33,82 26.17,74 v 0 c 5.07,-14.32 18,-23.2 27.56,-26.45 a 5,5 0 0 1 1.56,-0.26 4.83,4.83 0 0 1 1.54,9.41 z" />
        <path
           id="path877-2-7"
           d="m 123.62,73.8 a 48,48 0 0 0 -23.08,-6 40.13,40.13 0 0 0 -15,2.81 c -7.9,3.18 -14.71,9 -20.23,17.42 a 4.83,4.83 0 0 0 5,7.38 4.75,4.75 0 0 0 3,-2.07 C 87.2,72.26 108.4,76.41 118.73,82.19 a 4.8311619,4.8311619 0 1 0 4.81,-8.38 z"
           class="cls-4" />
        <path
           id="path879-9-5"
           d="M 128.11,66 C 117.61,60 99.29,55.39 82.2,62.26 72.56,66.13 64.35,73.13 57.8,83.08 a 13.86,13.86 0 0 0 11.54,21.47 14.28,14.28 0 0 0 2.82,-0.29 13.76,13.76 0 0 0 8.77,-5.95 C 93.28,79.54 111,88.13 114.39,90 a 13.85,13.85 0 0 0 13.72,-24 z m -2.69,14.4 a 4.88,4.88 0 0 1 -6.61,1.8 C 108.48,76.42 87.28,72.27 73.39,93.35 A 4.82,4.82 0 0 1 66.71,94.72 4.83,4.83 0 0 1 65.33,88 C 70.85,79.62 77.66,73.76 85.56,70.58 a 40.13,40.13 0 0 1 15,-2.81 48,48 0 0 1 23.08,6 4.83,4.83 0 0 1 1.78,6.61 z" />
      </g>
      <path
         style="fill:none;stroke:#000000;stroke-width:20;stroke-linecap:butt;stroke-linejoin:round;stroke-miterlimit:4;stroke-dasharray:none;stroke-opacity:1"
         d="m 74.200002,514.45212 c 0,0 163.575858,-95.2509 253.999998,-95.2509 90.42414,0 254,95.2509 254,95.2509 v 148.1667 c 0,0 -163.57607,95.2491 -254,95.2491 -90.42393,0 -253.999998,-95.2491 -253.999998,-95.2491 z"
         id="path5481-2"
         sodipodi:nodetypes="csccscc" />
      <path
         style="fill:none;stroke:#000000;stroke-width:20;stroke-linecap:butt;stroke-linejoin:round;stroke-miterlimit:4;stroke-dasharray:none;stroke-opacity:1"
         d="M 74.200002,588.53462 -137.46666,503.86792 328.2,292.20122 793.86667,503.86792 582.2,588.53462"
         id="path7329"
         sodipodi:nodetypes="ccccc" />
    </g>
    <g
       aria-label="Introduction to 
Ancient Metagenomics"
       id="text1979"
       style="font-size:21.1667px;line-height:1.25;font-family:Arial;-inkscape-font-specification:'Arial, Normal';letter-spacing:0px;stroke-width:0.264583">
      <path
         d="m 436.19278,726.3457 q -0.40217,0 -0.67733,-0.27517 -0.27517,-0.27516 -0.27517,-0.67733 v -13.05985 q 0,-0.40217 0.27517,-0.67734 0.27516,-0.29633 0.67733,-0.29633 0.40217,0 0.67734,0.29633 0.29633,0.27517 0.29633,0.67734 v 13.05985 q 0,0.40217 -0.29633,0.67733 -0.27517,0.27517 -0.67734,0.27517 z"
         style="font-family:'Varela Round';-inkscape-font-specification:'Varela Round';text-align:center;text-anchor:middle"
         id="path44" />
      <path
         d="m 441.63262,726.3457 q -0.40217,0 -0.67734,-0.27517 -0.27517,-0.27516 -0.27517,-0.67733 v -9.08051 q 0,-0.40217 0.27517,-0.67734 0.27517,-0.29633 0.67734,-0.29633 0.40216,0 0.67733,0.29633 0.29633,0.27517 0.29633,0.67734 v 0.86783 q 0.80434,-0.889 1.73567,-1.41817 0.93134,-0.52917 2.20134,-0.52917 1.16417,0 2.01084,0.55034 0.86783,0.55033 1.31233,1.50283 0.46567,0.95251 0.46567,2.09551 v 6.01134 q 0,0.40217 -0.29633,0.67733 -0.27517,0.27517 -0.67734,0.27517 -0.40217,0 -0.67733,-0.27517 -0.27517,-0.27516 -0.27517,-0.67733 v -5.79968 q 0,-2.58233 -2.32834,-2.58233 -1.05833,0 -1.905,0.55033 -0.8255,0.55034 -1.56634,1.48167 v 6.35001 q 0,0.40217 -0.29633,0.67733 -0.27517,0.27517 -0.67733,0.27517 z"
         style="font-family:'Varela Round';-inkscape-font-specification:'Varela Round';text-align:center;text-anchor:middle"
         id="path46" />
      <path
         d="m 457.04194,726.45154 q -3.09034,0 -3.09034,-2.79401 v -6.56168 h -1.50284 q -0.16933,0 -0.29633,-0.10583 -0.10584,-0.127 -0.10584,-0.29633 0,-0.21167 0.1905,-0.35984 l 2.87868,-2.81517 q 0.1905,-0.1905 0.35983,-0.1905 0.16933,0 0.27517,0.127 0.127,0.127 0.127,0.29633 v 1.69334 h 2.39183 q 0.35984,0 0.59267,0.23283 0.23284,0.23284 0.23284,0.59267 0,0.33867 -0.23284,0.59267 -0.23283,0.23283 -0.59267,0.23283 h -2.39183 v 6.39235 q 0,0.8255 0.381,1.05833 0.40217,0.21167 0.99483,0.21167 0.42334,0 0.84667,-0.127 0.0847,-0.0212 0.16933,-0.0423 0.10584,-0.0212 0.254,-0.0212 0.29634,0 0.52917,0.23283 0.23284,0.21167 0.23284,0.52917 0,0.48683 -0.48684,0.74083 -0.8255,0.38101 -1.75683,0.38101 z"
         style="font-family:'Varela Round';-inkscape-font-specification:'Varela Round';text-align:center;text-anchor:middle"
         id="path48" />
      <path
         d="m 462.35478,726.3457 q -0.40217,0 -0.67734,-0.27517 -0.27517,-0.27516 -0.27517,-0.67733 v -9.08051 q 0,-0.40217 0.27517,-0.67734 0.27517,-0.29633 0.67734,-0.29633 0.40216,0 0.67733,0.29633 0.29633,0.27517 0.29633,0.67734 v 0.91016 q 1.48167,-1.98967 3.32318,-1.98967 h 0.10583 q 0.40217,0 0.65617,0.27517 0.27516,0.27517 0.27516,0.67734 0,0.40216 -0.27516,0.65616 -0.27517,0.254 -0.6985,0.254 h -0.10584 q -1.016,0 -1.86267,0.508 -0.84666,0.48684 -1.41817,1.35467 v 6.43468 q 0,0.40217 -0.29633,0.67733 -0.27517,0.27517 -0.67733,0.27517 z"
         style="font-family:'Varela Round';-inkscape-font-specification:'Varela Round';text-align:center;text-anchor:middle"
         id="path50" />
      <path
         d="m 473.95409,726.45154 q -1.62984,0 -2.85751,-0.69851 -1.22766,-0.6985 -1.905,-1.9685 -0.65617,-1.29117 -0.65617,-2.94217 0,-1.651 0.65617,-2.92101 0.67734,-1.29116 1.905,-1.98966 1.22767,-0.69851 2.85751,-0.69851 1.60867,0 2.83634,0.69851 1.22767,0.6985 1.905,1.98966 0.67733,1.27001 0.67733,2.92101 0,1.651 -0.67733,2.94217 -0.67733,1.27 -1.905,1.9685 -1.22767,0.69851 -2.83634,0.69851 z m 0,-1.75684 q 0.86783,0 1.651,-0.40217 0.80434,-0.40217 1.31234,-1.27 0.52916,-0.86784 0.52916,-2.20134 0,-1.31233 -0.52916,-2.18017 -0.508,-0.86783 -1.31234,-1.24883 -0.78317,-0.40217 -1.651,-0.40217 -0.889,0 -1.69334,0.40217 -0.78316,0.381 -1.29117,1.24883 -0.508,0.86784 -0.508,2.18017 0,1.3335 0.508,2.20134 0.50801,0.86783 1.29117,1.27 0.80434,0.40217 1.69334,0.40217 z"
         style="font-family:'Varela Round';-inkscape-font-specification:'Varela Round';text-align:center;text-anchor:middle"
         id="path52" />
      <path
         d="m 486.52711,726.45154 q -1.31234,0 -2.49767,-0.65617 -1.16417,-0.67734 -1.90501,-1.94734 -0.71967,-1.29117 -0.71967,-3.00567 0,-1.7145 0.71967,-2.98451 0.74084,-1.29116 1.90501,-1.94733 1.18533,-0.67734 2.49767,-0.67734 2.07433,0 3.6195,1.60867 v -5.18584 q 0,-0.42333 0.27517,-0.6985 0.29633,-0.27517 0.6985,-0.27517 0.40217,0 0.67733,0.29634 0.27517,0.27516 0.27517,0.67733 v 13.73719 q 0,0.40217 -0.27517,0.67733 -0.27516,0.27517 -0.67733,0.27517 -0.40217,0 -0.6985,-0.27517 -0.27517,-0.27516 -0.27517,-0.67733 v -0.55033 q -1.54517,1.60867 -3.6195,1.60867 z m 0.27516,-1.79917 q 0.97367,0 1.82034,-0.42334 0.86783,-0.4445 1.524,-1.16417 v -4.445 q -0.65617,-0.71967 -1.524,-1.14301 -0.84667,-0.4445 -1.82034,-0.4445 -1.56633,0 -2.51883,0.99484 -0.95251,0.99483 -0.95251,2.81517 0,1.82034 0.95251,2.81517 0.9525,0.99484 2.51883,0.99484 z"
         style="font-family:'Varela Round';-inkscape-font-specification:'Varela Round';text-align:center;text-anchor:middle"
         id="path54" />
      <path
         d="m 499.10009,726.45154 q -1.16417,0 -2.032,-0.55034 -0.84667,-0.55033 -1.31234,-1.50283 -0.4445,-0.95251 -0.4445,-2.09551 v -6.01134 q 0,-0.40217 0.27517,-0.67734 0.29633,-0.27516 0.6985,-0.27516 0.40217,0 0.67734,0.27516 0.27516,0.27517 0.27516,0.67734 v 5.79967 q 0,2.58234 2.32834,2.58234 1.05834,0 1.88384,-0.55033 0.84666,-0.55034 1.5875,-1.48167 v -6.35001 q 0,-0.40217 0.27517,-0.67734 0.29633,-0.27516 0.6985,-0.27516 0.40216,0 0.67733,0.27516 0.27517,0.27517 0.27517,0.67734 v 9.08051 q 0,0.40217 -0.27517,0.6985 -0.27517,0.27517 -0.67733,0.27517 -0.40217,0 -0.6985,-0.27517 -0.27517,-0.29633 -0.27517,-0.6985 v -0.86783 q -0.80434,0.889 -1.73567,1.41817 -0.93133,0.52917 -2.20134,0.52917 z"
         style="font-family:'Varela Round';-inkscape-font-specification:'Varela Round';text-align:center;text-anchor:middle"
         id="path56" />
      <path
         d="m 513.30294,726.45154 q -1.524,0 -2.81517,-0.67734 -1.29117,-0.67733 -2.07434,-1.94734 -0.762,-1.27 -0.762,-2.9845 0,-1.7145 0.762,-2.98451 0.78317,-1.27 2.07434,-1.94733 1.29117,-0.67734 2.81517,-0.67734 1.12183,0 1.92617,0.29634 0.8255,0.27516 1.524,0.71967 0.42334,0.27516 0.42334,0.74083 0,0.3175 -0.25401,0.59267 -0.23283,0.254 -0.55033,0.254 -0.23283,0 -0.46567,-0.127 -0.6985,-0.35984 -1.2065,-0.508 -0.48683,-0.16934 -1.22767,-0.16934 -1.82033,0 -2.8575,1.05834 -1.03717,1.03717 -1.03717,2.75167 0,1.7145 1.03717,2.77284 1.03717,1.03717 2.8575,1.03717 0.74084,0 1.22767,-0.14817 0.508,-0.16933 1.2065,-0.52917 0.23284,-0.127 0.46567,-0.127 0.3175,0 0.55033,0.27517 0.25401,0.254 0.25401,0.5715 0,0.46567 -0.42334,0.74083 -0.6985,0.4445 -1.524,0.74084 -0.80434,0.27517 -1.92617,0.27517 z"
         style="font-family:'Varela Round';-inkscape-font-specification:'Varela Round';text-align:center;text-anchor:middle"
         id="path58" />
      <path
         d="m 523.31477,726.45154 q -3.09034,0 -3.09034,-2.79401 v -6.56168 h -1.50284 q -0.16933,0 -0.29633,-0.10583 -0.10583,-0.127 -0.10583,-0.29633 0,-0.21167 0.1905,-0.35984 l 2.87867,-2.81517 q 0.1905,-0.1905 0.35983,-0.1905 0.16933,0 0.27517,0.127 0.127,0.127 0.127,0.29633 v 1.69334 h 2.39184 q 0.35983,0 0.59266,0.23283 0.23284,0.23284 0.23284,0.59267 0,0.33867 -0.23284,0.59267 -0.23283,0.23283 -0.59266,0.23283 h -2.39184 v 6.39235 q 0,0.8255 0.381,1.05833 0.40217,0.21167 0.99483,0.21167 0.42334,0 0.84667,-0.127 0.0847,-0.0212 0.16934,-0.0423 0.10583,-0.0212 0.254,-0.0212 0.29633,0 0.52916,0.23283 0.23284,0.21167 0.23284,0.52917 0,0.48683 -0.48684,0.74083 -0.8255,0.38101 -1.75683,0.38101 z"
         style="font-family:'Varela Round';-inkscape-font-specification:'Varela Round';text-align:center;text-anchor:middle"
         id="path60" />
      <path
         d="m 528.58527,713.24351 q -0.4445,0 -0.762,-0.3175 -0.3175,-0.3175 -0.3175,-0.762 v -0.0847 q 0,-0.44451 0.3175,-0.76201 0.3175,-0.3175 0.762,-0.3175 h 0.127 q 0.4445,0 0.76201,0.3175 0.3175,0.3175 0.3175,0.76201 v 0.0847 q 0,0.4445 -0.3175,0.762 -0.31751,0.3175 -0.76201,0.3175 z m 0.0423,13.10219 q -0.40217,0 -0.67734,-0.27517 -0.27516,-0.27516 -0.27516,-0.67733 v -9.08051 q 0,-0.40217 0.27516,-0.67734 0.27517,-0.29633 0.67734,-0.29633 0.42333,0 0.6985,0.27516 0.27517,0.27517 0.27517,0.69851 v 9.08051 q 0,0.40217 -0.29634,0.67733 -0.27517,0.27517 -0.67733,0.27517 z"
         style="font-family:'Varela Round';-inkscape-font-specification:'Varela Round';text-align:center;text-anchor:middle"
         id="path62" />
      <path
         d="m 537.70809,726.45154 q -1.62984,0 -2.8575,-0.69851 -1.22767,-0.6985 -1.90501,-1.9685 -0.65616,-1.29117 -0.65616,-2.94217 0,-1.651 0.65616,-2.92101 0.67734,-1.29116 1.90501,-1.98966 1.22766,-0.69851 2.8575,-0.69851 1.60867,0 2.83634,0.69851 1.22767,0.6985 1.905,1.98966 0.67734,1.27001 0.67734,2.92101 0,1.651 -0.67734,2.94217 -0.67733,1.27 -1.905,1.9685 -1.22767,0.69851 -2.83634,0.69851 z m 0,-1.75684 q 0.86784,0 1.651,-0.40217 0.80434,-0.40217 1.31234,-1.27 0.52917,-0.86784 0.52917,-2.20134 0,-1.31233 -0.52917,-2.18017 -0.508,-0.86783 -1.31234,-1.24883 -0.78316,-0.40217 -1.651,-0.40217 -0.889,0 -1.69334,0.40217 -0.78316,0.381 -1.29116,1.24883 -0.508,0.86784 -0.508,2.18017 0,1.3335 0.508,2.20134 0.508,0.86783 1.29116,1.27 0.80434,0.40217 1.69334,0.40217 z"
         style="font-family:'Varela Round';-inkscape-font-specification:'Varela Round';text-align:center;text-anchor:middle"
         id="path64" />
      <path
         d="m 546.76743,726.3457 q -0.40217,0 -0.67733,-0.27517 -0.27517,-0.27516 -0.27517,-0.67733 v -9.08051 q 0,-0.40217 0.27517,-0.67734 0.27516,-0.29633 0.67733,-0.29633 0.40217,0 0.67734,0.29633 0.29633,0.27517 0.29633,0.67734 v 0.86783 q 0.80433,-0.889 1.73567,-1.41817 0.93133,-0.52917 2.20134,-0.52917 1.16416,0 2.01083,0.55034 0.86784,0.55033 1.31234,1.50283 0.46567,0.95251 0.46567,2.09551 v 6.01134 q 0,0.40217 -0.29634,0.67733 -0.27517,0.27517 -0.67733,0.27517 -0.40217,0 -0.67734,-0.27517 -0.27516,-0.27516 -0.27516,-0.67733 v -5.79968 q 0,-2.58233 -2.32834,-2.58233 -1.05834,0 -1.905,0.55033 -0.82551,0.55034 -1.56634,1.48167 v 6.35001 q 0,0.40217 -0.29633,0.67733 -0.27517,0.27517 -0.67734,0.27517 z"
         style="font-family:'Varela Round';-inkscape-font-specification:'Varela Round';text-align:center;text-anchor:middle"
         id="path66" />
      <path
         d="m 567.93409,726.45154 q -3.09034,0 -3.09034,-2.79401 v -6.56168 h -1.50283 q -0.16934,0 -0.29634,-0.10583 -0.10583,-0.127 -0.10583,-0.29633 0,-0.21167 0.1905,-0.35984 l 2.87867,-2.81517 q 0.1905,-0.1905 0.35983,-0.1905 0.16934,0 0.27517,0.127 0.127,0.127 0.127,0.29633 v 1.69334 h 2.39184 q 0.35983,0 0.59267,0.23283 0.23283,0.23284 0.23283,0.59267 0,0.33867 -0.23283,0.59267 -0.23284,0.23283 -0.59267,0.23283 h -2.39184 v 6.39235 q 0,0.8255 0.381,1.05833 0.40217,0.21167 0.99484,0.21167 0.42333,0 0.84667,-0.127 0.0847,-0.0212 0.16933,-0.0423 0.10583,-0.0212 0.254,-0.0212 0.29633,0 0.52917,0.23283 0.23283,0.21167 0.23283,0.52917 0,0.48683 -0.48683,0.74083 -0.8255,0.38101 -1.75684,0.38101 z"
         style="font-family:'Varela Round';-inkscape-font-specification:'Varela Round';text-align:center;text-anchor:middle"
         id="path68" />
      <path
         d="m 576.90873,726.45154 q -1.62984,0 -2.85751,-0.69851 -1.22766,-0.6985 -1.905,-1.9685 -0.65617,-1.29117 -0.65617,-2.94217 0,-1.651 0.65617,-2.92101 0.67734,-1.29116 1.905,-1.98966 1.22767,-0.69851 2.85751,-0.69851 1.60867,0 2.83634,0.69851 1.22766,0.6985 1.905,1.98966 0.67733,1.27001 0.67733,2.92101 0,1.651 -0.67733,2.94217 -0.67734,1.27 -1.905,1.9685 -1.22767,0.69851 -2.83634,0.69851 z m 0,-1.75684 q 0.86783,0 1.651,-0.40217 0.80434,-0.40217 1.31234,-1.27 0.52916,-0.86784 0.52916,-2.20134 0,-1.31233 -0.52916,-2.18017 -0.508,-0.86783 -1.31234,-1.24883 -0.78317,-0.40217 -1.651,-0.40217 -0.889,0 -1.69334,0.40217 -0.78317,0.381 -1.29117,1.24883 -0.508,0.86784 -0.508,2.18017 0,1.3335 0.508,2.20134 0.508,0.86783 1.29117,1.27 0.80434,0.40217 1.69334,0.40217 z"
         style="font-family:'Varela Round';-inkscape-font-specification:'Varela Round';text-align:center;text-anchor:middle"
         id="path70" />
      <path
         d="m 396.69575,753.08551 q -0.42333,0 -0.6985,-0.27517 -0.254,-0.27517 -0.254,-0.67733 0,-0.16934 0.10584,-0.42334 l 5.3975,-12.74235 q 0.16934,-0.381 0.46567,-0.61383 0.3175,-0.25401 0.762,-0.25401 h 0.21167 q 0.4445,0 0.74083,0.25401 0.31751,0.23283 0.48684,0.61383 l 5.39751,12.74235 q 0.10583,0.254 0.10583,0.42334 0,0.40216 -0.27517,0.67733 -0.254,0.27517 -0.67733,0.27517 -0.29633,0 -0.55034,-0.14817 -0.23283,-0.16933 -0.35983,-0.4445 l -1.37583,-3.302 h -7.19668 l -1.37584,3.302 q -0.127,0.27517 -0.381,0.4445 -0.23283,0.14817 -0.52917,0.14817 z m 3.02684,-5.65151 h 5.71501 l -2.8575,-6.87918 z"
         style="font-family:'Varela Round';-inkscape-font-specification:'Varela Round';text-align:center;text-anchor:middle"
         id="path72" />
      <path
         d="m 412.9729,753.08551 q -0.40217,0 -0.67733,-0.27517 -0.27517,-0.27517 -0.27517,-0.67733 v -9.08052 q 0,-0.40216 0.27517,-0.67733 0.27516,-0.29634 0.67733,-0.29634 0.40217,0 0.67734,0.29634 0.29633,0.27517 0.29633,0.67733 v 0.86784 q 0.80433,-0.889 1.73567,-1.41817 0.93133,-0.52917 2.20134,-0.52917 1.16416,0 2.01083,0.55034 0.86784,0.55033 1.31234,1.50283 0.46566,0.9525 0.46566,2.0955 v 6.01135 q 0,0.40216 -0.29633,0.67733 -0.27517,0.27517 -0.67733,0.27517 -0.40217,0 -0.67734,-0.27517 -0.27516,-0.27517 -0.27516,-0.67733 v -5.79968 q 0,-2.58234 -2.32834,-2.58234 -1.05834,0 -1.905,0.55034 -0.82551,0.55033 -1.56634,1.48167 v 6.35001 q 0,0.40216 -0.29633,0.67733 -0.27517,0.27517 -0.67734,0.27517 z"
         style="font-family:'Varela Round';-inkscape-font-specification:'Varela Round';text-align:center;text-anchor:middle"
         id="path74" />
      <path
         d="m 429.90625,753.19134 q -1.52401,0 -2.81518,-0.67733 -1.29116,-0.67734 -2.07433,-1.94734 -0.762,-1.27 -0.762,-2.9845 0,-1.71451 0.762,-2.98451 0.78317,-1.27 2.07433,-1.94733 1.29117,-0.67734 2.81518,-0.67734 1.12183,0 1.92617,0.29633 0.8255,0.27517 1.524,0.71967 0.42333,0.27517 0.42333,0.74084 0,0.3175 -0.254,0.59266 -0.23283,0.254 -0.55033,0.254 -0.23284,0 -0.46567,-0.127 -0.6985,-0.35983 -1.2065,-0.508 -0.48684,-0.16933 -1.22767,-0.16933 -1.82034,0 -2.85751,1.05834 -1.03716,1.03716 -1.03716,2.75167 0,1.7145 1.03716,2.77283 1.03717,1.03717 2.85751,1.03717 0.74083,0 1.22767,-0.14816 0.508,-0.16934 1.2065,-0.52917 0.23283,-0.127 0.46567,-0.127 0.3175,0 0.55033,0.27516 0.254,0.25401 0.254,0.57151 0,0.46566 -0.42333,0.74083 -0.6985,0.4445 -1.524,0.74083 -0.80434,0.27517 -1.92617,0.27517 z"
         style="font-family:'Varela Round';-inkscape-font-specification:'Varela Round';text-align:center;text-anchor:middle"
         id="path76" />
      <path
         d="m 437.1029,739.98332 q -0.4445,0 -0.762,-0.3175 -0.3175,-0.3175 -0.3175,-0.762 v -0.0847 q 0,-0.4445 0.3175,-0.762 0.3175,-0.3175 0.762,-0.3175 h 0.127 q 0.4445,0 0.762,0.3175 0.3175,0.3175 0.3175,0.762 v 0.0847 q 0,0.4445 -0.3175,0.762 -0.3175,0.3175 -0.762,0.3175 z m 0.0423,13.10219 q -0.40217,0 -0.67734,-0.27517 -0.27517,-0.27517 -0.27517,-0.67733 v -9.08052 q 0,-0.40216 0.27517,-0.67733 0.27517,-0.29634 0.67734,-0.29634 0.42333,0 0.6985,0.27517 0.27516,0.27517 0.27516,0.6985 v 9.08052 q 0,0.40216 -0.29633,0.67733 -0.27517,0.27517 -0.67733,0.27517 z"
         style="font-family:'Varela Round';-inkscape-font-specification:'Varela Round';text-align:center;text-anchor:middle"
         id="path78" />
      <path
         d="m 446.28922,753.19134 q -2.58233,0 -4.04284,-1.4605 -1.43933,-1.48167 -1.43933,-4.14867 0,-1.50284 0.55033,-2.77284 0.55034,-1.27 1.69334,-2.05317 1.143,-0.78317 2.81517,-0.78317 1.56633,0 2.70934,0.74084 1.143,0.71966 1.73567,1.94733 0.59266,1.2065 0.59266,2.64584 0,0.40217 -0.27516,0.67733 -0.254,0.27517 -0.6985,0.27517 h -7.17552 q 0.16934,1.48167 1.10067,2.30717 0.93134,0.8255 2.60351,0.8255 0.889,0 1.54517,-0.16933 0.67733,-0.16933 1.31233,-0.48684 0.16933,-0.0847 0.381,-0.0847 0.33867,0 0.59267,0.23283 0.254,0.23284 0.254,0.59267 0,0.46567 -0.55033,0.78317 -0.82551,0.46566 -1.62984,0.6985 -0.80434,0.23283 -2.07434,0.23283 z m 2.70934,-6.49817 q -0.0635,-1.03717 -0.55033,-1.73567 -0.46567,-0.69851 -1.16417,-1.01601 -0.6985,-0.33866 -1.41817,-0.33866 -0.71967,0 -1.41817,0.33866 -0.6985,0.3175 -1.16417,1.01601 -0.46567,0.6985 -0.52917,1.73567 z"
         style="font-family:'Varela Round';-inkscape-font-specification:'Varela Round';text-align:center;text-anchor:middle"
         id="path80" />
      <path
         d="m 454.39607,753.08551 q -0.40217,0 -0.67734,-0.27517 -0.27516,-0.27517 -0.27516,-0.67733 v -9.08052 q 0,-0.40216 0.27516,-0.67733 0.27517,-0.29634 0.67734,-0.29634 0.40216,0 0.67733,0.29634 0.29634,0.27517 0.29634,0.67733 v 0.86784 q 0.80433,-0.889 1.73566,-1.41817 0.93134,-0.52917 2.20134,-0.52917 1.16417,0 2.01084,0.55034 0.86783,0.55033 1.31233,1.50283 0.46567,0.9525 0.46567,2.0955 v 6.01135 q 0,0.40216 -0.29633,0.67733 -0.27517,0.27517 -0.67734,0.27517 -0.40216,0 -0.67733,-0.27517 -0.27517,-0.27517 -0.27517,-0.67733 v -5.79968 q 0,-2.58234 -2.32834,-2.58234 -1.05833,0 -1.905,0.55034 -0.8255,0.55033 -1.56633,1.48167 v 6.35001 q 0,0.40216 -0.29634,0.67733 -0.27517,0.27517 -0.67733,0.27517 z"
         style="font-family:'Varela Round';-inkscape-font-specification:'Varela Round';text-align:center;text-anchor:middle"
         id="path82" />
      <path
         d="m 469.80539,753.19134 q -3.09034,0 -3.09034,-2.794 v -6.56168 h -1.50284 q -0.16933,0 -0.29633,-0.10583 -0.10583,-0.127 -0.10583,-0.29634 0,-0.21166 0.1905,-0.35983 l 2.87867,-2.81517 q 0.1905,-0.1905 0.35983,-0.1905 0.16934,0 0.27517,0.127 0.127,0.127 0.127,0.29633 v 1.69334 h 2.39184 q 0.35983,0 0.59266,0.23283 0.23284,0.23284 0.23284,0.59267 0,0.33867 -0.23284,0.59267 -0.23283,0.23283 -0.59266,0.23283 h -2.39184 v 6.39234 q 0,0.82551 0.381,1.05834 0.40217,0.21167 0.99483,0.21167 0.42334,0 0.84667,-0.127 0.0847,-0.0212 0.16934,-0.0423 0.10583,-0.0212 0.254,-0.0212 0.29633,0 0.52916,0.23283 0.23284,0.21167 0.23284,0.52917 0,0.48683 -0.48684,0.74083 -0.8255,0.381 -1.75683,0.381 z"
         style="font-family:'Varela Round';-inkscape-font-specification:'Varela Round';text-align:center;text-anchor:middle"
         id="path84" />
      <path
         d="m 481.00254,753.08551 q -0.40217,0 -0.67734,-0.27517 -0.27516,-0.27517 -0.27516,-0.67733 v -12.63652 q 0,-0.5715 0.40217,-0.97367 0.40216,-0.42334 0.97366,-0.42334 h 0.6985 q 0.42334,0 0.76201,0.25401 0.35983,0.254 0.52916,0.635 l 4.80484,11.98035 4.80485,-11.98035 q 0.16933,-0.381 0.508,-0.635 0.35983,-0.25401 0.78316,-0.25401 h 0.69851 q 0.5715,0 0.97366,0.42334 0.40217,0.40217 0.40217,0.97367 v 12.63652 q 0,0.40216 -0.27517,0.67733 -0.27516,0.27517 -0.67733,0.27517 -0.40217,0 -0.6985,-0.27517 -0.27517,-0.27517 -0.27517,-0.67733 v -12.02269 l -4.88951,12.08619 q -0.16933,0.40216 -0.55033,0.65616 -0.35984,0.23284 -0.80434,0.23284 -0.4445,0 -0.8255,-0.23284 -0.35983,-0.254 -0.52916,-0.65616 l -4.88951,-12.08619 v 12.02269 q 0,0.40216 -0.29634,0.67733 -0.27516,0.27517 -0.67733,0.27517 z"
         style="font-family:'Varela Round';-inkscape-font-specification:'Varela Round';text-align:center;text-anchor:middle"
         id="path86" />
      <path
         d="m 504.64569,753.19134 q -2.58233,0 -4.04283,-1.4605 -1.43934,-1.48167 -1.43934,-4.14867 0,-1.50284 0.55033,-2.77284 0.55034,-1.27 1.69334,-2.05317 1.143,-0.78317 2.81517,-0.78317 1.56634,0 2.70934,0.74084 1.143,0.71966 1.73567,1.94733 0.59267,1.2065 0.59267,2.64584 0,0.40217 -0.27517,0.67733 -0.254,0.27517 -0.6985,0.27517 h -7.17551 q 0.16933,1.48167 1.10066,2.30717 0.93134,0.8255 2.60351,0.8255 0.889,0 1.54517,-0.16933 0.67733,-0.16933 1.31233,-0.48684 0.16934,-0.0847 0.381,-0.0847 0.33867,0 0.59267,0.23283 0.254,0.23284 0.254,0.59267 0,0.46567 -0.55033,0.78317 -0.8255,0.46566 -1.62984,0.6985 -0.80433,0.23283 -2.07434,0.23283 z m 2.70934,-6.49817 q -0.0635,-1.03717 -0.55033,-1.73567 -0.46567,-0.69851 -1.16417,-1.01601 -0.6985,-0.33866 -1.41817,-0.33866 -0.71967,0 -1.41817,0.33866 -0.6985,0.3175 -1.16417,1.01601 -0.46566,0.6985 -0.52916,1.73567 z"
         style="font-family:'Varela Round';-inkscape-font-specification:'Varela Round';text-align:center;text-anchor:middle"
         id="path88" />
      <path
         d="m 515.52538,753.19134 q -3.09034,0 -3.09034,-2.794 v -6.56168 h -1.50283 q -0.16934,0 -0.29634,-0.10583 -0.10583,-0.127 -0.10583,-0.29634 0,-0.21166 0.1905,-0.35983 l 2.87867,-2.81517 q 0.1905,-0.1905 0.35984,-0.1905 0.16933,0 0.27516,0.127 0.127,0.127 0.127,0.29633 v 1.69334 h 2.39184 q 0.35983,0 0.59267,0.23283 0.23283,0.23284 0.23283,0.59267 0,0.33867 -0.23283,0.59267 -0.23284,0.23283 -0.59267,0.23283 h -2.39184 v 6.39234 q 0,0.82551 0.381,1.05834 0.40217,0.21167 0.99484,0.21167 0.42333,0 0.84667,-0.127 0.0847,-0.0212 0.16933,-0.0423 0.10583,-0.0212 0.254,-0.0212 0.29633,0 0.52917,0.23283 0.23283,0.21167 0.23283,0.52917 0,0.48683 -0.48683,0.74083 -0.8255,0.381 -1.75684,0.381 z"
         style="font-family:'Varela Round';-inkscape-font-specification:'Varela Round';text-align:center;text-anchor:middle"
         id="path90" />
      <path
         d="m 522.63739,753.19134 q -0.93133,0 -1.73567,-0.381 -0.78317,-0.381 -1.24883,-1.10067 -0.46567,-0.74083 -0.46567,-1.69333 0,-1.56634 1.22767,-2.49767 1.24883,-0.93134 3.64067,-0.93134 h 2.56117 V 746.418 q 0,-1.397 -0.6985,-2.01084 -0.67734,-0.61383 -2.13784,-0.61383 -0.80433,0 -1.43933,0.127 -0.61384,0.127 -1.37584,0.381 -0.16933,0.0423 -0.27517,0.0423 -0.3175,0 -0.55033,-0.23283 -0.23283,-0.23284 -0.23283,-0.5715 0,-0.5715 0.55033,-0.80434 1.79917,-0.762 3.66184,-0.762 1.4605,0 2.45534,0.59267 1.016,0.59267 1.48167,1.54517 0.48683,0.93133 0.48683,2.032 v 5.99018 q 0,0.40216 -0.29633,0.67733 -0.27517,0.27517 -0.67734,0.27517 -0.40217,0 -0.67733,-0.27517 -0.27517,-0.27517 -0.27517,-0.67733 v -0.55034 q -1.56634,1.60867 -3.97934,1.60867 z m 0.71967,-1.69333 q 0.93133,0 1.79917,-0.4445 0.86783,-0.46567 1.4605,-1.14301 v -1.778 h -2.30717 q -3.19617,0 -3.19617,1.67217 0,0.762 0.508,1.22767 0.52917,0.46567 1.73567,0.46567 z"
         style="font-family:'Varela Round';-inkscape-font-specification:'Varela Round';text-align:center;text-anchor:middle"
         id="path92" />
      <path
         d="m 536.81905,758.05968 q -1.22767,0 -2.47651,-0.3175 -1.24883,-0.3175 -2.05317,-0.78317 -0.381,-0.23283 -0.381,-0.74083 0,-0.33867 0.23284,-0.61383 0.254,-0.254 0.61383,-0.254 0.16933,0 0.381,0.0847 1.60867,0.80434 3.49251,0.80434 3.2385,0 3.2385,-3.45018 v -1.41816 q -1.50283,1.60867 -3.6195,1.60867 -1.24884,0 -2.43417,-0.61384 -1.16417,-0.635 -1.92617,-1.86267 -0.76201,-1.24883 -0.76201,-3.02684 0,-1.778 0.76201,-3.00567 0.762,-1.24883 1.92617,-1.86267 1.18533,-0.635 2.43417,-0.635 2.11667,0 3.6195,1.60867 v -0.52917 q 0,-0.40216 0.27517,-0.67733 0.27517,-0.29634 0.67733,-0.29634 0.40217,0 0.67734,0.29634 0.29633,0.27517 0.29633,0.67733 v 9.46152 q 0,2.667 -1.29117,4.10634 -1.29117,1.43933 -3.683,1.43933 z m -0.16934,-6.83684 q 0.99484,0 1.75684,-0.42334 0.762,-0.42333 1.4605,-1.143 v -4.36034 q -0.6985,-0.71967 -1.4605,-1.143 -0.762,-0.42333 -1.75684,-0.42333 -1.5875,0 -2.6035,0.97367 -0.99484,0.9525 -0.99484,2.77283 0,1.82034 0.99484,2.79401 1.016,0.9525 2.6035,0.9525 z"
         style="font-family:'Varela Round';-inkscape-font-specification:'Varela Round';text-align:center;text-anchor:middle"
         id="path94" />
      <path
         d="m 549.96354,753.19134 q -2.58234,0 -4.04284,-1.4605 -1.43934,-1.48167 -1.43934,-4.14867 0,-1.50284 0.55033,-2.77284 0.55034,-1.27 1.69334,-2.05317 1.143,-0.78317 2.81517,-0.78317 1.56634,0 2.70934,0.74084 1.143,0.71966 1.73567,1.94733 0.59267,1.2065 0.59267,2.64584 0,0.40217 -0.27517,0.67733 -0.254,0.27517 -0.6985,0.27517 h -7.17551 q 0.16933,1.48167 1.10067,2.30717 0.93133,0.8255 2.6035,0.8255 0.889,0 1.54517,-0.16933 0.67733,-0.16933 1.31233,-0.48684 0.16934,-0.0847 0.381,-0.0847 0.33867,0 0.59267,0.23283 0.254,0.23284 0.254,0.59267 0,0.46567 -0.55033,0.78317 -0.8255,0.46566 -1.62984,0.6985 -0.80433,0.23283 -2.07433,0.23283 z m 2.70933,-6.49817 q -0.0635,-1.03717 -0.55033,-1.73567 -0.46567,-0.69851 -1.16417,-1.01601 -0.6985,-0.33866 -1.41817,-0.33866 -0.71967,0 -1.41817,0.33866 -0.6985,0.3175 -1.16417,1.01601 -0.46566,0.6985 -0.52916,1.73567 z"
         style="font-family:'Varela Round';-inkscape-font-specification:'Varela Round';text-align:center;text-anchor:middle"
         id="path96" />
      <path
         d="m 558.07038,753.08551 q -0.40217,0 -0.67734,-0.27517 -0.27517,-0.27517 -0.27517,-0.67733 v -9.08052 q 0,-0.40216 0.27517,-0.67733 0.27517,-0.29634 0.67734,-0.29634 0.40216,0 0.67733,0.29634 0.29633,0.27517 0.29633,0.67733 v 0.86784 q 0.80434,-0.889 1.73567,-1.41817 0.93134,-0.52917 2.20134,-0.52917 1.16417,0 2.01084,0.55034 0.86783,0.55033 1.31233,1.50283 0.46567,0.9525 0.46567,2.0955 v 6.01135 q 0,0.40216 -0.29633,0.67733 -0.27517,0.27517 -0.67734,0.27517 -0.40217,0 -0.67733,-0.27517 -0.27517,-0.27517 -0.27517,-0.67733 v -5.79968 q 0,-2.58234 -2.32834,-2.58234 -1.05833,0 -1.905,0.55034 -0.8255,0.55033 -1.56634,1.48167 v 6.35001 q 0,0.40216 -0.29633,0.67733 -0.27517,0.27517 -0.67733,0.27517 z"
         style="font-family:'Varela Round';-inkscape-font-specification:'Varela Round';text-align:center;text-anchor:middle"
         id="path98" />
      <path
         d="m 574.77089,753.19134 q -1.62984,0 -2.85751,-0.6985 -1.22767,-0.6985 -1.905,-1.9685 -0.65617,-1.29117 -0.65617,-2.94217 0,-1.65101 0.65617,-2.92101 0.67733,-1.29117 1.905,-1.98967 1.22767,-0.6985 2.85751,-0.6985 1.60866,0 2.83633,0.6985 1.22767,0.6985 1.90501,1.98967 0.67733,1.27 0.67733,2.92101 0,1.651 -0.67733,2.94217 -0.67734,1.27 -1.90501,1.9685 -1.22767,0.6985 -2.83633,0.6985 z m 0,-1.75683 q 0.86783,0 1.651,-0.40217 0.80433,-0.40217 1.31233,-1.27 0.52917,-0.86784 0.52917,-2.20134 0,-1.31234 -0.52917,-2.18017 -0.508,-0.86784 -1.31233,-1.24884 -0.78317,-0.40216 -1.651,-0.40216 -0.88901,0 -1.69334,0.40216 -0.78317,0.381 -1.29117,1.24884 -0.508,0.86783 -0.508,2.18017 0,1.3335 0.508,2.20134 0.508,0.86783 1.29117,1.27 0.80433,0.40217 1.69334,0.40217 z"
         style="font-family:'Varela Round';-inkscape-font-specification:'Varela Round';text-align:center;text-anchor:middle"
         id="path100" />
      <path
         d="m 583.83023,753.08551 q -0.40216,0 -0.67733,-0.27517 -0.27517,-0.27517 -0.27517,-0.67733 v -9.08052 q 0,-0.40216 0.27517,-0.67733 0.27517,-0.29634 0.67733,-0.29634 0.40217,0 0.67734,0.29634 0.29633,0.27517 0.29633,0.67733 v 0.86784 q 0.59267,-0.84667 1.41817,-1.397 0.84667,-0.55034 2.18017,-0.55034 1.18534,0 2.032,0.635 0.84667,0.635 1.20651,1.54517 1.31233,-2.18017 3.89467,-2.18017 1.18533,0 1.9685,0.59267 0.80434,0.59267 1.18534,1.524 0.381,0.93134 0.381,1.94734 v 6.09601 q 0,0.40216 -0.29634,0.67733 -0.27516,0.27517 -0.67733,0.27517 -0.40217,0 -0.67734,-0.27517 -0.27516,-0.27517 -0.27516,-0.67733 V 746.418 q 0,-1.37584 -0.48684,-2.01084 -0.48683,-0.65617 -1.67217,-0.65617 -1.0795,0 -1.79917,0.5715 -0.6985,0.55034 -1.24883,1.46051 v 6.35001 q 0,0.40216 -0.29633,0.67733 -0.27517,0.27517 -0.67734,0.27517 -0.40217,0 -0.67733,-0.27517 -0.27517,-0.27517 -0.27517,-0.67733 V 746.418 q 0,-1.37584 -0.48683,-2.01084 -0.48684,-0.65617 -1.67217,-0.65617 -1.07951,0 -1.79917,0.5715 -0.6985,0.55034 -1.24884,1.46051 v 6.35001 q 0,0.40216 -0.29633,0.67733 -0.27517,0.27517 -0.67734,0.27517 z"
         style="font-family:'Varela Round';-inkscape-font-specification:'Varela Round';text-align:center;text-anchor:middle"
         id="path102" />
      <path
         d="m 603.21891,739.98332 q -0.4445,0 -0.762,-0.3175 -0.3175,-0.3175 -0.3175,-0.762 v -0.0847 q 0,-0.4445 0.3175,-0.762 0.3175,-0.3175 0.762,-0.3175 h 0.12701 q 0.4445,0 0.762,0.3175 0.3175,0.3175 0.3175,0.762 v 0.0847 q 0,0.4445 -0.3175,0.762 -0.3175,0.3175 -0.762,0.3175 z m 0.0423,13.10219 q -0.40217,0 -0.67734,-0.27517 -0.27516,-0.27517 -0.27516,-0.67733 v -9.08052 q 0,-0.40216 0.27516,-0.67733 0.27517,-0.29634 0.67734,-0.29634 0.42333,0 0.6985,0.27517 0.27517,0.27517 0.27517,0.6985 v 9.08052 q 0,0.40216 -0.29634,0.67733 -0.27516,0.27517 -0.67733,0.27517 z"
         style="font-family:'Varela Round';-inkscape-font-specification:'Varela Round';text-align:center;text-anchor:middle"
         id="path104" />
      <path
         d="m 612.57457,753.19134 q -1.52401,0 -2.81518,-0.67733 -1.29116,-0.67734 -2.07433,-1.94734 -0.762,-1.27 -0.762,-2.9845 0,-1.71451 0.762,-2.98451 0.78317,-1.27 2.07433,-1.94733 1.29117,-0.67734 2.81518,-0.67734 1.12183,0 1.92617,0.29633 0.8255,0.27517 1.524,0.71967 0.42333,0.27517 0.42333,0.74084 0,0.3175 -0.254,0.59266 -0.23283,0.254 -0.55033,0.254 -0.23284,0 -0.46567,-0.127 -0.6985,-0.35983 -1.2065,-0.508 -0.48684,-0.16933 -1.22767,-0.16933 -1.82034,0 -2.85751,1.05834 -1.03716,1.03716 -1.03716,2.75167 0,1.7145 1.03716,2.77283 1.03717,1.03717 2.85751,1.03717 0.74083,0 1.22767,-0.14816 0.508,-0.16934 1.2065,-0.52917 0.23283,-0.127 0.46567,-0.127 0.3175,0 0.55033,0.27516 0.254,0.25401 0.254,0.57151 0,0.46566 -0.42333,0.74083 -0.6985,0.4445 -1.524,0.74083 -0.80434,0.27517 -1.92617,0.27517 z"
         style="font-family:'Varela Round';-inkscape-font-specification:'Varela Round';text-align:center;text-anchor:middle"
         id="path106" />
      <path
         d="m 622.35356,753.19134 q -2.11667,0 -3.85234,-0.9525 -0.35983,-0.254 -0.35983,-0.6985 0,-0.33867 0.23283,-0.59267 0.23283,-0.254 0.59267,-0.254 0.1905,0 0.381,0.0847 0.67733,0.29633 1.35467,0.46567 0.67733,0.16933 1.524,0.16933 2.3495,0 2.3495,-1.50284 0,-0.48683 -0.55033,-0.74083 -0.52917,-0.254 -1.75684,-0.5715 -1.24883,-0.29634 -2.07433,-0.61384 -0.80434,-0.3175 -1.39701,-0.9525 -0.5715,-0.65617 -0.5715,-1.7145 0,-1.48167 1.05834,-2.413 1.0795,-0.93134 3.06917,-0.93134 1.62984,0 3.06917,0.52917 0.29633,0.0847 0.4445,0.3175 0.16934,0.23283 0.16934,0.48683 0,0.33867 -0.25401,0.59267 -0.23283,0.254 -0.59266,0.254 -0.10584,0 -0.27517,-0.0423 -1.22767,-0.381 -2.413,-0.381 -1.14301,0 -1.79917,0.42333 -0.635,0.40217 -0.635,1.05834 0,0.635 0.59266,0.93133 0.59267,0.29633 1.84151,0.5715 1.24883,0.3175 2.032,0.635 0.78317,0.29634 1.3335,0.9525 0.5715,0.65617 0.5715,1.75684 0,1.35467 -1.0795,2.24367 -1.05833,0.889 -3.00567,0.889 z"
         style="font-family:'Varela Round';-inkscape-font-specification:'Varela Round';text-align:center;text-anchor:middle"
         id="path108" />
    </g>
    <g
       aria-label="SPAAM Summer School"
       id="text11208"
       style="font-size:21.1667px;line-height:1.25;font-family:Arial;-inkscape-font-specification:'Arial, Normal';letter-spacing:0px;stroke-width:0.264583">
      <path
         d="m 396.80158,559.58575 q -2.68817,0 -5.03767,-1.016 -0.25401,-0.10583 -0.42334,-0.33867 -0.16933,-0.254 -0.16933,-0.52916 0,-0.35984 0.23283,-0.61384 0.254,-0.27517 0.635,-0.27517 0.21167,0 0.40217,0.0847 1.94734,0.86784 4.16984,0.86784 3.70417,0 3.70417,-2.43418 0,-0.635 -0.48683,-1.05833 -0.46567,-0.42333 -1.16417,-0.65617 -0.6985,-0.254 -1.98967,-0.59267 -1.7145,-0.4445 -2.77284,-0.84666 -1.05833,-0.42334 -1.82033,-1.24884 -0.76201,-0.8255 -0.76201,-2.20134 0,-1.2065 0.63501,-2.18017 0.635,-0.99483 1.86267,-1.56633 1.24883,-0.59267 2.9845,-0.59267 2.32834,0 4.21217,0.6985 0.59267,0.21167 0.59267,0.84667 0,0.33867 -0.23283,0.61383 -0.23284,0.27517 -0.61384,0.27517 -0.127,0 -0.33866,-0.0847 -1.65101,-0.5715 -3.40784,-0.5715 -1.67217,0 -2.73051,0.635 -1.03717,0.63501 -1.03717,1.77801 0,0.762 0.48684,1.24883 0.508,0.46567 1.24883,0.74084 0.762,0.254 2.05317,0.55033 1.67217,0.40217 2.68817,0.80434 1.03717,0.40216 1.75684,1.24883 0.74084,0.84667 0.74084,2.286 0,1.18534 -0.67734,2.13784 -0.67733,0.93134 -1.905,1.4605 -1.22767,0.52917 -2.83634,0.52917 z"
         style="font-family:'Varela Round';-inkscape-font-specification:'Varela Round'"
         id="path111" />
      <path
         d="m 406.13608,559.47992 q -0.40217,0 -0.67734,-0.27517 -0.27516,-0.27517 -0.27516,-0.67733 V 545.5734 q 0,-0.40217 0.27516,-0.67734 0.27517,-0.29633 0.67734,-0.29633 h 4.82601 q 2.01083,0 3.28083,0.67733 1.27001,0.67734 1.82034,1.73567 0.55033,1.05834 0.55033,2.28601 0,1.22766 -0.55033,2.286 -0.55033,1.05833 -1.82034,1.73567 -1.27,0.67733 -3.28083,0.67733 h -3.85234 v 4.52968 q 0,0.40216 -0.29634,0.67733 -0.27516,0.27517 -0.67733,0.27517 z m 4.63551,-7.30251 q 2.159,0 3.02683,-0.8255 0.889,-0.82551 0.889,-2.05317 0,-1.22767 -0.889,-2.05317 -0.86783,-0.82551 -3.02683,-0.82551 h -3.66184 v 5.75735 z"
         style="font-family:'Varela Round';-inkscape-font-specification:'Varela Round'"
         id="path113" />
      <path
         d="m 418.4339,559.47992 q -0.42334,0 -0.69851,-0.27517 -0.254,-0.27517 -0.254,-0.67733 0,-0.16934 0.10584,-0.42334 l 5.39751,-12.74235 q 0.16933,-0.381 0.46566,-0.61384 0.3175,-0.254 0.76201,-0.254 h 0.21166 q 0.4445,0 0.74084,0.254 0.3175,0.23284 0.48683,0.61384 l 5.39751,12.74235 q 0.10583,0.254 0.10583,0.42334 0,0.40216 -0.27516,0.67733 -0.254,0.27517 -0.67734,0.27517 -0.29633,0 -0.55033,-0.14817 -0.23284,-0.16933 -0.35984,-0.4445 l -1.37583,-3.302 h -7.19668 l -1.37584,3.302 q -0.127,0.27517 -0.381,0.4445 -0.23283,0.14817 -0.52916,0.14817 z m 3.02683,-5.65151 h 5.71501 l -2.8575,-6.87918 z"
         style="font-family:'Varela Round';-inkscape-font-specification:'Varela Round'"
         id="path115" />
      <path
         d="m 433.80088,559.47992 q -0.42334,0 -0.69851,-0.27517 -0.254,-0.27517 -0.254,-0.67733 0,-0.16934 0.10584,-0.42334 l 5.39751,-12.74235 q 0.16933,-0.381 0.46566,-0.61384 0.3175,-0.254 0.762,-0.254 h 0.21167 q 0.4445,0 0.74084,0.254 0.3175,0.23284 0.48683,0.61384 l 5.39751,12.74235 q 0.10583,0.254 0.10583,0.42334 0,0.40216 -0.27516,0.67733 -0.254,0.27517 -0.67734,0.27517 -0.29633,0 -0.55033,-0.14817 -0.23284,-0.16933 -0.35984,-0.4445 l -1.37583,-3.302 h -7.19668 l -1.37584,3.302 q -0.127,0.27517 -0.381,0.4445 -0.23283,0.14817 -0.52916,0.14817 z m 3.02683,-5.65151 h 5.71501 l -2.8575,-6.87918 z"
         style="font-family:'Varela Round';-inkscape-font-specification:'Varela Round'"
         id="path117" />
      <path
         d="m 450.58604,559.47992 q -0.40217,0 -0.67734,-0.27517 -0.27517,-0.27517 -0.27517,-0.67733 V 545.8909 q 0,-0.5715 0.40217,-0.97367 0.40217,-0.42334 0.97367,-0.42334 h 0.6985 q 0.42333,0 0.762,0.254 0.35984,0.254 0.52917,0.63501 l 4.80484,11.98035 4.80484,-11.98035 q 0.16934,-0.38101 0.508,-0.63501 0.35984,-0.254 0.78317,-0.254 h 0.6985 q 0.5715,0 0.97367,0.42334 0.40217,0.40217 0.40217,0.97367 v 12.63652 q 0,0.40216 -0.27517,0.67733 -0.27517,0.27517 -0.67733,0.27517 -0.40217,0 -0.69851,-0.27517 -0.27516,-0.27517 -0.27516,-0.67733 v -12.02269 l -4.88951,12.08619 q -0.16933,0.40216 -0.55033,0.65616 -0.35984,0.23284 -0.80434,0.23284 -0.4445,0 -0.8255,-0.23284 -0.35983,-0.254 -0.52917,-0.65616 l -4.88951,-12.08619 v 12.02269 q 0,0.40216 -0.29633,0.67733 -0.27517,0.27517 -0.67733,0.27517 z"
         style="font-family:'Varela Round';-inkscape-font-specification:'Varela Round'"
         id="path119" />
      <path
         d="m 480.24054,559.58575 q -2.68817,0 -5.03768,-1.016 -0.254,-0.10583 -0.42333,-0.33867 -0.16934,-0.254 -0.16934,-0.52916 0,-0.35984 0.23284,-0.61384 0.254,-0.27517 0.635,-0.27517 0.21167,0 0.40217,0.0847 1.94733,0.86784 4.16984,0.86784 3.70417,0 3.70417,-2.43418 0,-0.635 -0.48683,-1.05833 -0.46567,-0.42333 -1.16417,-0.65617 -0.6985,-0.254 -1.98967,-0.59267 -1.71451,-0.4445 -2.77284,-0.84666 -1.05834,-0.42334 -1.82034,-1.24884 -0.762,-0.8255 -0.762,-2.20134 0,-1.2065 0.635,-2.18017 0.635,-0.99483 1.86267,-1.56633 1.24884,-0.59267 2.98451,-0.59267 2.32833,0 4.21217,0.6985 0.59267,0.21167 0.59267,0.84667 0,0.33867 -0.23284,0.61383 -0.23283,0.27517 -0.61383,0.27517 -0.127,0 -0.33867,-0.0847 -1.651,-0.5715 -3.40784,-0.5715 -1.67217,0 -2.7305,0.635 -1.03717,0.63501 -1.03717,1.77801 0,0.762 0.48684,1.24883 0.508,0.46567 1.24883,0.74084 0.762,0.254 2.05317,0.55033 1.67217,0.40217 2.68817,0.80434 1.03717,0.40216 1.75684,1.24883 0.74083,0.84667 0.74083,2.286 0,1.18534 -0.67733,2.13784 -0.67734,0.93134 -1.90501,1.4605 -1.22766,0.52917 -2.83633,0.52917 z"
         style="font-family:'Varela Round';-inkscape-font-specification:'Varela Round'"
         id="path121" />
      <path
         d="m 491.73402,559.58575 q -1.16417,0 -2.032,-0.55033 -0.84667,-0.55034 -1.31234,-1.50284 -0.4445,-0.9525 -0.4445,-2.0955 v -6.01134 q 0,-0.40217 0.27517,-0.67734 0.29633,-0.27517 0.6985,-0.27517 0.40217,0 0.67733,0.27517 0.27517,0.27517 0.27517,0.67734 v 5.79967 q 0,2.58234 2.32834,2.58234 1.05833,0 1.88383,-0.55034 0.84667,-0.55033 1.58751,-1.48166 v -6.35001 q 0,-0.40217 0.27516,-0.67734 0.29634,-0.27517 0.6985,-0.27517 0.40217,0 0.67734,0.27517 0.27517,0.27517 0.27517,0.67734 v 9.08051 q 0,0.40217 -0.27517,0.6985 -0.27517,0.27517 -0.67734,0.27517 -0.40216,0 -0.6985,-0.27517 -0.27516,-0.29633 -0.27516,-0.6985 v -0.86783 q -0.80434,0.889 -1.73567,1.41816 -0.93134,0.52917 -2.20134,0.52917 z"
         style="font-family:'Varela Round';-inkscape-font-specification:'Varela Round'"
         id="path123" />
      <path
         d="m 501.89403,559.47992 q -0.40217,0 -0.67734,-0.27517 -0.27516,-0.27517 -0.27516,-0.67733 v -9.08052 q 0,-0.40217 0.27516,-0.67733 0.27517,-0.29634 0.67734,-0.29634 0.40216,0 0.67733,0.29634 0.29633,0.27516 0.29633,0.67733 v 0.86784 q 0.59267,-0.84667 1.41817,-1.39701 0.84667,-0.55033 2.18017,-0.55033 1.18534,0 2.03201,0.635 0.84667,0.635 1.2065,1.54517 1.31233,-2.18017 3.89467,-2.18017 1.18534,0 1.96851,0.59267 0.80433,0.59267 1.18533,1.524 0.381,0.93134 0.381,1.94734 v 6.09601 q 0,0.40216 -0.29633,0.67733 -0.27517,0.27517 -0.67734,0.27517 -0.40216,0 -0.67733,-0.27517 -0.27517,-0.27517 -0.27517,-0.67733 v -5.71501 q 0,-1.37584 -0.48683,-2.01084 -0.48684,-0.65617 -1.67217,-0.65617 -1.0795,0 -1.79917,0.5715 -0.6985,0.55034 -1.24884,1.46051 v 6.35001 q 0,0.40216 -0.29633,0.67733 -0.27517,0.27517 -0.67734,0.27517 -0.40216,0 -0.67733,-0.27517 -0.27517,-0.27517 -0.27517,-0.67733 v -5.71501 q 0,-1.37584 -0.48683,-2.01084 -0.48684,-0.65617 -1.67217,-0.65617 -1.0795,0 -1.79917,0.5715 -0.6985,0.55034 -1.24884,1.46051 v 6.35001 q 0,0.40216 -0.29633,0.67733 -0.27517,0.27517 -0.67733,0.27517 z"
         style="font-family:'Varela Round';-inkscape-font-specification:'Varela Round'"
         id="path125" />
      <path
         d="m 521.32503,559.47992 q -0.40216,0 -0.67733,-0.27517 -0.27517,-0.27517 -0.27517,-0.67733 v -9.08052 q 0,-0.40217 0.27517,-0.67733 0.27517,-0.29634 0.67733,-0.29634 0.40217,0 0.67734,0.29634 0.29633,0.27516 0.29633,0.67733 v 0.86784 q 0.59267,-0.84667 1.41817,-1.39701 0.84667,-0.55033 2.18017,-0.55033 1.18534,0 2.032,0.635 0.84667,0.635 1.20651,1.54517 1.31233,-2.18017 3.89467,-2.18017 1.18533,0 1.9685,0.59267 0.80434,0.59267 1.18534,1.524 0.381,0.93134 0.381,1.94734 v 6.09601 q 0,0.40216 -0.29634,0.67733 -0.27516,0.27517 -0.67733,0.27517 -0.40217,0 -0.67733,-0.27517 -0.27517,-0.27517 -0.27517,-0.67733 v -5.71501 q 0,-1.37584 -0.48684,-2.01084 -0.48683,-0.65617 -1.67216,-0.65617 -1.07951,0 -1.79917,0.5715 -0.69851,0.55034 -1.24884,1.46051 v 6.35001 q 0,0.40216 -0.29633,0.67733 -0.27517,0.27517 -0.67734,0.27517 -0.40217,0 -0.67733,-0.27517 -0.27517,-0.27517 -0.27517,-0.67733 v -5.71501 q 0,-1.37584 -0.48683,-2.01084 -0.48684,-0.65617 -1.67217,-0.65617 -1.0795,0 -1.79917,0.5715 -0.6985,0.55034 -1.24884,1.46051 v 6.35001 q 0,0.40216 -0.29633,0.67733 -0.27517,0.27517 -0.67734,0.27517 z"
         style="font-family:'Varela Round';-inkscape-font-specification:'Varela Round'"
         id="path127" />
      <path
         d="m 544.62956,559.58575 q -2.58234,0 -4.04284,-1.4605 -1.43934,-1.48167 -1.43934,-4.14867 0,-1.50284 0.55033,-2.77284 0.55034,-1.27 1.69334,-2.05317 1.143,-0.78317 2.81517,-0.78317 1.56634,0 2.70934,0.74083 1.143,0.71967 1.73567,1.94734 0.59267,1.2065 0.59267,2.64584 0,0.40217 -0.27517,0.67733 -0.254,0.27517 -0.6985,0.27517 h -7.17551 q 0.16933,1.48167 1.10066,2.30717 0.93134,0.8255 2.60351,0.8255 0.889,0 1.54517,-0.16933 0.67733,-0.16934 1.31233,-0.48684 0.16934,-0.0847 0.381,-0.0847 0.33867,0 0.59267,0.23283 0.254,0.23283 0.254,0.59267 0,0.46567 -0.55033,0.78317 -0.8255,0.46566 -1.62984,0.6985 -0.80433,0.23283 -2.07433,0.23283 z m 2.70933,-6.49818 q -0.0635,-1.03716 -0.55033,-1.73566 -0.46567,-0.69851 -1.16417,-1.01601 -0.6985,-0.33866 -1.41817,-0.33866 -0.71967,0 -1.41817,0.33866 -0.6985,0.3175 -1.16417,1.01601 -0.46566,0.6985 -0.52916,1.73566 z"
         style="font-family:'Varela Round';-inkscape-font-specification:'Varela Round'"
         id="path129" />
      <path
         d="m 552.73641,559.47992 q -0.40217,0 -0.67733,-0.27517 -0.27517,-0.27517 -0.27517,-0.67733 v -9.08052 q 0,-0.40217 0.27517,-0.67733 0.27516,-0.29634 0.67733,-0.29634 0.40217,0 0.67734,0.29634 0.29633,0.27516 0.29633,0.67733 v 0.91017 q 1.48167,-1.98967 3.32317,-1.98967 h 0.10583 q 0.40217,0 0.65617,0.27517 0.27517,0.27516 0.27517,0.67733 0,0.40217 -0.27517,0.65617 -0.27516,0.254 -0.6985,0.254 h -0.10583 q -1.016,0 -1.86267,0.508 -0.84667,0.48683 -1.41817,1.35467 v 6.43468 q 0,0.40216 -0.29633,0.67733 -0.27517,0.27517 -0.67734,0.27517 z"
         style="font-family:'Varela Round';-inkscape-font-specification:'Varela Round'"
         id="path131" />
      <path
         d="m 570.43172,559.58575 q -2.68817,0 -5.03767,-1.016 -0.254,-0.10583 -0.42334,-0.33867 -0.16933,-0.254 -0.16933,-0.52916 0,-0.35984 0.23283,-0.61384 0.254,-0.27517 0.635,-0.27517 0.21167,0 0.40217,0.0847 1.94734,0.86784 4.16984,0.86784 3.70417,0 3.70417,-2.43418 0,-0.635 -0.48683,-1.05833 -0.46567,-0.42333 -1.16417,-0.65617 -0.6985,-0.254 -1.98967,-0.59267 -1.7145,-0.4445 -2.77284,-0.84666 -1.05833,-0.42334 -1.82033,-1.24884 -0.762,-0.8255 -0.762,-2.20134 0,-1.2065 0.635,-2.18017 0.635,-0.99483 1.86267,-1.56633 1.24883,-0.59267 2.9845,-0.59267 2.32834,0 4.21218,0.6985 0.59266,0.21167 0.59266,0.84667 0,0.33867 -0.23283,0.61383 -0.23283,0.27517 -0.61383,0.27517 -0.12701,0 -0.33867,-0.0847 -1.651,-0.5715 -3.40784,-0.5715 -1.67217,0 -2.73051,0.635 -1.03716,0.63501 -1.03716,1.77801 0,0.762 0.48683,1.24883 0.508,0.46567 1.24884,0.74084 0.762,0.254 2.05317,0.55033 1.67217,0.40217 2.68817,0.80434 1.03717,0.40216 1.75683,1.24883 0.74084,0.84667 0.74084,2.286 0,1.18534 -0.67734,2.13784 -0.67733,0.93134 -1.905,1.4605 -1.22767,0.52917 -2.83634,0.52917 z"
         style="font-family:'Varela Round';-inkscape-font-specification:'Varela Round'"
         id="path133" />
      <path
         d="m 583.42805,559.58575 q -1.524,0 -2.81517,-0.67733 -1.29117,-0.67734 -2.07433,-1.94734 -0.762,-1.27 -0.762,-2.9845 0,-1.71451 0.762,-2.98451 0.78316,-1.27 2.07433,-1.94734 1.29117,-0.67733 2.81517,-0.67733 1.12184,0 1.92617,0.29633 0.82551,0.27517 1.52401,0.71967 0.42333,0.27517 0.42333,0.74084 0,0.3175 -0.254,0.59266 -0.23283,0.254 -0.55033,0.254 -0.23284,0 -0.46567,-0.127 -0.6985,-0.35983 -1.2065,-0.508 -0.48684,-0.16933 -1.22767,-0.16933 -1.82034,0 -2.85751,1.05833 -1.03716,1.03717 -1.03716,2.75168 0,1.7145 1.03716,2.77283 1.03717,1.03717 2.85751,1.03717 0.74083,0 1.22767,-0.14816 0.508,-0.16934 1.2065,-0.52917 0.23283,-0.127 0.46567,-0.127 0.3175,0 0.55033,0.27516 0.254,0.254 0.254,0.57151 0,0.46566 -0.42333,0.74083 -0.6985,0.4445 -1.52401,0.74083 -0.80433,0.27517 -1.92617,0.27517 z"
         style="font-family:'Varela Round';-inkscape-font-specification:'Varela Round'"
         id="path135" />
      <path
         d="m 590.66704,559.47992 q -0.40216,0 -0.67733,-0.27517 -0.27517,-0.27517 -0.27517,-0.67733 v -13.73719 q 0,-0.40217 0.27517,-0.67734 0.27517,-0.29633 0.67733,-0.29633 0.40217,0 0.67734,0.29633 0.29633,0.27517 0.29633,0.67734 v 5.52451 q 0.80434,-0.889 1.73567,-1.41817 0.93134,-0.52917 2.20134,-0.52917 1.16417,0 2.01084,0.55033 0.86783,0.55034 1.31233,1.50284 0.46567,0.9525 0.46567,2.0955 v 6.01135 q 0,0.40216 -0.29634,0.67733 -0.27516,0.27517 -0.67733,0.27517 -0.40217,0 -0.67733,-0.27517 -0.27517,-0.27517 -0.27517,-0.67733 v -5.79968 q 0,-2.58234 -2.32834,-2.58234 -1.05833,0 -1.905,0.55034 -0.8255,0.55033 -1.56634,1.48167 v 6.35001 q 0,0.40216 -0.29633,0.67733 -0.27517,0.27517 -0.67734,0.27517 z"
         style="font-family:'Varela Round';-inkscape-font-specification:'Varela Round'"
         id="path137" />
      <path
         d="m 607.36755,559.58575 q -1.62983,0 -2.8575,-0.6985 -1.22767,-0.6985 -1.905,-1.9685 -0.65617,-1.29117 -0.65617,-2.94217 0,-1.65101 0.65617,-2.92101 0.67733,-1.29117 1.905,-1.98967 1.22767,-0.6985 2.8575,-0.6985 1.60867,0 2.83634,0.6985 1.22767,0.6985 1.905,1.98967 0.67734,1.27 0.67734,2.92101 0,1.651 -0.67734,2.94217 -0.67733,1.27 -1.905,1.9685 -1.22767,0.6985 -2.83634,0.6985 z m 0,-1.75683 q 0.86784,0 1.65101,-0.40217 0.80433,-0.40217 1.31233,-1.27 0.52917,-0.86784 0.52917,-2.20134 0,-1.31234 -0.52917,-2.18017 -0.508,-0.86784 -1.31233,-1.24884 -0.78317,-0.40216 -1.65101,-0.40216 -0.889,0 -1.69333,0.40216 -0.78317,0.381 -1.29117,1.24884 -0.508,0.86783 -0.508,2.18017 0,1.3335 0.508,2.20134 0.508,0.86783 1.29117,1.27 0.80433,0.40217 1.69333,0.40217 z"
         style="font-family:'Varela Round';-inkscape-font-specification:'Varela Round'"
         id="path139" />
      <path
         d="m 620.23691,559.58575 q -1.62984,0 -2.85751,-0.6985 -1.22767,-0.6985 -1.905,-1.9685 -0.65617,-1.29117 -0.65617,-2.94217 0,-1.65101 0.65617,-2.92101 0.67733,-1.29117 1.905,-1.98967 1.22767,-0.6985 2.85751,-0.6985 1.60867,0 2.83634,0.6985 1.22766,0.6985 1.905,1.98967 0.67733,1.27 0.67733,2.92101 0,1.651 -0.67733,2.94217 -0.67734,1.27 -1.905,1.9685 -1.22767,0.6985 -2.83634,0.6985 z m 0,-1.75683 q 0.86783,0 1.651,-0.40217 0.80433,-0.40217 1.31234,-1.27 0.52916,-0.86784 0.52916,-2.20134 0,-1.31234 -0.52916,-2.18017 -0.50801,-0.86784 -1.31234,-1.24884 -0.78317,-0.40216 -1.651,-0.40216 -0.889,0 -1.69334,0.40216 -0.78317,0.381 -1.29117,1.24884 -0.508,0.86783 -0.508,2.18017 0,1.3335 0.508,2.20134 0.508,0.86783 1.29117,1.27 0.80434,0.40217 1.69334,0.40217 z"
         style="font-family:'Varela Round';-inkscape-font-specification:'Varela Round'"
         id="path141" />
      <path
         d="m 629.29626,559.47992 q -0.40217,0 -0.67734,-0.27517 -0.27517,-0.27517 -0.27517,-0.67733 v -13.73719 q 0,-0.40217 0.27517,-0.67734 0.27517,-0.29633 0.67734,-0.29633 0.42333,0 0.6985,0.27517 0.27516,0.27516 0.27516,0.6985 v 13.73719 q 0,0.40216 -0.29633,0.67733 -0.27517,0.27517 -0.67733,0.27517 z"
         style="font-family:'Varela Round';-inkscape-font-specification:'Varela Round'"
         id="path143" />
    </g>
  </g>
</svg>
