<?xml version="1.0" encoding="UTF-8" standalone="no"?>
<svg
   inkscape:export-ydpi="300.00006"
   inkscape:export-xdpi="300.00006"
   inkscape:export-filename="/home/fellows/Documents/github/spaam-workshop/AncientMetagenomeDir/assets/images/spaam-AncientMetaGenomdir_logo.png"
   sodipodi:docname="WSS-SPAAM-summerschool_logo.svg"
   inkscape:version="1.1.2 (1:1.1+202202050950+0a00cf5339)"
   id="svg8"
   version="1.1"
   viewBox="0 0 264.58332 158.74998"
   height="600"
   width="1000"
   xmlns:inkscape="http://www.inkscape.org/namespaces/inkscape"
   xmlns:sodipodi="http://sodipodi.sourceforge.net/DTD/sodipodi-0.dtd"
   xmlns="http://www.w3.org/2000/svg"
   xmlns:svg="http://www.w3.org/2000/svg"
   xmlns:rdf="http://www.w3.org/1999/02/22-rdf-syntax-ns#"
   xmlns:cc="http://creativecommons.org/ns#"
   xmlns:dc="http://purl.org/dc/elements/1.1/">
  <defs
     id="defs2">
    <style
       id="style859">.cls-1{fill:#ee4890;}.cls-2{fill:#fc6;}.cls-3{fill:#2ab675;}.cls-4{fill:#74d1f6;}</style>
  </defs>
  <sodipodi:namedview
     inkscape:pagecheckerboard="true"
     units="px"
     fit-margin-bottom="0"
     fit-margin-right="0"
     fit-margin-left="0"
     fit-margin-top="0"
     inkscape:window-maximized="1"
     inkscape:window-y="27"
     inkscape:window-x="0"
     inkscape:window-height="1016"
     inkscape:window-width="1920"
     showgrid="true"
     inkscape:document-rotation="0"
     inkscape:current-layer="layer1"
     inkscape:document-units="mm"
     inkscape:cy="1014.3867"
     inkscape:cx="15.1401"
     inkscape:zoom="0.099074642"
     inkscape:pageshadow="2"
     inkscape:pageopacity="0.0"
     borderopacity="1.0"
     bordercolor="#666666"
     pagecolor="#ffffff"
     id="base"
     inkscape:snap-bbox="true">
    <inkscape:grid
       originy="-541.34706"
       originx="-236.03448"
       id="grid833"
       type="xygrid" />
  </sodipodi:namedview>
  <metadata
     id="metadata5">
    <rdf:RDF>
      <cc:Work
         rdf:about="">
        <dc:format>image/svg+xml</dc:format>
        <dc:type
           rdf:resource="http://purl.org/dc/dcmitype/StillImage" />
      </cc:Work>
    </rdf:RDF>
  </metadata>
  <g
     transform="translate(-236.03449,-541.34714)"
     id="layer1"
     inkscape:groupmode="layer"
     inkscape:label="Layer 1">
    <g
       id="g997"
       transform="matrix(0.25,0,0,0.25,286.27616,489.46349)">
      <g
         id="g895-3-8"
         transform="matrix(1.9299468,0,0,1.9299468,184.16485,444.70622)"
         style="stroke-width:1.25;stroke-miterlimit:4;stroke-dasharray:none">
        <path
           id="path865-6-7"
           d="m 85.91,28.48 a 4.88,4.88 0 1 0 4.88,4.88 4.89,4.89 0 0 0 -4.88,-4.88 z"
           class="cls-1" />
        <path
           id="path867-7-9"
           d="M 85.91,19.47 A 13.89,13.89 0 1 0 99.8,33.36 13.9,13.9 0 0 0 85.91,19.47 Z m 0,18.77 a 4.88,4.88 0 1 1 4.88,-4.88 4.89,4.89 0 0 1 -4.88,4.88 z" />
        <path
           id="path869-5-2"
           d="m 97.55,110.81 a 4.88,4.88 0 1 0 4.87,4.88 4.89,4.89 0 0 0 -4.87,-4.88 z"
           class="cls-2" />
        <path
           id="path871-3-0"
           d="m 97.55,101.8 a 13.89,13.89 0 1 0 13.89,13.89 13.9,13.9 0 0 0 -13.89,-13.89 z m 0,18.77 a 4.88,4.88 0 1 1 4.87,-4.88 4.89,4.89 0 0 1 -4.87,4.88 z" />
        <path
           id="path873-5-2"
           d="m 59.86,50.52 a 4.85,4.85 0 0 0 -4.57,-3.27 5,5 0 0 0 -1.56,0.26 C 44.19,50.76 31.24,59.64 26.17,74 v 0 c -2.84,8 -3,17 -0.31,26.69 a 4.82,4.82 0 0 0 8.85,1.12 4.78,4.78 0 0 0 0.47,-3.66 C 28.54,73.75 45.67,60.6 56.83,56.66 a 4.86,4.86 0 0 0 3.03,-6.14 z"
           class="cls-3" />
        <path
           id="path875-6-3"
           d="M 68.4,47.63 A 13.85,13.85 0 0 0 50.83,39 C 39.37,42.89 23.83,53.61 17.67,71 14.2,80.74 14,91.53 17.16,103 A 13.85,13.85 0 0 0 43.88,95.72 C 38,74.07 56.13,66.47 59.81,65.17 A 13.9,13.9 0 0 0 68.4,47.63 Z m -11.57,9 C 45.67,60.6 28.54,73.75 35.18,98.11 A 4.85,4.85 0 0 1 31.79,104 4.85,4.85 0 0 1 25.86,100.61 C 23.22,91 23.33,82 26.17,74 v 0 c 5.07,-14.32 18,-23.2 27.56,-26.45 a 5,5 0 0 1 1.56,-0.26 4.83,4.83 0 0 1 1.54,9.41 z" />
        <path
           id="path877-2-7"
           d="m 123.62,73.8 a 48,48 0 0 0 -23.08,-6 40.13,40.13 0 0 0 -15,2.81 c -7.9,3.18 -14.71,9 -20.23,17.42 a 4.83,4.83 0 0 0 5,7.38 4.75,4.75 0 0 0 3,-2.07 C 87.2,72.26 108.4,76.41 118.73,82.19 a 4.8311619,4.8311619 0 1 0 4.81,-8.38 z"
           class="cls-4" />
        <path
           id="path879-9-5"
           d="M 128.11,66 C 117.61,60 99.29,55.39 82.2,62.26 72.56,66.13 64.35,73.13 57.8,83.08 a 13.86,13.86 0 0 0 11.54,21.47 14.28,14.28 0 0 0 2.82,-0.29 13.76,13.76 0 0 0 8.77,-5.95 C 93.28,79.54 111,88.13 114.39,90 a 13.85,13.85 0 0 0 13.72,-24 z m -2.69,14.4 a 4.88,4.88 0 0 1 -6.61,1.8 C 108.48,76.42 87.28,72.27 73.39,93.35 A 4.82,4.82 0 0 1 66.71,94.72 4.83,4.83 0 0 1 65.33,88 C 70.85,79.62 77.66,73.76 85.56,70.58 a 40.13,40.13 0 0 1 15,-2.81 48,48 0 0 1 23.08,6 4.83,4.83 0 0 1 1.78,6.61 z" />
      </g>
      <path
         style="fill:none;stroke:#000000;stroke-width:20;stroke-linecap:butt;stroke-linejoin:round;stroke-miterlimit:4;stroke-dasharray:none;stroke-opacity:1"
         d="m 74.200002,514.45212 c 0,0 163.575858,-95.2509 253.999998,-95.2509 90.42414,0 254,95.2509 254,95.2509 v 148.1667 c 0,0 -163.57607,95.2491 -254,95.2491 -90.42393,0 -253.999998,-95.2491 -253.999998,-95.2491 z"
         id="path5481-2"
         sodipodi:nodetypes="csccscc" />
      <path
         style="fill:none;stroke:#000000;stroke-width:20;stroke-linecap:butt;stroke-linejoin:round;stroke-miterlimit:4;stroke-dasharray:none;stroke-opacity:1"
         d="M 74.200002,588.53462 -137.46666,503.86792 328.2,292.20122 793.86667,503.86792 582.2,588.53462"
         id="path7329"
         sodipodi:nodetypes="ccccc" />
    </g>
  </g>
</svg>
